<svg width="50" height="50" viewBox="0 0 50 50" fill="none" xmlns="http://www.w3.org/2000/svg">
<path d="M50 39.2852C50 40.9176 48.6768 42.2409 47.0444 42.2409H2.95557C1.32324 42.241 0 40.9176 0 39.2852V10.7145C0 9.08213 1.32324 7.75879 2.95557 7.75879H47.0444C48.6769 7.75879 50 9.08213 50 10.7145V39.2852Z" fill="#306FC5"/>
<path opacity="0.15" d="M2.10127 39.2852V10.7145C2.10127 9.08213 3.42471 7.75879 5.05703 7.75879H2.95547C1.32324 7.75879 0 9.08203 0 10.7145V39.2853C0 40.9177 1.32324 42.241 2.95557 42.241H5.05713C3.4248 42.241 2.10127 40.9176 2.10127 39.2852Z" fill="#202121"/>
<path d="M7.28418 21.5574H8.77813L8.03135 19.656L7.28418 21.5574Z" fill="white"/>
<path d="M15.229 27.9402V28.8231H17.7416V29.774H15.229V30.7928H18.0131L19.3032 29.3665L18.0811 27.9402H15.229Z" fill="white"/>
<path d="M34.8533 19.656L34.0383 21.5574H35.6003L34.8533 19.656Z" fill="white"/>
<path d="M22.4949 31.3354V27.4648L20.7292 29.3663L22.4949 31.3354Z" fill="white"/>
<path d="M25.8221 28.5516C25.7541 28.1442 25.4822 27.9402 25.0746 27.9402H23.6489V29.1625H25.143C25.5503 29.1625 25.8221 28.9589 25.8221 28.5516Z" fill="white"/>
<path d="M30.5751 29.027C30.7109 28.9589 30.7791 28.755 30.7791 28.5517C30.8471 28.2803 30.7109 28.1442 30.5751 28.0763C30.4396 28.0083 30.2356 28.0083 30.0322 28.0083H28.6738V29.0949H30.0321C30.2355 29.0949 30.4395 29.0949 30.5751 29.027Z" fill="white"/>
<path d="M40.3532 17.8904V18.7052L39.946 17.8904H36.7548V18.7052L36.3472 17.8904H32.0013C31.2544 17.8904 30.643 18.0263 30.1 18.2979V17.8904H27.0445V17.9583V18.2979C26.705 18.0264 26.2976 17.8904 25.7543 17.8904H14.8217L14.0745 19.588L13.3277 17.8904H10.8833H9.8646V18.7052L9.52505 17.8904H9.45708H6.53726L5.17895 21.0818L3.61733 24.5449L3.58862 24.6129H3.61733H7.08052H7.12388L7.14849 24.5449L7.5561 23.5265H8.43882L8.84624 24.6129H12.7843V24.5449V23.7981L13.1241 24.6128H15.0931L15.4325 23.7981V24.5449V24.6129H16.9943H24.8034H24.8713V22.8473H25.0075C25.1431 22.8473 25.1431 22.8473 25.1431 23.0511V24.545H30.0323V24.1375C30.4397 24.3416 31.0504 24.545 31.8654 24.545H33.9028L34.3102 23.4587H35.2606L35.668 24.545H39.6063V23.8661V23.5266L40.2177 24.545H40.3532H40.4213H43.4091V17.8904H40.3534H40.3532V17.8904ZM17.334 23.5946H16.6548H16.2475V23.1875V19.8597L16.1795 20.0155V20.0136L14.5999 23.5946H14.5499H14.1867H13.5991L11.9695 19.8597V23.5946H9.66089L9.18559 22.576H6.87661L6.40122 23.5946H5.20757L7.21636 18.8412H8.91382L10.8151 23.3907V18.8412H11.2224H12.6141L12.6461 18.9092H12.6485L13.5052 20.7739L14.1205 22.1709L14.1422 22.1005L15.5002 18.8413H17.3339V23.5946H17.334V23.5946ZM22.0196 19.8597H19.3712V20.7424H21.9516V21.693H19.3712V22.644H22.0196V23.6623H18.2169V18.8413H22.0196V19.8597ZM26.8628 21.6107C26.8646 21.6123 26.8668 21.6133 26.869 21.6148C26.8947 21.6419 26.9166 21.6692 26.9354 21.6953C27.0655 21.8658 27.1707 22.1194 27.1759 22.4913C27.1763 22.4977 27.1766 22.5041 27.177 22.5105C27.177 22.5142 27.1777 22.5174 27.1777 22.5212C27.1777 22.5234 27.1775 22.525 27.1775 22.5271C27.1791 22.5645 27.18 22.6027 27.18 22.644V23.5947H26.1617V23.0512C26.1617 22.7796 26.1617 22.3721 25.9577 22.1005C25.8935 22.0364 25.8286 21.9941 25.7579 21.964C25.6561 21.8981 25.4632 21.897 25.1431 21.897H23.9205V23.5947H22.7664V18.8413H25.3469C25.9577 18.8413 26.3653 18.8413 26.7049 19.045C27.0376 19.2448 27.2386 19.5761 27.2462 20.1008C27.2305 20.8235 26.7666 21.22 26.4332 21.3537C26.4332 21.3537 26.6597 21.3993 26.8628 21.6107ZM29.1495 23.5946H27.995V18.8412H29.1495V23.5946ZM42.3909 23.5946H40.8967L38.7239 19.9955V22.9833L38.7167 22.9762V23.5975H37.5696V23.5947H36.4151L36.0077 22.5761H33.6308L33.2234 23.6624H31.9333C31.3904 23.6624 30.7109 23.5267 30.3037 23.1193C29.8962 22.7119 29.6927 22.1686 29.6927 21.286C29.6927 20.607 29.8284 19.9275 30.3037 19.3844C30.6429 18.9767 31.2543 18.8413 32.0011 18.8413H33.0878V19.8597H32.0011C31.5937 19.8597 31.3904 19.9274 31.1182 20.1315C30.9149 20.3351 30.779 20.7424 30.779 21.2177C30.779 21.7611 30.8469 22.1005 31.1182 22.3721C31.3224 22.5761 31.5938 22.6441 31.9333 22.6441H32.4085L33.9702 18.9094H34.6496H35.6679L37.5695 23.4589V23.2269V21.6932V21.5576V18.9095H39.2669L41.2358 22.2367V18.9095H42.3907V23.5948H42.3909V23.5946Z" fill="white"/>
<path d="M25.8946 20.8211C25.9145 20.7999 25.9324 20.7759 25.9477 20.7483C26.0092 20.651 26.0797 20.4756 26.0417 20.2362C26.0401 20.2143 26.0361 20.1939 26.0314 20.1743C26.0302 20.1688 26.0304 20.1641 26.0289 20.1586L26.0282 20.1587C25.9944 20.0424 25.9082 19.9709 25.8222 19.9275C25.686 19.8599 25.4823 19.8599 25.2787 19.8599H23.9204V20.9465H25.2787C25.4823 20.9465 25.6861 20.9465 25.8222 20.8784C25.8426 20.8681 25.8607 20.854 25.8782 20.8381L25.8784 20.839C25.8785 20.8389 25.8854 20.8316 25.8946 20.8211Z" fill="white"/>
<path d="M46.397 30.3852C46.397 29.9099 46.2613 29.4344 46.0577 29.095V26.0394H46.0546V25.8354C46.0546 25.8354 43.2084 25.8354 42.7848 25.8354C42.3613 25.8354 41.8475 26.2427 41.8475 26.2427V25.8354H38.724C38.2484 25.8354 37.6377 25.9713 37.3657 26.2427V25.8354H31.7978V26.0394V26.2426C31.3906 25.9034 30.6431 25.8353 30.3038 25.8353H26.6369V26.0393V26.2425C26.2975 25.9033 25.4822 25.8352 25.0746 25.8352H21.001L20.0501 26.8539L19.1673 25.8352H18.883H18.4204H13.0562V26.0392V26.5756V32.6939H19.0317L20.0136 31.7118L20.8646 32.6939H20.9328H24.376H24.532H24.6H24.6676V32.0149V31.1322H25.0073C25.4822 31.1322 26.0937 31.1322 26.5689 30.9282V32.6256V32.7618H29.6247V32.6256V30.9961H29.7602C29.9642 30.9961 29.9642 30.9961 29.9642 31.1999V32.6256V32.7618H39.1988C39.8104 32.7618 40.4212 32.6256 40.7606 32.3541V32.6256V32.7618H43.6808C44.2915 32.7618 44.9031 32.6939 45.3105 32.4221C45.9357 32.047 46.3298 31.3831 46.3884 30.5912C46.3911 30.5677 46.3945 30.5443 46.3967 30.5208L46.3927 30.5169C46.3952 30.473 46.397 30.4295 46.397 30.3852ZM25.0074 29.9779H23.649V30.1811V30.5887V30.9962V31.7432H21.4171L20.1181 30.2492L20.1136 30.2542L20.0501 30.1811L18.5562 31.7432H14.2104V26.99H18.6242L19.8301 28.3108L20.0836 28.5874L20.118 28.5517L21.5441 26.9901H25.143C25.8414 26.9901 26.6235 27.1625 26.9199 27.8731C26.9556 28.0138 26.9763 28.1703 26.9763 28.348C26.9763 29.706 26.0256 29.9779 25.0074 29.9779ZM31.7978 29.9098C31.9334 30.113 32.0014 30.3851 32.0014 30.7927V31.7431H30.8472V31.1322C30.8472 30.8601 30.8472 30.3851 30.6432 30.1811C30.5077 29.9779 30.2357 29.9779 29.8286 29.9779H28.6064V31.7432H27.4521V26.922H30.0323C30.5752 26.922 31.0505 26.922 31.3906 27.1255C31.7299 27.3294 32.0014 27.669 32.0014 28.2123C32.0014 28.959 31.5263 29.3665 31.1866 29.5025C31.5263 29.6377 31.7299 29.774 31.7978 29.9098ZM36.4833 27.9402H33.8347V28.823H36.4151V29.7739H33.8347V30.7247H36.4833V31.7431H32.6807V26.9219H36.4833V27.9402ZM39.3351 31.7432H37.162V30.7248H39.3351C39.5384 30.7248 39.6745 30.7248 39.8106 30.5888C39.8786 30.5208 39.9461 30.3852 39.9461 30.2493C39.9461 30.1131 39.8786 29.978 39.8106 29.9099C39.7425 29.842 39.6064 29.7741 39.4028 29.7741C38.3163 29.7061 37.0262 29.7741 37.0262 28.2803C37.0262 27.6012 37.4336 26.8541 38.656 26.8541H40.8967V28.0083H38.7918C38.5882 28.0083 38.4521 28.0084 38.3162 28.0763C38.1808 28.1444 38.1808 28.2803 38.1808 28.416C38.1808 28.6198 38.3162 28.6877 38.452 28.7551C38.5882 28.8232 38.7238 28.8232 38.8595 28.8232H39.4707C40.0819 28.8232 40.4893 28.959 40.7608 29.2307C40.9646 29.4345 41.1005 29.7741 41.1005 30.2493C41.1005 31.2675 40.4894 31.7432 39.3351 31.7432ZM45.1748 31.2675C44.9035 31.5395 44.4279 31.7432 43.7486 31.7432H41.5762V30.7248H43.7485C43.9523 30.7248 44.0885 30.7248 44.2241 30.5888C44.2918 30.5208 44.36 30.3852 44.36 30.2493C44.36 30.1131 44.2918 29.978 44.2241 29.9099C44.1562 29.842 44.0205 29.7741 43.8167 29.7741C42.7306 29.7061 41.44 29.7741 41.44 28.2804C41.44 27.635 41.8093 27.052 42.7199 26.8789C42.8288 26.8638 42.9438 26.8541 43.0698 26.8541H45.3108V28.0083H43.8167H43.2736H43.2057C43.0019 28.0083 42.8662 28.0084 42.7306 28.0763C42.6622 28.1444 42.5942 28.2803 42.5942 28.416C42.5942 28.6198 42.6622 28.6877 42.8662 28.7551C43.0019 28.8232 43.1377 28.8232 43.2736 28.8232H43.3411H43.8846C44.1813 28.8232 44.4058 28.8598 44.6111 28.932C44.7992 29 45.4219 29.2786 45.5611 30.0056C45.5732 30.0818 45.5821 30.1613 45.5821 30.2493C45.5821 30.6568 45.4463 30.9962 45.1748 31.2675Z" fill="white"/>
</svg>
