<svg width="9" height="13" viewBox="0 0 9 13" fill="none" xmlns="http://www.w3.org/2000/svg">
<path d="M8.11166 5.99274L2.3265 0.207681C2.19269 0.0737718 2.01408 0 1.82362 0C1.63317 0 1.45455 0.0737718 1.32075 0.207681L0.894712 0.633613C0.617487 0.911155 0.617487 1.36224 0.894712 1.63936L5.75266 6.4973L0.889322 11.3606C0.755518 11.4945 0.681641 11.6731 0.681641 11.8634C0.681641 12.054 0.755518 12.2325 0.889322 12.3665L1.31536 12.7923C1.44927 12.9262 1.62778 13 1.81823 13C2.00869 13 2.1873 12.9262 2.32111 12.7923L8.11166 7.00198C8.24578 6.86764 8.31945 6.68829 8.31902 6.49762C8.31945 6.30622 8.24578 6.12697 8.11166 5.99274Z" fill="black"/>
</svg>
