<svg width="20" height="10" viewBox="0 0 20 10" fill="none" xmlns="http://www.w3.org/2000/svg">
<path d="M19.8779 4.37208L15.6279 0.12208C15.4652 -0.0406934 15.2015 -0.0406934 15.0387 0.12208C14.876 0.284854 14.876 0.548525 15.0387 0.71126L18.5775 4.25001H0.41668C0.186367 4.25001 0 4.43638 0 4.66669C0 4.897 0.186367 5.08337 0.41668 5.08337H18.5775L15.0387 8.62208C14.876 8.78485 14.876 9.04853 15.0387 9.21126C15.1201 9.29263 15.2268 9.33333 15.3334 9.33333C15.44 9.33333 15.5466 9.29263 15.628 9.21126L19.878 4.96126C20.0407 4.79853 20.0407 4.53485 19.8779 4.37208Z" fill="black"/>
</svg>
