<svg width="22" height="22" viewBox="0 0 22 22" fill="none" xmlns="http://www.w3.org/2000/svg">
<path d="M19.7083 3.66602H2.29159C2.23139 3.66598 2.17177 3.67781 2.11615 3.70083C2.06052 3.72385 2.00998 3.75761 1.96741 3.80018C1.92485 3.84275 1.89109 3.89329 1.86807 3.94891C1.84505 4.00453 1.83322 4.06415 1.83325 4.12435V17.8743C1.83322 17.9345 1.84505 17.9942 1.86807 18.0498C1.89109 18.1054 1.92485 18.156 1.96741 18.1985C2.00998 18.2411 2.06052 18.2748 2.11615 18.2979C2.17177 18.3209 2.23139 18.3327 2.29159 18.3327H19.7083C19.7685 18.3327 19.8281 18.3209 19.8837 18.2979C19.9393 18.2748 19.9899 18.2411 20.0324 18.1985C20.075 18.156 20.1088 18.1054 20.1318 18.0498C20.1548 17.9942 20.1666 17.9345 20.1666 17.8743V4.12435C20.1666 4.06415 20.1548 4.00453 20.1318 3.94891C20.1088 3.89329 20.075 3.84275 20.0324 3.80018C19.9899 3.75761 19.9393 3.72385 19.8837 3.70083C19.8281 3.67781 19.7685 3.66598 19.7083 3.66602ZM19.2499 4.58268V10.9993H18.1043L15.492 7.5162C15.4539 7.46542 15.4058 7.42309 15.3505 7.39189C15.2953 7.36069 15.2342 7.3413 15.1711 7.33495C15.1079 7.3286 15.0442 7.33542 14.9839 7.35498C14.9235 7.37455 14.8679 7.40644 14.8205 7.44862L12.5523 9.46478L10.7904 8.32321C10.7119 8.27187 10.6194 8.24604 10.5257 8.24924C10.432 8.25245 10.3415 8.28453 10.2667 8.34111L6.72246 10.9993H2.74992V4.58268H19.2499ZM10.826 10.9993H8.24965L10.5604 9.26628L11.8421 10.0961L10.826 10.9993ZM15.0569 8.46477L16.958 10.9993H12.2051L15.0569 8.46477ZM2.74992 17.416V11.916H19.2499V17.416H2.74992Z" fill="#0083EB"/>
<path d="M5.95825 9.16602C6.2302 9.16602 6.49604 9.08538 6.72216 8.93429C6.94828 8.7832 7.12452 8.56845 7.22859 8.31721C7.33266 8.06596 7.35989 7.78949 7.30683 7.52277C7.25378 7.25604 7.12282 7.01104 6.93053 6.81874C6.73823 6.62645 6.49323 6.49549 6.2265 6.44244C5.95978 6.38938 5.68331 6.41661 5.43206 6.52068C5.18081 6.62475 4.96607 6.80099 4.81498 7.02711C4.66389 7.25323 4.58325 7.51907 4.58325 7.79102C4.58365 8.15557 4.72865 8.50507 4.98642 8.76285C5.2442 9.02062 5.5937 9.16562 5.95825 9.16602ZM5.95825 7.33268C6.0489 7.33268 6.13752 7.35956 6.21289 7.40993C6.28826 7.46029 6.34701 7.53187 6.3817 7.61562C6.41639 7.69937 6.42546 7.79153 6.40778 7.88043C6.39009 7.96934 6.34644 8.05101 6.28234 8.11511C6.21824 8.17921 6.13658 8.22286 6.04767 8.24054C5.95876 8.25823 5.86661 8.24915 5.78286 8.21446C5.69911 8.17977 5.62752 8.12103 5.57716 8.04565C5.5268 7.97028 5.49992 7.88167 5.49992 7.79102C5.50008 7.66951 5.54842 7.55302 5.63434 7.4671C5.72026 7.38118 5.83674 7.33284 5.95825 7.33268Z" fill="#0083EB"/>
<path d="M17.8748 13.291H4.12484C4.00328 13.291 3.8867 13.3393 3.80075 13.4253C3.71479 13.5112 3.6665 13.6278 3.6665 13.7493C3.6665 13.8709 3.71479 13.9875 3.80075 14.0734C3.8867 14.1594 4.00328 14.2077 4.12484 14.2077H17.8748C17.9964 14.2077 18.113 14.1594 18.1989 14.0734C18.2849 13.9875 18.3332 13.8709 18.3332 13.7493C18.3332 13.6278 18.2849 13.5112 18.1989 13.4253C18.113 13.3393 17.9964 13.291 17.8748 13.291Z" fill="#0083EB"/>
<path d="M17.8748 15.125H4.12484C4.00328 15.125 3.8867 15.1733 3.80075 15.2592C3.71479 15.3452 3.6665 15.4618 3.6665 15.5833C3.6665 15.7049 3.71479 15.8215 3.80075 15.9074C3.8867 15.9934 4.00328 16.0417 4.12484 16.0417H17.8748C17.9964 16.0417 18.113 15.9934 18.1989 15.9074C18.2849 15.8215 18.3332 15.7049 18.3332 15.5833C18.3332 15.4618 18.2849 15.3452 18.1989 15.2592C18.113 15.1733 17.9964 15.125 17.8748 15.125Z" fill="#0083EB"/>
</svg>
