<svg width="50" height="50" viewBox="0 0 50 50" fill="none" xmlns="http://www.w3.org/2000/svg">
<path d="M50 39.2853C50 40.9177 48.6768 42.241 47.0444 42.241H2.95557C1.32324 42.241 0 40.9176 0 39.2853V10.7145C0 9.08203 1.32324 7.75879 2.95557 7.75879H47.0444C48.6769 7.75879 50 9.08213 50 10.7145V39.2853Z" fill="#44423E"/>
<path d="M33.6504 36.999C40.2541 36.999 45.6074 31.6457 45.6074 25.042C45.6074 18.4383 40.2541 13.085 33.6504 13.085C27.0467 13.085 21.6934 18.4383 21.6934 25.042C21.6934 31.6457 27.0467 36.999 33.6504 36.999Z" fill="#E7E8E3"/>
<path opacity="0.15" d="M2.10127 39.2853V10.7145C2.10127 9.08203 3.42471 7.75879 5.05703 7.75879H2.95547C1.32324 7.75879 0 9.08203 0 10.7145V39.2853C0 40.9177 1.32324 42.241 2.95557 42.241H5.05713C3.4248 42.241 2.10127 40.9176 2.10127 39.2853Z" fill="#202121"/>
<path d="M33.4965 33.3048L34.0906 30.9286C36.5215 31.3606 38.3576 31.1984 39.1142 28.984C39.7622 27.2015 39.1142 26.1753 37.8177 25.5271C38.7898 25.3112 39.492 24.6627 39.6542 23.4206C39.924 21.6921 38.5737 20.7739 36.6834 20.18L37.2775 17.8574L35.8731 17.4793L35.333 19.7479C34.955 19.6395 34.5768 19.5858 34.1986 19.4778L34.793 17.2093L33.3884 16.8313L32.7944 19.1538C32.4703 19.0996 32.1462 18.9915 31.8758 18.9375L29.9316 18.4513L29.5535 19.9635L30.5796 20.2337C31.12 20.3416 31.2278 20.72 31.2278 21.0437L30.5796 23.6905C30.6337 23.6905 30.6879 23.6905 30.7418 23.7445C30.6879 23.7445 30.6338 23.6905 30.5796 23.6905L29.6615 27.4173C29.6074 27.5796 29.3915 27.8495 29.0133 27.7415L27.9872 27.4713L27.2849 29.0918L29.1213 29.5778C29.4995 29.6862 29.8236 29.7399 30.1475 29.8478L29.5535 32.2246L30.9579 32.6027L31.5519 30.2802C31.93 30.3341 32.3081 30.4418 32.6863 30.5501L32.0924 32.8725L33.4965 33.3048ZM33.8745 21.1519C34.6848 21.368 37.2233 21.746 36.8454 23.4205C36.4672 25.0408 33.9828 24.2308 33.1724 24.0145L33.8745 21.1519ZM32.0382 28.5519L32.7944 25.4191C33.7665 25.6889 36.8453 26.1211 36.4129 27.9579C35.9811 29.7401 33.0107 28.7678 32.0382 28.5519Z" fill="#F7931A"/>
<path d="M16.6932 14.9879H5.27446C4.82417 14.9879 4.45923 14.623 4.45923 14.1727C4.45923 13.7224 4.82407 13.3574 5.27446 13.3574H16.6933C17.1435 13.3574 17.5085 13.7223 17.5085 14.1727C17.5084 14.623 17.1436 14.9879 16.6932 14.9879Z" fill="#E7E8E3"/>
<path d="M16.6932 18.5748H5.27446C4.82417 18.5748 4.45923 18.21 4.45923 17.7596C4.45923 17.3093 4.82407 16.9443 5.27446 16.9443H16.6933C17.1435 16.9443 17.5085 17.3092 17.5085 17.7596C17.5084 18.2099 17.1436 18.5748 16.6932 18.5748Z" fill="#E7E8E3"/>
</svg>
