<svg xmlns="http://www.w3.org/2000/svg" xmlns:xlink="http://www.w3.org/1999/xlink" version="1.1" width="256" height="256" viewBox="0 0 256 256" xml:space="preserve">

<defs>
</defs>
<g style="stroke: none; stroke-width: 0; stroke-dasharray: none; stroke-linecap: butt; stroke-linejoin: miter; stroke-miterlimit: 10; fill: none; fill-rule: nonzero; opacity: 1;" transform="translate(1.4065934065934016 1.4065934065934016) scale(2.81 2.81)" >
	<path d="M 45 89.979 c -11.523 0 -23.047 -4.386 -31.82 -13.159 c -17.545 -17.545 -17.545 -46.094 0 -63.639 c 17.546 -17.545 46.094 -17.545 63.639 0 c 17.546 17.545 17.546 46.094 0 63.639 C 68.047 85.593 56.523 89.979 45 89.979 z M 45 10.017 c -8.963 0 -17.925 3.412 -24.749 10.235 c -13.646 13.646 -13.646 35.851 0 49.498 s 35.851 13.646 49.498 0 s 13.646 -35.851 0 -49.498 C 62.926 13.428 53.963 10.017 45 10.017 z" style="stroke: none; stroke-width: 1; stroke-dasharray: none; stroke-linecap: butt; stroke-linejoin: miter; stroke-miterlimit: 10; fill: rgb(216,33,33); fill-rule: nonzero; opacity: 1;" transform=" matrix(1 0 0 1 0 0) " stroke-linecap="round" />
	<rect x="5" y="40" rx="0" ry="0" width="80" height="10" style="stroke: none; stroke-width: 1; stroke-dasharray: none; stroke-linecap: butt; stroke-linejoin: miter; stroke-miterlimit: 10; fill: rgb(216,33,33); fill-rule: nonzero; opacity: 1;" transform=" matrix(0.7071 -0.7072 0.7072 0.7071 -18.6396 45.0044) "/>
</g>
</svg>