<svg width="30" height="30" viewBox="0 0 30 30" fill="none" xmlns="http://www.w3.org/2000/svg">
<path d="M25.6061 4.39394C22.7715 1.55934 19.0088 0 15 0C10.9912 0 7.22854 1.55934 4.39394 4.39394C1.55934 7.22854 0 10.9912 0 15C0 19.0088 1.55934 22.7715 4.39394 25.6061C7.22854 28.4407 10.9912 30 15 30C19.0088 30 22.7715 28.4407 25.6061 25.6061C28.4407 22.7715 30 19.0088 30 15C30 10.9912 28.4407 7.22854 25.6061 4.39394ZM24.4003 24.4003C21.8876 26.9129 18.548 28.2955 15 28.2955C11.452 28.2955 8.11237 26.9129 5.59975 24.4003C0.416667 19.2172 0.416667 10.7828 5.59975 5.59975C8.11237 3.08712 11.452 1.70455 15 1.70455C18.548 1.70455 21.8876 3.08712 24.4003 5.59975C29.5833 10.7828 29.5833 19.2172 24.4003 24.4003Z" fill="#4358FF"/>
<path d="M21.6103 8.39011C21.2757 8.05551 20.7391 8.05551 20.4045 8.39011L15.0004 13.7942L9.5964 8.39011C9.26181 8.05551 8.72519 8.05551 8.39059 8.39011C8.056 8.7247 8.056 9.26132 8.39059 9.59592L13.7946 15L8.39059 20.404C8.056 20.7386 8.056 21.2752 8.39059 21.6098C8.55474 21.774 8.7757 21.8623 8.99034 21.8623C9.20499 21.8623 9.42595 21.7803 9.59009 21.6098L14.9941 16.2058L20.3982 21.6098C20.5623 21.774 20.7833 21.8623 20.9979 21.8623C21.2189 21.8623 21.4335 21.7803 21.5976 21.6098C21.9322 21.2752 21.9322 20.7386 21.5976 20.404L16.2062 15L21.6103 9.59592C21.9449 9.26132 21.9449 8.7247 21.6103 8.39011Z" fill="#4358FF"/>
</svg>
