<svg xmlns="http://www.w3.org/2000/svg" width="45.579" height="45.579" viewBox="0 0 45.579 45.579">
  <path id="Icon_metro-cancel" data-name="Icon metro-cancel" d="M25.36,1.928a22.79,22.79,0,1,0,22.79,22.79A22.79,22.79,0,0,0,25.36,1.928Zm0,41.306A18.516,18.516,0,1,1,43.877,24.718,18.517,18.517,0,0,1,25.36,43.234Zm7.122-29.911L25.36,20.445l-7.122-7.122L13.965,17.6l7.122,7.122-7.122,7.122,4.273,4.273,7.122-7.122,7.122,7.122,4.273-4.273-7.122-7.122L36.755,17.6Z" transform="translate(-2.571 -1.928)" fill="#455cfd"/>
</svg>
