<svg width="18" height="18" viewBox="0 0 18 18" fill="none" xmlns="http://www.w3.org/2000/svg">
<path d="M17.8959 3.76061C17.7928 3.61294 17.627 3.52166 17.4469 3.51397L6.28137 3.03268C5.96101 3.01866 5.6933 3.26599 5.6796 3.58486C5.66599 3.90361 5.91292 4.17294 6.23175 4.18663L16.6414 4.63537L14.5946 11.0214H5.48633L3.84078 2.06149C3.80461 1.86512 3.66979 1.70129 3.48385 1.62834L0.78872 0.569537C0.491683 0.453244 0.156499 0.599144 0.0398432 0.895819C-0.0766112 1.19265 0.0692488 1.52804 0.366125 1.6447L2.76252 2.58612L4.43711 11.7033C4.48759 11.9774 4.72646 12.1764 5.00525 12.1764H5.28303L4.64872 13.9383C4.59562 14.0859 4.6175 14.2498 4.70785 14.3781C4.79808 14.5063 4.94483 14.5826 5.10148 14.5826H5.54639C5.2707 14.8894 5.10148 15.2934 5.10148 15.7377C5.10148 16.6931 5.87888 17.4703 6.83408 17.4703C7.78928 17.4703 8.56667 16.6931 8.56667 15.7377C8.56667 15.2935 8.39745 14.8894 8.1218 14.5826H11.8993C11.6235 14.8894 11.4543 15.2934 11.4543 15.7377C11.4543 16.6931 12.2315 17.4703 13.1869 17.4703C14.1423 17.4703 14.9195 16.6931 14.9195 15.7377C14.9195 15.2935 14.7503 14.8894 14.4747 14.5826H15.0158C15.2816 14.5826 15.4971 14.3671 15.4971 14.1014C15.4971 13.8355 15.2816 13.6201 15.0158 13.6201H5.78627L6.30598 12.1763H15.0157C15.2669 12.1763 15.4891 12.014 15.5656 11.7751L17.972 4.26708C18.0273 4.09572 17.9989 3.90837 17.8959 3.76061ZM6.83412 16.5079C6.40943 16.5079 6.06405 16.1626 6.06405 15.7379C6.06405 15.3132 6.40943 14.9678 6.83412 14.9678C7.25881 14.9678 7.60414 15.3132 7.60414 15.7379C7.60414 16.1626 7.25881 16.5079 6.83412 16.5079ZM13.1869 16.5079C12.7622 16.5079 12.4169 16.1626 12.4169 15.7379C12.4169 15.3132 12.7622 14.9678 13.1869 14.9678C13.6116 14.9678 13.9569 15.3132 13.9569 15.7379C13.9569 16.1626 13.6116 16.5079 13.1869 16.5079Z" fill="white"/>
</svg>
