<svg width="20" height="21" viewBox="0 0 20 21" fill="none" xmlns="http://www.w3.org/2000/svg">
<path d="M9.96094 1.37573C4.39863 1.37573 0 5.31258 0 10.0648C0 12.0892 0.810273 14.0506 2.285 15.6045C2.5768 16.794 2.22254 18.0545 1.34352 18.9235C0.976016 19.2868 1.23613 19.9124 1.75781 19.9124C3.4275 19.9124 5.03688 19.2656 6.23336 18.1255C7.41664 18.5426 8.66867 18.7539 9.96094 18.7539C15.5387 18.7539 20 14.8055 20 10.0648C20 5.32146 15.5356 1.37573 9.96094 1.37573ZM9.96094 17.6031C8.68277 17.6031 7.45051 17.3653 6.29836 16.9117C6.07207 16.8227 5.81371 16.8812 5.6493 17.0588C4.94156 17.8234 4.02152 18.3566 3.01934 18.6016C3.57152 17.5555 3.71266 16.3223 3.37652 15.154C3.35004 15.0619 3.30082 14.9777 3.23332 14.909C1.90398 13.5553 1.16406 11.8349 1.16406 10.0648C1.16406 5.91247 5.11465 2.52655 9.96094 2.52655C14.8503 2.52655 18.8359 5.91247 18.8359 10.0648C18.8359 14.2171 14.8503 17.6031 9.96094 17.6031Z" fill="#0083EB"/>
<path d="M5.27344 8.3269C4.30418 8.3269 3.51562 9.10649 3.51562 10.0647C3.51562 11.0229 4.30418 11.8025 5.27344 11.8025C6.2427 11.8025 7.03125 11.0229 7.03125 10.0647C7.03125 9.10649 6.2427 8.3269 5.27344 8.3269ZM5.27344 10.644C4.95035 10.644 4.6875 10.3841 4.6875 10.0647C4.6875 9.74531 4.95035 9.48545 5.27344 9.48545C5.59652 9.48545 5.85938 9.74531 5.85938 10.0647C5.85938 10.3841 5.59652 10.644 5.27344 10.644Z" fill="#0083EB"/>
<path d="M9.96094 8.3269C8.99168 8.3269 8.20312 9.10649 8.20312 10.0647C8.20312 11.0229 8.99168 11.8025 9.96094 11.8025C10.9302 11.8025 11.7188 11.0229 11.7188 10.0647C11.7188 9.10649 10.9302 8.3269 9.96094 8.3269ZM9.96094 10.644C9.63785 10.644 9.375 10.3841 9.375 10.0647C9.375 9.74531 9.63785 9.48545 9.96094 9.48545C10.284 9.48545 10.5469 9.74531 10.5469 10.0647C10.5469 10.3841 10.284 10.644 9.96094 10.644Z" fill="#0083EB"/>
<path d="M14.7266 8.3269C13.7573 8.3269 12.9688 9.10649 12.9688 10.0647C12.9688 11.0229 13.7573 11.8025 14.7266 11.8025C15.6958 11.8025 16.4844 11.0229 16.4844 10.0647C16.4844 9.10649 15.6958 8.3269 14.7266 8.3269ZM14.7266 10.644C14.4035 10.644 14.1406 10.3841 14.1406 10.0647C14.1406 9.74531 14.4035 9.48545 14.7266 9.48545C15.0496 9.48545 15.3125 9.74531 15.3125 10.0647C15.3125 10.3841 15.0496 10.644 14.7266 10.644Z" fill="#0083EB"/>
</svg>
