<svg width="50" height="50" viewBox="0 0 50 50" fill="none" xmlns="http://www.w3.org/2000/svg">
<path d="M50 39.2853C50 40.9177 48.6768 42.241 47.0444 42.241H2.95557C1.32324 42.241 0 40.9175 0 39.2853V10.7145C0 9.08203 1.32324 7.75879 2.95557 7.75879H47.0443C48.6768 7.75879 49.9999 9.08213 49.9999 10.7145L50 39.2853Z" fill="#0099DF"/>
<path opacity="0.15" d="M2.10127 39.2853V10.7145C2.10127 9.08203 3.42471 7.75879 5.05703 7.75879H2.95547C1.32324 7.75879 0 9.08223 0 10.7145V39.2853C0 40.9177 1.32324 42.241 2.95557 42.241H5.05713C3.4248 42.241 2.10127 40.9175 2.10127 39.2853Z" fill="#202121"/>
<path d="M43.9886 32.7274H6.10771C5.65752 32.7274 5.29248 32.3625 5.29248 31.9122C5.29248 31.4619 5.65752 31.0969 6.10771 31.0969H43.9886C44.4388 31.0969 44.8038 31.4618 44.8038 31.9122C44.8038 32.3625 44.4389 32.7274 43.9886 32.7274Z" fill="#E7E8E3"/>
<path d="M43.9886 36.6705H6.10771C5.65752 36.6705 5.29248 36.3057 5.29248 35.8553C5.29248 35.405 5.65752 35.04 6.10771 35.04H43.9886C44.4388 35.04 44.8038 35.4049 44.8038 35.8553C44.8038 36.3057 44.4389 36.6705 43.9886 36.6705Z" fill="#E7E8E3"/>
<path d="M31.2917 16.4394H32.1449C32.5659 16.0183 33.0343 15.6285 33.5378 15.3277C33.7187 15.2255 33.9063 15.1324 34.1021 15.0495C34.7744 14.7414 35.5023 14.5995 36.2579 14.5959C37.0135 14.5995 37.7416 14.7413 38.442 15.0495C39.1513 15.3614 39.7754 15.8155 40.3424 16.4111L40.3566 16.4393H42.0304L41.9878 16.3544C41.3353 15.4466 40.4846 14.6807 39.4631 14.1701C38.4419 13.6027 37.3923 13.3191 36.286 13.3191C35.18 13.3191 34.102 13.5746 33.0806 14.1135C32.0594 14.6522 31.2085 15.3898 30.5562 16.326L30.4995 16.4394H30.8113H31.2917Z" fill="#D3000B"/>
<path d="M31.5491 17.8012V21.0066V24.6658H32.9674V20.1838V18.1133V17.8012V17.5742H31.5491V17.8012Z" fill="white"/>
<path d="M39.7756 17.5742V18.0564V20.4677V24.6658H41.1937V21.4604V17.5742H39.7756Z" fill="white"/>
<path d="M30.6285 18.6109L30.6129 18.5954C29.9606 17.8012 29.1379 17.4041 28.145 17.4041C27.0954 17.4041 26.2446 17.716 25.5636 18.3402C24.8261 19.021 24.4573 19.9004 24.4573 21.0348C24.4573 22.1695 24.8261 23.0489 25.5636 23.7297C26.2445 24.3539 27.0954 24.6659 28.145 24.6659C29.1379 24.6659 29.9605 24.2687 30.6129 23.4745L30.6414 23.4461L30.23 22.9498L29.8473 22.4816C29.8464 22.4826 29.8456 22.4835 29.8448 22.4844L29.8189 22.4533L29.7904 22.4816C29.2513 22.9921 28.684 23.2759 28.0886 23.2759C27.4645 23.2759 26.9254 23.049 26.5283 22.6237C26.1029 22.1981 25.9043 21.6591 25.9043 21.0067C25.9043 20.3542 26.1028 19.8152 26.5283 19.3898C26.954 18.9641 27.4645 18.7657 28.0886 18.7657C28.6841 18.7657 29.2513 19.0494 29.7904 19.56L29.8189 19.5884L30.6415 18.624L30.632 18.6145L30.6415 18.5955L30.6285 18.6109Z" fill="white"/>
<path d="M37.5627 23.3327C37.109 23.3327 36.9388 23.0772 36.9388 22.5383V19.5315V18.7089H38.3571V17.5742H36.9388V16.7233V15.3335L35.5204 16.0992V17.5742H34.1021V18.7089H35.5204V19.5315V22.7938C35.5204 23.3328 35.6053 23.7864 35.9174 24.0985C36.2012 24.4389 36.57 24.6091 37.052 24.6091C37.5342 24.6091 37.9599 24.5241 38.3286 24.297H38.3571V24.2686L38.6689 22.9354L38.5838 22.992C38.1868 23.2191 37.903 23.3327 37.5627 23.3327Z" fill="white"/>
<path d="M15.9174 21.9712C15.9174 22.3655 15.5975 22.6849 15.2037 22.6849H6.34795C5.95371 22.6849 5.63428 22.3655 5.63428 21.9712V15.0702C5.63428 14.6759 5.95371 14.3567 6.34795 14.3567H15.2037C15.5976 14.3567 15.9174 14.676 15.9174 15.0702V21.9712Z" fill="#FFC715"/>
<path d="M8.40269 22.6848H10.0331V21.8695V15.1717V14.3564H8.40269V15.1717V16.3172H6.44927H5.63403V17.9477H6.44927H8.40269V19.0936H6.44927H5.63403V20.724H6.44927H8.40269V21.8695V22.6848Z" fill="#FFA617"/>
<path d="M15.1021 17.9477H15.9173V16.3172H15.1021H13.5474V15.1717V14.3564H11.917V15.1717V19.9089C11.917 20.3592 12.2818 20.7241 12.7322 20.7241H15.1021H15.9174V19.0937H15.1021H13.5475V17.9477H15.1021Z" fill="#FFA617"/>
<path opacity="0.15" d="M7.13574 21.9712V15.0702C7.13574 14.6759 7.45518 14.3567 7.84941 14.3567H6.34795C5.95371 14.3567 5.63428 14.676 5.63428 15.0702V21.9712C5.63428 22.3655 5.95371 22.6849 6.34795 22.6849H7.84951C7.45527 22.6849 7.13574 22.3655 7.13574 21.9712Z" fill="#202121"/>
</svg>
