<svg width="23" height="23" viewBox="0 0 23 23" fill="none" xmlns="http://www.w3.org/2000/svg">
<g clip-path="url(#clip0)">
<path d="M20.7811 12.9414C20.7811 12.893 20.7811 12.8446 20.7811 12.7962C20.7876 11.0912 20.3285 9.41689 19.4533 7.95372C18.5781 6.49055 17.32 5.2941 15.8148 4.49342C15.6427 3.46137 15.1116 2.52329 14.3152 1.84479C13.5187 1.16629 12.5081 0.791015 11.4619 0.785224C10.4156 0.779433 9.40094 1.1435 8.59702 1.81314C7.7931 2.48278 7.25163 3.41493 7.06822 4.44501C5.5429 5.23647 4.2648 6.43242 3.37388 7.90186C2.48297 9.37131 2.01359 11.0576 2.01717 12.776C2.01717 12.8648 2.01717 12.9535 2.01717 13.0463C0.996407 13.6348 0.251227 14.6047 -0.0544363 15.7426C-0.3601 16.8805 -0.201209 18.0933 0.387282 19.114C0.975774 20.1348 1.94566 20.88 3.08358 21.1856C4.22149 21.4913 5.43422 21.3324 6.45499 20.7439C7.95674 21.6813 9.69353 22.1735 11.4638 22.1635C13.234 22.1535 14.9651 21.6417 16.4562 20.6874C17.4801 21.2192 18.6709 21.3313 19.7761 20.9999C20.8812 20.6686 21.8139 19.9199 22.3764 18.9125C22.9388 17.9051 23.0868 16.7183 22.789 15.6036C22.4912 14.4889 21.771 13.534 20.7811 12.9414ZM11.4374 1.64515C12.1148 1.64118 12.7798 1.82679 13.3573 2.181C13.9347 2.53521 14.4015 3.04388 14.705 3.64952C15.0084 4.25517 15.1364 4.93362 15.0744 5.60819C15.0125 6.28276 14.763 6.92654 14.3543 7.46676C14.3407 7.0354 14.1603 6.62614 13.851 6.32514C13.5417 6.02414 13.1277 5.85488 12.6962 5.85301H12.6639C12.8216 5.69362 12.9463 5.50465 13.0307 5.29695C13.1152 5.08924 13.1578 4.86691 13.1561 4.64269C13.1551 4.361 13.0848 4.08389 12.9515 3.83573C12.8182 3.58758 12.6259 3.376 12.3916 3.2196C12.1573 3.06321 11.8882 2.96681 11.6079 2.93887C11.3276 2.91093 11.0447 2.95232 10.7842 3.0594C10.5236 3.16647 10.2934 3.33595 10.1137 3.55291C9.93408 3.76987 9.8105 4.02767 9.75389 4.30361C9.69727 4.57955 9.70935 4.86518 9.78906 5.13536C9.86877 5.40554 10.0137 5.65199 10.211 5.85301H10.1787C9.74724 5.8539 9.3331 6.02296 9.02425 6.32427C8.7154 6.62559 8.53617 7.03543 8.52463 7.46676C8.11612 6.92681 7.86673 6.28341 7.80461 5.6092C7.74248 4.93499 7.87011 4.25684 8.17307 3.65134C8.47603 3.04584 8.94225 2.53711 9.51909 2.18261C10.0959 1.8281 10.7604 1.64194 11.4374 1.64515ZM10.5257 4.65076C10.5257 4.47043 10.5792 4.29415 10.6793 4.14421C10.7795 3.99427 10.9219 3.87741 11.0885 3.8084C11.2551 3.73939 11.4385 3.72133 11.6153 3.75651C11.7922 3.79169 11.9547 3.87853 12.0822 4.00604C12.2097 4.13356 12.2965 4.29602 12.3317 4.47288C12.3669 4.64975 12.3488 4.83308 12.2798 4.99968C12.2108 5.16629 12.0939 5.30868 11.944 5.40887C11.7941 5.50906 11.6178 5.56253 11.4374 5.56253C11.196 5.56147 10.9647 5.46507 10.7939 5.29431C10.6231 5.12355 10.5267 4.89225 10.5257 4.65076ZM12.6962 6.66795C12.923 6.66795 13.1406 6.75806 13.301 6.91846C13.4614 7.07886 13.5515 7.2964 13.5515 7.52324V8.26153C12.9354 8.7021 12.1969 8.93897 11.4395 8.93897C10.682 8.93897 9.94358 8.7021 9.32747 8.26153V7.51517C9.32747 7.28903 9.41702 7.0721 9.57655 6.91181C9.73607 6.75153 9.95259 6.66095 10.1787 6.65988L12.6962 6.66795ZM0.806858 16.77C0.812036 16.1979 0.952375 15.635 1.21643 15.1273C1.48049 14.6197 1.86079 14.1816 2.32632 13.8489C2.79184 13.5162 3.32942 13.2982 3.89521 13.2127C4.46101 13.1272 5.03899 13.1767 5.58204 13.357C6.12509 13.5374 6.61783 13.8435 7.02007 14.2505C7.42232 14.6574 7.72268 15.1537 7.89667 15.6988C8.07066 16.244 8.11335 16.8225 8.02126 17.3872C7.92917 17.952 7.70491 18.487 7.36676 18.9486C7.35318 18.5172 7.17276 18.108 6.86348 17.807C6.5542 17.506 6.1402 17.3367 5.70863 17.3349H5.67635C5.83478 17.176 5.95991 16.9871 6.04443 16.7793C6.12895 16.5715 6.17114 16.3489 6.16855 16.1245C6.16751 15.8428 6.09724 15.5657 5.96394 15.3176C5.83064 15.0694 5.63838 14.8578 5.40409 14.7015C5.1698 14.5451 4.90066 14.4487 4.62036 14.4207C4.34006 14.3928 4.05718 14.4342 3.79664 14.5412C3.53609 14.6483 3.30585 14.8178 3.12619 15.0348C2.94653 15.2517 2.82296 15.5095 2.76634 15.7855C2.70972 16.0614 2.7218 16.347 2.80151 16.6172C2.88122 16.8874 3.02612 17.1338 3.22345 17.3349H3.19521C2.76303 17.3347 2.34787 17.5033 2.03815 17.8047C1.72844 18.1061 1.54865 18.5166 1.53708 18.9486C1.06269 18.3214 0.806261 17.5564 0.806858 16.77ZM3.53813 16.1326C3.53815 15.9518 3.59194 15.775 3.69267 15.6248C3.79341 15.4746 3.93653 15.3578 4.10384 15.2891C4.27115 15.2205 4.45509 15.2032 4.63228 15.2393C4.80947 15.2755 4.9719 15.3636 5.09892 15.4923C5.22593 15.621 5.3118 15.7846 5.3456 15.9623C5.37941 16.1399 5.35961 16.3236 5.28874 16.49C5.21788 16.6564 5.09913 16.7979 4.94761 16.8966C4.79608 16.9954 4.61863 17.0468 4.4378 17.0444C4.19842 17.0402 3.97021 16.9424 3.80205 16.7719C3.63389 16.6015 3.53915 16.372 3.53813 16.1326ZM2.32782 19.7313V18.993C2.32782 18.7661 2.41793 18.5486 2.57833 18.3882C2.73873 18.2278 2.95627 18.1377 3.18311 18.1377H5.69653C5.80986 18.1361 5.92238 18.157 6.02755 18.1993C6.13272 18.2416 6.22844 18.3043 6.30915 18.3839C6.38985 18.4635 6.45394 18.5583 6.49767 18.6629C6.54141 18.7674 6.56393 18.8796 6.56392 18.993V19.7313C5.94781 20.1718 5.20934 20.4087 4.45192 20.4087C3.6945 20.4087 2.95603 20.1718 2.33992 19.7313H2.32782ZM11.385 21.345C9.91655 21.3466 8.47262 20.9686 7.19328 20.2477C7.92162 19.6772 8.45348 18.8935 8.71449 18.0059C8.9755 17.1184 8.9526 16.1714 8.649 15.2975C8.34541 14.4236 7.77629 13.6664 7.02123 13.1319C6.26617 12.5973 5.36293 12.3121 4.4378 12.3161C3.88482 12.3179 3.3372 12.4247 2.82405 12.6308C2.8444 11.1719 3.23813 9.74264 3.96768 8.47917C4.69723 7.2157 5.73828 6.16018 6.99156 5.41326C6.98568 6.59024 7.44759 7.72136 8.27568 8.55777C9.10377 9.39418 10.2302 9.86738 11.4072 9.87327C12.5842 9.87915 13.7153 9.41724 14.5517 8.58915C15.3881 7.76106 15.8613 6.63462 15.8672 5.45764C17.0883 6.20091 18.1037 7.23839 18.8204 8.47526C19.5372 9.71214 19.9325 11.1089 19.9702 12.538C19.5149 12.387 19.0378 12.312 18.5581 12.3161C17.6409 12.3125 16.7451 12.5933 15.994 13.1198C15.2429 13.6462 14.6733 14.3924 14.3637 15.2558C14.0541 16.1192 14.0196 17.0574 14.265 17.9412C14.5104 18.825 15.0236 19.611 15.7341 20.1912C14.4186 20.9605 12.921 21.3631 11.3971 21.3571L11.385 21.345ZM16.4239 19.7313V18.993C16.4239 18.7661 16.5141 18.5486 16.6745 18.3882C16.8348 18.2278 17.0524 18.1377 17.2792 18.1377H19.8088C20.0349 18.1388 20.2514 18.2293 20.411 18.3896C20.5705 18.5499 20.66 18.7668 20.66 18.993V19.7313C20.0439 20.1718 19.3055 20.4087 18.548 20.4087C17.7906 20.4087 17.0522 20.1718 16.436 19.7313H16.4239ZM17.6343 16.1326C17.6343 15.9528 17.6875 15.777 17.7871 15.6273C17.8868 15.4777 18.0285 15.3608 18.1944 15.2915C18.3603 15.2221 18.543 15.2034 18.7195 15.2376C18.896 15.2718 19.0585 15.3574 19.1865 15.4837C19.3145 15.61 19.4022 15.7714 19.4388 15.9474C19.4753 16.1235 19.459 16.3064 19.3918 16.4732C19.3247 16.64 19.2097 16.7832 19.0613 16.8849C18.913 16.9865 18.7379 17.042 18.5581 17.0444C18.4379 17.0449 18.3187 17.0217 18.2074 16.9762C18.096 16.9307 17.9948 16.8637 17.9094 16.779C17.824 16.6943 17.7561 16.5937 17.7095 16.4828C17.663 16.3719 17.6388 16.2529 17.6383 16.1326H17.6343ZM21.4588 18.9567C21.4473 18.5253 21.2681 18.1155 20.9592 17.8142C20.6504 17.5129 20.2362 17.3438 19.8048 17.3429H19.7684C19.9261 17.1835 20.0508 16.9946 20.1353 16.7869C20.2197 16.5792 20.2623 16.3568 20.2606 16.1326C20.2606 15.9069 20.2162 15.6834 20.1298 15.4749C20.0434 15.2664 19.9168 15.0769 19.7573 14.9173C19.5977 14.7578 19.4082 14.6312 19.1997 14.5448C18.9912 14.4584 18.7677 14.414 18.542 14.414C18.3163 14.414 18.0928 14.4584 17.8843 14.5448C17.6758 14.6312 17.4863 14.7578 17.3267 14.9173C17.1671 15.0769 17.0405 15.2664 16.9542 15.4749C16.8678 15.6834 16.8233 15.9069 16.8233 16.1326C16.8216 16.3568 16.8643 16.5792 16.9487 16.7869C17.0332 16.9946 17.1578 17.1835 17.3155 17.3429H17.2833C16.8517 17.3448 16.4377 17.5141 16.1284 17.8151C15.8191 18.1161 15.6387 18.5253 15.6251 18.9567C15.1603 18.3234 14.9152 17.5555 14.9272 16.77C14.9315 16.1973 15.0712 15.6337 15.335 15.1253C15.5987 14.6169 15.979 14.1781 16.4447 13.8448C16.9104 13.5114 17.4484 13.293 18.0147 13.2073C18.581 13.1216 19.1595 13.1711 19.7031 13.3517C20.2466 13.5323 20.7396 13.8389 21.142 14.2465C21.5444 14.6541 21.8446 15.1511 22.0182 15.6969C22.1918 16.2427 22.2338 16.8218 22.1408 17.387C22.0478 17.9521 21.8224 18.4872 21.4831 18.9486L21.4588 18.9567Z" fill="#0083EB"/>
</g>
<defs>
<clipPath id="clip0">
<rect width="23" height="23" fill="white"/>
</clipPath>
</defs>
</svg>
