<svg width="29" height="29" viewBox="0 0 29 29" fill="none" xmlns="http://www.w3.org/2000/svg">
<g clip-path="url(#clip0)">
<path d="M28.9999 11.2045C28.9997 11.0007 28.9059 10.8085 28.7445 10.6838C28.7439 10.6832 27.1331 9.43493 25.0455 7.79571V5.27271C25.0455 3.81873 23.8631 2.63632 22.4091 2.63632H18.5704C17.6312 1.86933 16.8162 1.19125 16.2719 0.708606C15.7486 0.245429 15.1245 6.18015e-05 14.5005 1.16497e-08C13.876 -6.17782e-05 13.2516 0.245676 12.7287 0.708667C12.1844 1.19131 11.3695 1.86939 10.4297 2.63639H6.59093C5.1369 2.63639 3.95455 3.81873 3.95455 5.27271V7.79565C1.86642 9.43475 0.256181 10.6832 0.255501 10.6838C0.0941059 10.8085 0.000308949 11.0007 0.00012358 11.2045H0V26.3636C0 27.8176 1.18235 29 2.63639 29H26.3637C27.8177 29 29.0001 27.8176 29.0001 26.3636V11.2045H28.9999ZM25.0455 9.47083C25.9673 10.1926 26.7497 10.8026 27.2654 11.2039C26.7505 11.6036 25.9668 12.2133 25.0455 12.9337V9.47083ZM13.6028 1.69533C14.1679 1.19458 14.8315 1.1939 15.3979 1.69595C15.6946 1.9583 16.0686 2.27714 16.4984 2.63632H12.5022C12.932 2.27714 13.3061 1.95806 13.6028 1.69533ZM5.27271 5.27271C5.27271 4.54606 5.86422 3.95455 6.59087 3.95455H22.4091C23.1358 3.95455 23.7273 4.54606 23.7273 5.27271V13.9667C20.777 16.2839 17.0761 19.2273 15.3979 20.7131C15.2389 20.854 14.9074 21.0909 14.4794 21.0909C14.1666 21.0909 13.8647 20.9641 13.5815 20.7131C11.8931 19.2181 8.21069 16.2842 5.27271 13.9727V5.27271ZM3.95455 9.47083V12.9379C3.03258 12.2158 2.24884 11.6049 1.73395 11.2046C2.24921 10.8031 3.03203 10.1931 3.95455 9.47083ZM27.6818 26.3637C27.6818 27.0903 27.0903 27.6818 26.3637 27.6818H2.63639C1.90974 27.6818 1.31822 27.0903 1.31822 26.3637V12.5503C4.06725 14.69 10.4273 19.6805 12.7075 21.7005C13.2314 22.1639 13.8442 22.4091 14.4795 22.4091C15.1192 22.4091 15.7558 22.1575 16.272 21.7005C18.6416 19.6021 25.1279 14.5348 27.6818 12.5498V26.3637Z" fill="#4358FF"/>
<path d="M12.5224 10.5455C12.8864 10.5455 13.1815 10.2504 13.1815 9.88641C13.1815 9.52239 12.8864 9.22729 12.5224 9.22729C12.1584 9.22729 11.8633 9.52239 11.8633 9.88641C11.8633 10.2504 12.1584 10.5455 12.5224 10.5455Z" fill="#4358FF"/>
<path d="M16.4775 10.5455C16.8415 10.5455 17.1366 10.2504 17.1366 9.88641C17.1366 9.52239 16.8415 9.22729 16.4775 9.22729C16.1135 9.22729 15.8184 9.52239 15.8184 9.88641C15.8184 10.2504 16.1135 10.5455 16.4775 10.5455Z" fill="#4358FF"/>
<path d="M16.5508 14.1436C16.6673 14.3695 16.8977 14.5002 17.1372 14.5002C17.2363 14.5002 17.3367 14.4776 17.4313 14.4306C17.757 14.2678 17.8889 13.8719 17.7261 13.5462C17.692 13.4774 16.8578 11.8638 14.5002 11.8638C12.1425 11.8638 11.3084 13.4774 11.2743 13.5462C11.1134 13.868 11.2427 14.2555 11.5626 14.4209C11.8825 14.5883 12.2777 14.4622 12.4489 14.1442C12.4702 14.105 12.9851 13.1819 14.5002 13.1819C16.0037 13.1819 16.5225 14.0914 16.5508 14.1436Z" fill="#4358FF"/>
</g>
<defs>
<clipPath id="clip0">
<rect width="29" height="29" fill="white"/>
</clipPath>
</defs>
</svg>
