<svg width="40" height="40" viewBox="0 0 40 40" fill="none" xmlns="http://www.w3.org/2000/svg">
<g clip-path="url(#clip0)">
<path d="M36.7926 15.0136L34.2202 12.44V7.34024C34.2202 5.61693 32.8181 4.21491 31.0948 4.21491H26.0005L22.0179 0.229868C21.8714 0.0833683 21.6727 0.000937601 21.4654 0.000859467L18.5547 0C18.5547 0 18.5546 0 18.5545 0C18.3474 0 18.1487 0.0822745 18.0022 0.228696L14.0135 4.21498H8.90496C7.18165 4.21498 5.77962 5.61701 5.77962 7.34032V12.4482L3.20888 15.013C2.44825 15.7733 2.0293 16.7842 2.0293 17.8597V35.9753C2.0293 37.0594 2.46091 38.044 3.16036 38.7684C3.17544 38.7864 3.19114 38.8042 3.2081 38.8212C3.22497 38.8381 3.24263 38.8536 3.2606 38.8686C3.98498 39.5682 4.96969 40 6.05395 40H16.484C16.9155 40 17.2653 39.6501 17.2653 39.2187C17.2653 38.7872 16.9155 38.4373 16.484 38.4373H6.05387C5.65953 38.4373 5.28691 38.3437 4.9561 38.1781L14.1656 28.9686L17.1639 31.9651C17.924 32.7248 18.9342 33.143 20.0088 33.143H20.0101C21.0851 33.1427 22.0956 32.7237 22.8555 31.9634L25.8413 28.9757L35.0437 38.1781C34.713 38.3436 34.3403 38.4373 33.9459 38.4373H23.516C23.0844 38.4373 22.7346 38.7872 22.7346 39.2187C22.7346 39.6501 23.0844 40 23.516 40H33.9461C35.0302 40 36.0149 39.5683 36.7393 38.8688C36.7573 38.8537 36.7751 38.8381 36.7919 38.8212C36.809 38.8042 36.8246 38.7864 36.8398 38.7683C37.5391 38.0439 37.9707 37.0594 37.9707 35.9753V17.8586C37.9707 16.7841 37.5523 15.7737 36.7926 15.0136ZM34.2203 14.6504L35.6874 16.1182C35.8228 16.2538 35.94 16.4027 36.0388 16.5615L34.2203 18.3812V14.6504ZM18.8779 1.56275L21.1413 1.56353L23.7912 4.21498H16.224L18.8779 1.56275ZM4.31306 16.1188L5.7797 14.6556V18.3786L3.96161 16.5617C4.06045 16.403 4.17765 16.2542 4.31306 16.1188ZM3.85113 37.0731C3.68565 36.7424 3.59196 36.3698 3.59196 35.9754V18.4014L13.0603 27.8639L3.85113 37.0731ZM21.7503 30.8588C21.2854 31.3239 20.6673 31.5801 20.0097 31.5803C20.0094 31.5803 20.0092 31.5803 20.009 31.5803C19.3516 31.5803 18.7336 31.3245 18.2686 30.8597L7.34237 19.9403V7.34024C7.34237 6.47859 8.04338 5.77757 8.90504 5.77757H31.0949C31.9566 5.77757 32.6576 6.47859 32.6576 7.34024V12.6638C32.6502 12.7259 32.6502 12.7886 32.6576 12.8507V19.9447L21.7503 30.8588ZM36.408 35.9754C36.408 36.3698 36.3143 36.7424 36.1488 37.0731L26.9461 27.8704L36.408 18.4028V35.9754Z" fill="black"/>
<path d="M20.0001 38.4375C19.7946 38.4375 19.593 38.5211 19.4477 38.6664C19.3024 38.8118 19.2188 39.0133 19.2188 39.2188C19.2188 39.4243 19.3024 39.6259 19.4477 39.7712C19.593 39.9173 19.7946 40.0002 20.0001 40.0002C20.2056 40.0002 20.4072 39.9173 20.5525 39.7712C20.6978 39.6259 20.7814 39.4243 20.7814 39.2188C20.7814 39.0133 20.6978 38.8118 20.5525 38.6664C20.4072 38.5212 20.2056 38.4375 20.0001 38.4375Z" fill="black"/>
<path d="M20.0002 9.05469C15.9324 9.05469 12.623 12.3639 12.623 16.4317C12.623 20.5551 15.9777 23.9098 20.1011 23.9098H24.85C25.2815 23.9098 25.6313 23.5599 25.6313 23.1285C25.6313 22.697 25.2815 22.3471 24.85 22.3471H20.1011C16.8394 22.3471 14.1857 19.6935 14.1857 16.4317C14.1857 13.2257 16.794 10.6174 20.0002 10.6174C23.2063 10.6174 25.8146 13.2257 25.8146 16.4317V18.0329C25.8146 18.6483 25.3139 19.1489 24.6985 19.1489C24.0832 19.1489 23.5825 18.6483 23.5825 18.0329V16.2244C23.5825 14.0851 21.8422 12.3448 19.7029 12.3448C17.4535 12.3448 15.6235 14.1748 15.6235 16.4243C15.6235 18.6737 17.4536 20.5037 19.7029 20.5037H20.9459C21.3774 20.5037 21.7272 20.1538 21.7272 19.7224C21.7272 19.2909 21.3774 18.9411 20.9459 18.9411H19.7029C18.3152 18.9411 17.1862 17.812 17.1862 16.4242C17.1862 15.0365 18.3152 13.9075 19.7029 13.9075C20.9805 13.9075 22.0198 14.9469 22.0198 16.2244V18.0329C22.0198 19.5099 23.2214 20.7116 24.6985 20.7116C26.1757 20.7116 27.3773 19.5099 27.3773 18.0329V16.4317C27.3772 12.3639 24.0679 9.05469 20.0002 9.05469Z" fill="black"/>
</g>
<defs>
<clipPath id="clip0">
<rect width="40" height="40" fill="white"/>
</clipPath>
</defs>
</svg>
