<svg width="40" height="40" viewBox="0 0 40 40" fill="none" xmlns="http://www.w3.org/2000/svg">
<g clip-path="url(#clip0)">
<path d="M18.1622 30.4938C17.8574 30.7983 17.8574 31.293 18.1622 31.5982C18.4677 31.9031 18.9621 31.9031 19.2667 31.5982C19.5722 31.293 19.5722 30.7983 19.2667 30.4938C18.9621 30.1883 18.4677 30.1883 18.1622 30.4938Z" fill="black"/>
<path d="M38.1966 29.1373L32.2652 24.0936C32.2378 24.0704 32.2088 24.0491 32.1786 24.0299C30.6225 23.0393 28.6245 23.2587 27.3199 24.563L24.0859 27.7966C23.8619 28.0209 23.5278 28.0872 23.2348 27.9663C19.5831 26.4557 16.5832 24.1815 14.3185 21.2076C12.5915 18.9398 11.9689 17.1378 11.8868 16.8839C11.8771 16.8295 11.8615 16.7755 11.8395 16.7227C11.7184 16.4298 11.7846 16.0962 12.0092 15.8722L15.2428 12.6376C16.5475 11.333 16.7666 9.33503 15.776 7.77894C15.7681 7.76643 15.7598 7.75422 15.7513 7.74201L11.4678 1.78956C10.1202 -0.301198 7.18468 -0.617055 5.4229 1.14442L4.77532 1.792C4.77501 1.79261 4.7744 1.79322 4.77379 1.79353L2.46178 4.10554C-0.295179 6.8628 -0.746229 11.0059 1.15776 16.0877C2.78862 20.4407 6.05339 25.2048 10.3506 29.502C14.7494 33.9008 19.6423 37.226 24.1277 38.8651C28.5674 40.4871 33.29 40.687 36.6326 37.3441L38.8131 35.1639C40.5669 33.4097 40.2609 30.4935 38.1966 29.1373ZM31.2972 25.3211L37.2234 30.3604C37.2506 30.3836 37.2796 30.405 37.3098 30.4242C38.5757 31.2302 38.7673 33.0002 37.7081 34.0592L37.5463 34.2212L27.4386 26.6535L28.4246 25.6677C29.1952 24.8969 30.3695 24.7574 31.2972 25.3211ZM10.1626 2.64802C10.1705 2.66053 10.1788 2.67304 10.1873 2.68495L14.4689 8.63526C15.0506 9.56635 14.916 10.755 14.1381 11.5329L13.1826 12.4887L6.34423 2.43257L6.52764 2.24916C7.59117 1.18562 9.35967 1.38673 10.1626 2.64802ZM24.6636 37.3975C20.3875 35.835 15.6966 32.6386 11.4553 28.3972C7.31224 24.2545 4.17473 19.6881 2.62047 15.5396C1.45378 12.4255 0.671008 8.10578 3.56652 5.21058L5.21965 3.55714L12.058 13.6133L10.9048 14.7672C10.2486 15.4221 10.0423 16.3913 10.3698 17.2543C10.6164 18.2663 11.751 20.3668 12.8957 21.9147C14.5803 24.1925 17.6379 27.3416 22.6376 29.4101C23.5162 29.7736 24.5181 29.574 25.1907 28.9017L26.3226 27.7695L36.4303 35.3372L35.5279 36.2393C32.4239 39.3436 27.9067 38.5825 24.6636 37.3975Z" fill="black"/>
<path d="M16.6963 28.6293C15.8711 27.9057 14.4438 26.6612 13.6922 25.8879C11.8489 23.9936 9.91502 21.6975 8.76512 20.0386C8.51945 19.6839 8.03269 19.5954 7.67808 19.8414C7.32346 20.0871 7.23527 20.5738 7.48094 20.9285C8.93113 23.0207 11.0619 25.4249 12.5722 26.977C13.3656 27.7937 14.8052 29.0492 15.6661 29.8039C15.9898 30.0877 16.4833 30.0566 16.7687 29.7316C17.0531 29.4075 17.0207 28.9137 16.6963 28.6293Z" fill="black"/>
</g>
<defs>
<clipPath id="clip0">
<rect width="40" height="40" fill="white"/>
</clipPath>
</defs>
</svg>
