<svg width="166" height="46" viewBox="0 0 166 46" fill="none" xmlns="http://www.w3.org/2000/svg">
<path fill-rule="evenodd" clip-rule="evenodd" d="M0 6C0 2.68629 2.68629 0 6 0H160C163.314 0 166 2.68629 166 6V15.0129C160.986 15.2729 157 19.421 157 24.5C157 29.579 160.986 33.7271 166 33.9871V40C166 43.3137 163.314 46 160 46H6C2.68629 46 0 43.3137 0 40V33.9871C0.165581 33.9957 0.332283 34 0.5 34C5.74671 34 10 29.7467 10 24.5C10 19.2533 5.74671 15 0.5 15C0.332283 15 0.165581 15.0043 0 15.0129V6Z" fill="#FBF500"/>
<mask id="path-2-inside-1" fill="white">
<path fill-rule="evenodd" clip-rule="evenodd" d="M4 9C4 5.68629 6.68629 3 10 3H156C159.314 3 162 5.68629 162 9V13.5008C157.292 14.9404 153.867 19.3203 153.867 24.5C153.867 29.6797 157.292 34.0596 162 35.4992V37C162 40.3137 159.314 43 156 43H10C6.68629 43 4 40.3137 4 37V35.885C9.57795 35.0921 13.8672 30.297 13.8672 24.5C13.8672 18.703 9.57795 13.9079 4 13.115V9Z"/>
</mask>
<path d="M162 13.5008L162.146 13.979L162.5 13.8708V13.5008H162ZM162 35.4992H162.5V35.1292L162.146 35.021L162 35.4992ZM4 35.885L3.92964 35.3899L3.5 35.451V35.885H4ZM4 13.115H3.5V13.549L3.92964 13.6101L4 13.115ZM10 2.5C9.41877 2.5 8.85463 2.57641 8.3174 2.72002L8.57564 3.6861C9.02939 3.56481 9.50674 3.5 10 3.5V2.5ZM6.74912 3.37019C5.76291 3.9408 4.9408 4.76291 4.37019 5.74912L5.23575 6.24992C5.71877 5.41511 6.41511 4.71877 7.24992 4.23575L6.74912 3.37019ZM3.72001 7.3174C3.57641 7.85463 3.5 8.41877 3.5 9H4.5C4.5 8.50674 4.56481 8.02939 4.6861 7.57564L3.72001 7.3174ZM3.5 9V10.3717H4.5V9H3.5ZM3.5 11.7434V13.115H4.5V11.7434H3.5ZM3.92964 13.6101C4.51293 13.693 5.08138 13.8216 5.63128 13.9922L5.92763 13.0372C5.32727 12.8509 4.70679 12.7105 4.07036 12.62L3.92964 13.6101ZM7.24978 14.6402C8.29961 15.1611 9.25467 15.8449 10.0818 16.6588L10.7832 15.946C9.88144 15.0587 8.83987 14.3128 7.69427 13.7444L7.24978 14.6402ZM11.225 17.9766C11.9105 18.9057 12.453 19.9461 12.8206 21.0656L13.7707 20.7537C13.3694 19.5315 12.7772 18.3961 12.0297 17.3829L11.225 17.9766ZM13.2304 22.7601C13.3204 23.3265 13.3672 23.9076 13.3672 24.5H14.3672C14.3672 23.8549 14.3162 23.2213 14.218 22.6032L13.2304 22.7601ZM13.3672 24.5C13.3672 25.0924 13.3204 25.6735 13.2304 26.2399L14.218 26.3968C14.3162 25.7787 14.3672 25.1451 14.3672 24.5H13.3672ZM12.8206 27.9344C12.453 29.0539 11.9105 30.0943 11.225 31.0234L12.0297 31.6171C12.7772 30.6039 13.3694 29.4685 13.7707 28.2463L12.8206 27.9344ZM10.0818 32.3412C9.25468 33.1551 8.29961 33.8389 7.24978 34.3598L7.69427 35.2556C8.83987 34.6872 9.88144 33.9413 10.7832 33.054L10.0818 32.3412ZM5.63128 35.0078C5.08138 35.1784 4.51293 35.307 3.92964 35.3899L4.07036 36.38C4.70679 36.2895 5.32727 36.1491 5.92763 35.9628L5.63128 35.0078ZM3.5 35.885V36.2566H4.5V35.885H3.5ZM3.5 36.6283V37H4.5V36.6283H3.5ZM3.5 37C3.5 37.5812 3.57641 38.1454 3.72001 38.6826L4.6861 38.4244C4.56481 37.9706 4.5 37.4933 4.5 37H3.5ZM4.37019 40.2509C4.9408 41.2371 5.76291 42.0592 6.74912 42.6298L7.24992 41.7643C6.41511 41.2812 5.71877 40.5849 5.23575 39.7501L4.37019 40.2509ZM8.3174 43.28C8.85462 43.4236 9.41877 43.5 10 43.5V42.5C9.50674 42.5 9.02938 42.4352 8.57564 42.3139L8.3174 43.28ZM10 43.5H12.0278V42.5H10V43.5ZM14.0556 43.5H18.1111V42.5H14.0556V43.5ZM20.1389 43.5H24.1944V42.5H20.1389V43.5ZM26.2222 43.5H30.2778V42.5H26.2222V43.5ZM32.3055 43.5H36.3611V42.5H32.3055V43.5ZM38.3889 43.5H42.4444V42.5H38.3889V43.5ZM44.4722 43.5H48.5278V42.5H44.4722V43.5ZM50.5556 43.5H54.6111V42.5H50.5556V43.5ZM56.6389 43.5H60.6944V42.5H56.6389V43.5ZM62.7222 43.5H66.7778V42.5H62.7222V43.5ZM68.8056 43.5H72.8611V42.5H68.8056V43.5ZM74.8889 43.5H78.9445V42.5H74.8889V43.5ZM80.9722 43.5H85.0278V42.5H80.9722V43.5ZM87.0556 43.5H91.1111V42.5H87.0556V43.5ZM93.1389 43.5H97.1945V42.5H93.1389V43.5ZM99.2222 43.5H103.278V42.5H99.2222V43.5ZM105.306 43.5H109.361V42.5H105.306V43.5ZM111.389 43.5H115.444V42.5H111.389V43.5ZM117.472 43.5H121.528V42.5H117.472V43.5ZM123.556 43.5H127.611V42.5H123.556V43.5ZM129.639 43.5H133.694V42.5H129.639V43.5ZM135.722 43.5H139.778V42.5H135.722V43.5ZM141.806 43.5H145.861V42.5H141.806V43.5ZM147.889 43.5H151.944V42.5H147.889V43.5ZM153.972 43.5H156V42.5H153.972V43.5ZM156 43.5C156.581 43.5 157.145 43.4236 157.683 43.28L157.424 42.3139C156.971 42.4352 156.493 42.5 156 42.5V43.5ZM159.251 42.6298C160.237 42.0592 161.059 41.2371 161.63 40.2509L160.764 39.7501C160.281 40.5849 159.585 41.2812 158.75 41.7642L159.251 42.6298ZM162.28 38.6826C162.424 38.1454 162.5 37.5812 162.5 37H161.5C161.5 37.4933 161.435 37.9706 161.314 38.4244L162.28 38.6826ZM162.5 37V36.4997H161.5V37H162.5ZM162.5 35.9995V35.4992H161.5V35.9995H162.5ZM162.146 35.021C161.394 34.7912 160.677 34.4829 160.003 34.1057L159.514 34.9783C160.25 35.3899 161.033 35.7264 161.854 35.9773L162.146 35.021ZM158.1 32.7582C156.935 31.7321 155.989 30.4637 155.341 29.0322L154.43 29.4447C155.138 31.0069 156.169 32.3901 157.44 33.5087L158.1 32.7582ZM154.612 26.8189C154.452 26.0718 154.367 25.296 154.367 24.5H153.367C153.367 25.367 153.459 26.213 153.634 27.0287L154.612 26.8189ZM154.367 24.5C154.367 23.704 154.452 22.9282 154.612 22.1811L153.634 21.9713C153.459 22.787 153.367 23.633 153.367 24.5H154.367ZM155.341 19.9678C155.989 18.5363 156.935 17.2679 158.1 16.2418L157.44 15.4913C156.169 16.6099 155.138 17.9931 154.43 19.5553L155.341 19.9678ZM160.003 14.8943C160.677 14.5171 161.394 14.2088 162.146 13.979L161.854 13.0227C161.033 13.2736 160.25 13.6101 159.514 14.0217L160.003 14.8943ZM162.5 13.5008V12.0005H161.5V13.5008H162.5ZM162.5 10.5003V9H161.5V10.5003H162.5ZM162.5 9C162.5 8.41877 162.424 7.85463 162.28 7.3174L161.314 7.57564C161.435 8.02939 161.5 8.50674 161.5 9H162.5ZM161.63 5.74912C161.059 4.76291 160.237 3.9408 159.251 3.37019L158.75 4.23575C159.585 4.71877 160.281 5.41511 160.764 6.24992L161.63 5.74912ZM157.683 2.72002C157.145 2.57641 156.581 2.5 156 2.5V3.5C156.493 3.5 156.971 3.56481 157.424 3.6861L157.683 2.72002ZM156 2.5H153.972V3.5H156V2.5ZM151.944 2.5H147.889V3.5H151.944V2.5ZM145.861 2.5H141.806V3.5H145.861V2.5ZM139.778 2.5H135.722V3.5H139.778V2.5ZM133.694 2.5H129.639V3.5H133.694V2.5ZM127.611 2.5H123.556V3.5H127.611V2.5ZM121.528 2.5H117.472V3.5H121.528V2.5ZM115.444 2.5H111.389V3.5H115.444V2.5ZM109.361 2.5H105.306V3.5H109.361V2.5ZM103.278 2.5H99.2222V3.5H103.278V2.5ZM97.1944 2.5H93.1389V3.5H97.1944V2.5ZM91.1111 2.5H87.0555V3.5H91.1111V2.5ZM85.0278 2.5H80.9722V3.5H85.0278V2.5ZM78.9444 2.5H74.8889V3.5H78.9444V2.5ZM72.8611 2.5H68.8055V3.5H72.8611V2.5ZM66.7778 2.5H62.7222V3.5H66.7778V2.5ZM60.6944 2.5H56.6389V3.5H60.6944V2.5ZM54.6111 2.5H50.5555V3.5H54.6111V2.5ZM48.5277 2.5H44.4722V3.5H48.5277V2.5ZM42.4444 2.5H38.3889V3.5H42.4444V2.5ZM36.3611 2.5H32.3055V3.5H36.3611V2.5ZM30.2777 2.5H26.2222V3.5H30.2777V2.5ZM24.1944 2.5H20.1389V3.5H24.1944V2.5ZM18.1111 2.5H14.0555V3.5H18.1111V2.5ZM12.0278 2.5H10V3.5H12.0278V2.5ZM162 13.5008L162.292 14.4571L163 14.2408V13.5008H162ZM162 35.4992H163V34.7592L162.292 34.5429L162 35.4992ZM4 35.885L3.85928 34.8949L3 35.0171V35.885H4ZM4 13.115H3V13.9829L3.85928 14.1051L4 13.115ZM10 2C9.37479 2 8.76725 2.08221 8.18828 2.23697L8.70476 4.16914C9.11677 4.05901 9.55072 4 10 4V2ZM6.49872 2.93741C5.43681 3.55182 4.55182 4.43681 3.93741 5.49871L5.66853 6.50033C6.10775 5.74121 6.74121 5.10775 7.50033 4.66853L6.49872 2.93741ZM3.23697 7.18828C3.08221 7.76725 3 8.37479 3 9H5C5 8.55072 5.05901 8.11677 5.16914 7.70476L3.23697 7.18828ZM3 9V10.3717H5V9H3ZM3 11.7434V13.115H5V11.7434H3ZM3.85928 14.1051C4.41601 14.1842 4.95844 14.307 5.48311 14.4698L6.0758 12.5596C5.45021 12.3655 4.80372 12.2192 4.14072 12.125L3.85928 14.1051ZM7.02754 15.0881C8.02948 15.5852 8.94129 16.238 9.73111 17.0152L11.1338 15.5896C10.1948 14.6656 9.11 13.8887 7.91651 13.2965L7.02754 15.0881ZM10.8227 18.2734C11.4771 19.1604 11.9948 20.1535 12.3455 21.2216L14.2457 20.5977C13.8276 19.3241 13.2106 18.1414 12.4321 17.0861L10.8227 18.2734ZM12.7366 22.8385C12.8225 23.3791 12.8672 23.934 12.8672 24.5H14.8672C14.8672 23.8285 14.8141 23.1687 14.7119 22.5247L12.7366 22.8385ZM12.8672 24.5C12.8672 25.066 12.8225 25.6209 12.7366 26.1615L14.7119 26.4753C14.8141 25.8313 14.8672 25.1715 14.8672 24.5H12.8672ZM12.3455 27.7784C11.9948 28.8465 11.4771 29.8396 10.8227 30.7266L12.4321 31.9139C13.2106 30.8586 13.8276 29.6759 14.2457 28.4023L12.3455 27.7784ZM9.73111 31.9848C8.94129 32.762 8.02948 33.4148 7.02754 33.9119L7.91651 35.7035C9.11 35.1113 10.1948 34.3344 11.1338 33.4104L9.73111 31.9848ZM5.48311 34.5302C4.95844 34.693 4.41601 34.8158 3.85928 34.8949L4.14072 36.875C4.80372 36.7808 5.45021 36.6345 6.0758 36.4404L5.48311 34.5302ZM3 35.885V36.2566H5V35.885H3ZM3 36.6283V37H5V36.6283H3ZM3 37C3 37.6252 3.08221 38.2328 3.23697 38.8117L5.16914 38.2952C5.05901 37.8832 5 37.4493 5 37H3ZM3.93741 40.5013C4.55182 41.5632 5.43681 42.4482 6.49871 43.0626L7.50032 41.3315C6.7412 40.8922 6.10775 40.2588 5.66853 39.4997L3.93741 40.5013ZM8.18828 43.763C8.76724 43.9178 9.37479 44 10 44V42C9.55072 42 9.11676 41.941 8.70476 41.8309L8.18828 43.763ZM10 44H12.0278V42H10V44ZM14.0556 44H18.1111V42H14.0556V44ZM20.1389 44H24.1944V42H20.1389V44ZM26.2222 44H30.2778V42H26.2222V44ZM32.3055 44H36.3611V42H32.3055V44ZM38.3889 44H42.4444V42H38.3889V44ZM44.4722 44H48.5278V42H44.4722V44ZM50.5556 44H54.6111V42H50.5556V44ZM56.6389 44H60.6944V42H56.6389V44ZM62.7222 44H66.7778V42H62.7222V44ZM68.8056 44H72.8611V42H68.8056V44ZM74.8889 44H78.9445V42H74.8889V44ZM80.9722 44H85.0278V42H80.9722V44ZM87.0556 44H91.1111V42H87.0556V44ZM93.1389 44H97.1945V42H93.1389V44ZM99.2222 44H103.278V42H99.2222V44ZM105.306 44H109.361V42H105.306V44ZM111.389 44H115.444V42H111.389V44ZM117.472 44H121.528V42H117.472V44ZM123.556 44H127.611V42H123.556V44ZM129.639 44H133.694V42H129.639V44ZM135.722 44H139.778V42H135.722V44ZM141.806 44H145.861V42H141.806V44ZM147.889 44H151.944V42H147.889V44ZM153.972 44H156V42H153.972V44ZM156 44C156.625 44 157.233 43.9178 157.812 43.763L157.295 41.8309C156.883 41.941 156.449 42 156 42V44ZM159.501 43.0626C160.563 42.4482 161.448 41.5632 162.063 40.5013L160.331 39.4997C159.892 40.2588 159.259 40.8922 158.5 41.3315L159.501 43.0626ZM162.763 38.8117C162.918 38.2328 163 37.6252 163 37H161C161 37.4493 160.941 37.8832 160.831 38.2952L162.763 38.8117ZM163 37V36.4997H161V37H163ZM163 35.9995V35.4992H161V35.9995H163ZM162.292 34.5429C161.575 34.3236 160.89 34.0294 160.247 33.6694L159.27 35.4146C160.036 35.8434 160.852 36.194 161.708 36.4555L162.292 34.5429ZM158.431 32.383C157.318 31.4031 156.415 30.1921 155.797 28.826L153.975 29.6509C154.712 31.2785 155.786 32.7191 157.109 33.8839L158.431 32.383ZM155.101 26.714C154.948 26.0011 154.867 25.2606 154.867 24.5H152.867C152.867 25.4024 152.963 26.2836 153.145 27.1336L155.101 26.714ZM154.867 24.5C154.867 23.7394 154.948 22.9989 155.101 22.286L153.145 21.8664C152.963 22.7164 152.867 23.5976 152.867 24.5H154.867ZM155.797 20.174C156.415 18.8079 157.318 17.5969 158.431 16.617L157.109 15.1161C155.786 16.2809 154.712 17.7215 153.975 19.3491L155.797 20.174ZM160.247 15.3306C160.89 14.9706 161.575 14.6764 162.292 14.4571L161.708 12.5445C160.852 12.806 160.036 13.1566 159.27 13.5854L160.247 15.3306ZM163 13.5008V12.0005H161V13.5008H163ZM163 10.5003V9H161V10.5003H163ZM163 9C163 8.37479 162.918 7.76725 162.763 7.18828L160.831 7.70476C160.941 8.11677 161 8.55073 161 9H163ZM162.063 5.49872C161.448 4.43681 160.563 3.55182 159.501 2.93741L158.5 4.66853C159.259 5.10775 159.892 5.74121 160.331 6.50033L162.063 5.49872ZM157.812 2.23698C157.233 2.08221 156.625 2 156 2V4C156.449 4 156.883 4.05901 157.295 4.16914L157.812 2.23698ZM156 2H153.972V4H156V2ZM151.944 2H147.889V4H151.944V2ZM145.861 2H141.806V4H145.861V2ZM139.778 2H135.722V4H139.778V2ZM133.694 2H129.639V4H133.694V2ZM127.611 2H123.556V4H127.611V2ZM121.528 2H117.472V4H121.528V2ZM115.444 2H111.389V4H115.444V2ZM109.361 2H105.306V4H109.361V2ZM103.278 2H99.2222V4H103.278V2ZM97.1944 2H93.1389V4H97.1944V2ZM91.1111 2H87.0555V4H91.1111V2ZM85.0278 2H80.9722V4H85.0278V2ZM78.9444 2H74.8889V4H78.9444V2ZM72.8611 2H68.8055V4H72.8611V2ZM66.7778 2H62.7222V4H66.7778V2ZM60.6944 2H56.6389V4H60.6944V2ZM54.6111 2H50.5555V4H54.6111V2ZM48.5277 2H44.4722V4H48.5277V2ZM42.4444 2H38.3889V4H42.4444V2ZM36.3611 2H32.3055V4H36.3611V2ZM30.2777 2H26.2222V4H30.2777V2ZM24.1944 2H20.1389V4H24.1944V2ZM18.1111 2H14.0555V4H18.1111V2ZM12.0278 2H10V4H12.0278V2Z" fill="#B9B400" mask="url(#path-2-inside-1)"/>
</svg>
