<svg width="20" height="22" viewBox="0 0 20 22" fill="none" xmlns="http://www.w3.org/2000/svg">
<path d="M11.2109 6.50098C10.2417 6.50098 9.45312 7.35852 9.45312 8.41257C9.45312 9.46663 10.2417 10.3242 11.2109 10.3242C12.1802 10.3242 12.9688 9.46663 12.9688 8.41257C12.9688 7.35852 12.1802 6.50098 11.2109 6.50098ZM11.2109 9.04977C10.8879 9.04977 10.625 8.76392 10.625 8.41257C10.625 8.06122 10.8879 7.77537 11.2109 7.77537C11.534 7.77537 11.7969 8.06122 11.7969 8.41257C11.7969 8.76392 11.534 9.04977 11.2109 9.04977Z" fill="#0083EB"/>
<path d="M15.8984 11.5984C14.9292 11.5984 14.1406 12.4559 14.1406 13.51C14.1406 14.564 14.9292 15.4216 15.8984 15.4216C16.8677 15.4216 17.6562 14.564 17.6562 13.51C17.6562 12.4559 16.8677 11.5984 15.8984 11.5984ZM15.8984 14.1472C15.5754 14.1472 15.3125 13.8613 15.3125 13.51C15.3125 13.1586 15.5754 12.8728 15.8984 12.8728C16.2215 12.8728 16.4844 13.1586 16.4844 13.51C16.4844 13.8613 16.2215 14.1472 15.8984 14.1472Z" fill="#0083EB"/>
<path d="M16.2235 6.60778C15.9543 6.41263 15.5905 6.49173 15.411 6.78454L10.7235 14.4309C10.544 14.7237 10.6167 15.1193 10.886 15.3146C11.1552 15.5097 11.519 15.4307 11.6985 15.1378L16.386 7.49141C16.5655 7.1986 16.4928 6.80298 16.2235 6.60778Z" fill="#0083EB"/>
<path d="M19.4141 3.95215H0.585938C0.262344 3.95215 0 4.23744 0 4.58935V8.41254C0 8.76444 0.262344 9.04974 0.585938 9.04974C1.5552 9.04974 2.34375 9.90728 2.34375 10.9613C2.34375 12.0154 1.5552 12.8729 0.585938 12.8729C0.262344 12.8729 0 13.1582 0 13.5101V17.3333C0 17.6852 0.262344 17.9705 0.585938 17.9705H19.4141C19.7377 17.9705 20 17.6852 20 17.3333V4.58935C20 4.23744 19.7377 3.95215 19.4141 3.95215ZM18.8281 16.6961H5.85938V16.0589C5.85938 15.707 5.59703 15.4217 5.27344 15.4217C4.94984 15.4217 4.6875 15.707 4.6875 16.0589V16.6961H1.17188V14.0834C2.50746 13.7873 3.51562 12.4999 3.51562 10.9613C3.51562 9.42275 2.50746 8.1354 1.17188 7.83936V5.22655H4.73633V5.86374C4.73633 6.21565 4.99867 6.50094 5.32227 6.50094C5.64586 6.50094 5.9082 6.21565 5.9082 5.86374V5.22655H18.8281V16.6961Z" fill="#0083EB"/>
<path d="M5.27344 11.5984C4.94984 11.5984 4.6875 11.8837 4.6875 12.2356V13.51C4.6875 13.8619 4.94984 14.1472 5.27344 14.1472C5.59703 14.1472 5.85938 13.8619 5.85938 13.51V12.2356C5.85938 11.8837 5.59703 11.5984 5.27344 11.5984Z" fill="#0083EB"/>
<path d="M5.27344 7.77539C4.94984 7.77539 4.6875 8.06069 4.6875 8.41259V9.68699C4.6875 10.0389 4.94984 10.3242 5.27344 10.3242C5.59703 10.3242 5.85938 10.0389 5.85938 9.68699V8.41259C5.85938 8.06069 5.59703 7.77539 5.27344 7.77539Z" fill="#0083EB"/>
</svg>
