<svg width="20" height="20" viewBox="0 0 20 20" fill="none" xmlns="http://www.w3.org/2000/svg">
<path d="M19.375 12.503C19.03 12.503 18.75 12.7799 18.75 13.1209V17.4462H1.25V10.0315H8.125C8.47 10.0315 8.75 9.75468 8.75 9.4136C8.75 9.07253 8.47 8.79571 8.125 8.79571H1.25V6.32416H8.125C8.47 6.32416 8.75 6.04734 8.75 5.70627C8.75 5.36519 8.47 5.08838 8.125 5.08838H1.25C0.56 5.08838 0 5.64201 0 6.32416V17.4462C0 18.1283 0.56 18.6819 1.25 18.6819H18.75C19.44 18.6819 20 18.1283 20 17.4462V13.1209C20 12.7799 19.72 12.503 19.375 12.503Z" fill="#0083EB"/>
<path d="M5.625 12.5032H3.125C2.78 12.5032 2.5 12.78 2.5 13.1211C2.5 13.4621 2.78 13.739 3.125 13.739H5.625C5.97 13.739 6.25 13.4621 6.25 13.1211C6.25 12.78 5.97 12.5032 5.625 12.5032Z" fill="#0083EB"/>
<path d="M19.6212 3.28414L15.2462 1.43047C15.0875 1.36497 14.9113 1.36497 14.7525 1.43047L10.3775 3.28414C10.1488 3.38176 10 3.60544 10 3.8526V6.32415C10 9.72378 11.2713 11.7109 14.6888 13.6573C14.785 13.7116 14.8925 13.7388 15 13.7388C15.1075 13.7388 15.215 13.7116 15.3112 13.6573C18.7287 11.7159 20 9.72872 20 6.32415V3.8526C20 3.60544 19.8512 3.38176 19.6212 3.28414ZM18.75 6.32415C18.75 9.17757 17.795 10.7482 15 12.4042C12.205 10.7445 11.25 9.17386 11.25 6.32415V4.2604L15 2.67119L18.75 4.2604V6.32415Z" fill="#0083EB"/>
<path d="M17.2658 5.22303C16.9971 5.01295 16.6046 5.05373 16.3871 5.31942L14.4221 7.74896L13.6446 6.59969C13.4508 6.31546 13.0621 6.24007 12.7783 6.42791C12.4921 6.61699 12.4133 7.00131 12.6046 7.28431L13.8546 9.13797C13.9658 9.30233 14.1483 9.40367 14.3483 9.41355C14.3571 9.41355 14.3671 9.41355 14.3746 9.41355C14.5633 9.41355 14.7433 9.32952 14.8633 9.18122L17.3633 6.09178C17.5783 5.82485 17.5358 5.43682 17.2658 5.22303Z" fill="#0083EB"/>
</svg>
