<svg width="22" height="22" viewBox="0 0 22 22" fill="none" xmlns="http://www.w3.org/2000/svg">
<path d="M20.9269 9.14526L18.1636 7.1567L17.8231 3.7687C17.7928 3.46686 17.5277 3.24314 17.2242 3.26666L13.8292 3.51978L11.3909 1.14314C11.1737 0.931455 10.8265 0.931455 10.6092 1.14314L8.17093 3.51978L4.77565 3.26666C4.47157 3.24314 4.20697 3.46686 4.17673 3.7687L3.83625 7.1567L1.07293 9.14526C0.826534 9.3225 0.766334 9.66438 0.937414 9.91526L2.85401 12.729L2.01513 16.0282C1.94037 16.3231 2.11369 16.6232 2.40601 16.7053L5.68341 17.629L7.16181 20.6953C7.29369 20.9694 7.61933 21.0878 7.89653 20.9627L11.0001 19.5638L14.1039 20.9627C14.1786 20.9965 14.2567 21.0125 14.3337 21.0125C14.5423 21.0125 14.742 20.8955 14.8386 20.6953L16.317 17.629L19.5938 16.7053C19.8861 16.6232 20.0594 16.3231 19.9847 16.0282L19.1461 12.729L21.0627 9.91526C21.2335 9.6641 21.1733 9.3225 20.9269 9.14526ZM18.0782 12.3073C17.9877 12.4397 17.9586 12.6047 17.9981 12.7606L18.7647 15.7757L15.7701 16.6196C15.6156 16.6633 15.4873 16.7711 15.4176 16.9155L14.0666 19.7178L11.2302 18.4399C11.1571 18.4065 11.0785 18.39 11.0001 18.39C10.9217 18.39 10.843 18.4065 10.7699 18.4399L7.93377 19.7178L6.58277 16.9155C6.51305 16.7711 6.38453 16.6635 6.23025 16.6196L3.23537 15.7757L4.00201 12.7606C4.04149 12.6047 4.01237 12.4397 3.92193 12.3073L2.17025 9.73578L4.69557 7.91802C4.82577 7.8245 4.90949 7.67946 4.92545 7.51986L5.23653 4.4239L8.33949 4.65574C8.49937 4.66778 8.65701 4.61038 8.77209 4.49838L11.0001 2.32669L13.2283 4.49838C13.3431 4.61038 13.5002 4.66778 13.6609 4.65574L16.7636 4.4239L17.0746 7.51986C17.0906 7.67946 17.1743 7.8245 17.3045 7.91802L19.8299 9.73578L18.0782 12.3073Z" fill="#0083EB"/>
<path d="M14.0821 7.91792C13.8634 7.69924 13.5086 7.69924 13.2902 7.91792L7.91816 13.2906C7.69948 13.5092 7.69948 13.8637 7.91816 14.0824C8.02764 14.1919 8.17072 14.2465 8.31408 14.2465C8.45744 14.2465 8.6008 14.1919 8.71 14.0824L14.0821 8.70976C14.301 8.49108 14.301 8.1366 14.0821 7.91792Z" fill="#0083EB"/>
<path d="M10.3183 10.3165C11.0499 9.58484 11.0499 8.39484 10.3183 7.66292C9.96378 7.30788 9.49254 7.11328 8.99134 7.11328C8.49014 7.11328 8.01918 7.30788 7.6647 7.66236C6.93306 8.394 6.93306 9.58456 7.6647 10.3168C8.01918 10.6707 8.49042 10.8658 8.99162 10.8658C9.49282 10.8658 9.96406 10.671 10.3183 10.3165ZM8.45682 9.52464C8.1617 9.2298 8.1617 8.7496 8.45682 8.45504C8.59962 8.31168 8.78946 8.23356 8.99162 8.23356C9.19378 8.23356 9.38362 8.31168 9.5267 8.45504C9.82154 8.74988 9.82154 9.23008 9.5267 9.52464C9.24082 9.81024 8.74214 9.81024 8.45682 9.52464Z" fill="#0083EB"/>
<path d="M13.0084 11.1309C12.5072 11.1309 12.0359 11.326 11.6817 11.6805C11.3272 12.035 11.1321 12.5062 11.1321 13.0071C11.1321 13.5086 11.3272 13.9801 11.6817 14.3343C12.0362 14.6885 12.5074 14.884 13.0086 14.884C13.5098 14.884 13.9814 14.6888 14.3356 14.3343C15.0672 13.6027 15.0669 12.4121 14.3353 11.6802C13.9808 11.326 13.5098 11.1309 13.0084 11.1309ZM13.5434 13.5425C13.2578 13.8284 12.7594 13.8284 12.4736 13.5419C12.3305 13.3991 12.2518 13.2093 12.2518 13.0071C12.2518 12.8053 12.3305 12.6157 12.4736 12.4723C12.6164 12.3295 12.8062 12.2509 13.0081 12.2509C13.2102 12.2509 13.4001 12.3295 13.5432 12.4723C13.8386 12.7675 13.8386 13.2471 13.5434 13.5425Z" fill="#0083EB"/>
</svg>
