<svg width="24" height="20" viewBox="0 0 24 20" fill="none" xmlns="http://www.w3.org/2000/svg">
<path d="M21.0701 0.867798H2.93482C1.31595 0.867798 0 2.18375 0 3.80262V16.1974C0 17.8163 1.31595 19.1322 2.93482 19.1322H21.0652C22.684 19.1322 24 17.8163 24 16.1974V3.80759C24.005 2.18872 22.689 0.867798 21.0701 0.867798ZM22.6642 16.1974C22.6642 17.0764 21.9491 17.7915 21.0701 17.7915H2.93482C2.05587 17.7915 1.34078 17.0764 1.34078 16.1974V3.80759C1.34078 2.92863 2.05587 2.21355 2.93482 2.21355H21.0652C21.9441 2.21355 22.6592 2.92863 22.6592 3.80759V16.1974H22.6642Z" fill="white"/>
<path d="M15.1359 9.84608L21.0056 4.58227C21.2787 4.33397 21.3035 3.91188 21.0552 3.63379C20.8069 3.36067 20.3848 3.33584 20.1067 3.58413L12.0124 10.8492L10.4332 9.43888C10.4283 9.43391 10.4233 9.42895 10.4233 9.42398C10.3885 9.38922 10.3538 9.35942 10.3141 9.32963L3.88824 3.57916C3.61015 3.33087 3.18805 3.3557 2.93976 3.63379C2.69147 3.91188 2.71629 4.33397 2.99438 4.58227L8.93355 9.89077L3.01921 15.4277C2.75106 15.681 2.73616 16.1031 2.98942 16.3762C3.1235 16.5152 3.30227 16.5897 3.48104 16.5897C3.64491 16.5897 3.80878 16.5301 3.9379 16.4109L9.94162 10.7946L11.5704 12.2496C11.6995 12.3638 11.8584 12.4184 12.0174 12.4184C12.1763 12.4184 12.3401 12.3588 12.4643 12.2446L14.1378 10.7449L20.1067 16.4159C20.2358 16.5401 20.4047 16.5996 20.5686 16.5996C20.7473 16.5996 20.9211 16.5301 21.0552 16.3911C21.3085 16.1229 21.2985 15.6959 21.0304 15.4426L15.1359 9.84608Z" fill="white"/>
</svg>
