<svg xmlns="http://www.w3.org/2000/svg" xmlns:xlink="http://www.w3.org/1999/xlink" version="1.1" width="256" height="256" viewBox="0 0 256 256" xml:space="preserve">

<defs>
</defs>
<g style="stroke: none; stroke-width: 0; stroke-dasharray: none; stroke-linecap: butt; stroke-linejoin: miter; stroke-miterlimit: 10; fill: none; fill-rule: nonzero; opacity: 1;" transform="translate(1.4065934065934016 1.4065934065934016) scale(2.81 2.81)" >
	<rect x="0" y="29.17" rx="0" ry="0" width="20.73" height="31.58" style="stroke: none; stroke-width: 1; stroke-dasharray: none; stroke-linecap: butt; stroke-linejoin: miter; stroke-miterlimit: 10; fill: rgb(65,120,187); fill-rule: evenodd; opacity: 1;" transform=" matrix(1 0 0 1 0 0) "/>
	<path d="M 20.725 60.753 H 0 v 15.494 c 0.363 3.238 3.129 5.776 6.46 5.776 h 14.266 V 60.753 z" style="stroke: none; stroke-width: 1; stroke-dasharray: none; stroke-linecap: butt; stroke-linejoin: miter; stroke-miterlimit: 10; fill: rgb(40,99,174); fill-rule: evenodd; opacity: 1;" transform=" matrix(1 0 0 1 0 0) " stroke-linecap="round" />
	<path d="M 20.725 60.753 v 21.271 h 44.243 c 3.575 0 6.5 -2.925 6.5 -6.5 V 62.303 L 50.811 44.951 v 15.802 H 20.725 z" style="stroke: none; stroke-width: 1; stroke-dasharray: none; stroke-linecap: butt; stroke-linejoin: miter; stroke-miterlimit: 10; fill: rgb(0,169,76); fill-rule: evenodd; opacity: 1;" transform=" matrix(1 0 0 1 0 0) " stroke-linecap="round" />
	<polygon points="50.81,44.95 71.47,62.3 71.47,28.15 " style="stroke: none; stroke-width: 1; stroke-dasharray: none; stroke-linecap: butt; stroke-linejoin: miter; stroke-miterlimit: 10; fill: rgb(0,128,65); fill-rule: evenodd; opacity: 1;" transform="  matrix(1 0 0 1 0 0) "/>
	<path d="M 71.469 28.146 v 34.157 L 84.502 73.25 C 86.37 74.819 90 74.412 90 71.429 V 19.29 c 0 -2.523 -2.853 -3.902 -4.883 -2.246 L 71.469 28.146 z" style="stroke: none; stroke-width: 1; stroke-dasharray: none; stroke-linecap: butt; stroke-linejoin: miter; stroke-miterlimit: 10; fill: rgb(0,169,76); fill-rule: evenodd; opacity: 1;" transform=" matrix(1 0 0 1 0 0) " stroke-linecap="round" />
	<path d="M 50.811 44.951 l 20.658 -16.805 V 14.468 c 0 -3.47 -2.755 -6.327 -6.185 -6.493 H 20.725 v 21.195 h 30.085 V 44.951 z" style="stroke: none; stroke-width: 1; stroke-dasharray: none; stroke-linecap: butt; stroke-linejoin: miter; stroke-miterlimit: 10; fill: rgb(252,183,19); fill-rule: evenodd; opacity: 1;" transform=" matrix(1 0 0 1 0 0) " stroke-linecap="round" />
	<polygon points="20.73,29.17 20.73,7.98 20.67,7.98 0,29.13 0,29.17 " style="stroke: none; stroke-width: 1; stroke-dasharray: none; stroke-linecap: butt; stroke-linejoin: miter; stroke-miterlimit: 10; fill: rgb(232,53,37); fill-rule: evenodd; opacity: 1;" transform="  matrix(1 0 0 1 0 0) "/>
</g>
</svg>