<svg width="22" height="23" viewBox="0 0 22 23" fill="none" xmlns="http://www.w3.org/2000/svg">
<path d="M11 20.9435C10.6868 20.9435 10.3848 20.8314 10.1495 20.6276C9.26076 19.8593 8.4039 19.1373 7.64792 18.5004L7.64406 18.4971C5.42765 16.6298 3.5137 15.0172 2.182 13.4287C0.693373 11.6529 0 9.96911 0 8.12969C0 6.34255 0.619857 4.6938 1.74527 3.48694C2.8841 2.26581 4.44675 1.59326 6.14586 1.59326C7.41579 1.59326 8.5788 1.99018 9.60249 2.77291C10.1191 3.16801 10.5874 3.65155 11 4.21557C11.4127 3.65155 11.8808 3.16801 12.3976 2.77291C13.4213 1.99018 14.5843 1.59326 15.8543 1.59326C17.5532 1.59326 19.116 2.26581 20.2549 3.48694C21.3803 4.6938 22 6.34255 22 8.12969C22 9.96911 21.3068 11.6529 19.8181 13.4286C18.4864 15.0172 16.5726 16.6297 14.3566 18.4968C13.5992 19.1346 12.7411 19.8578 11.8503 20.6279C11.6151 20.8314 11.313 20.9435 11 20.9435ZM6.14586 2.86733C4.81098 2.86733 3.5847 3.39401 2.69259 4.35047C1.78723 5.32137 1.28856 6.66347 1.28856 8.12969C1.28856 9.67672 1.87014 11.0603 3.17414 12.6158C4.4345 14.1194 6.30918 15.6988 8.47977 17.5275L8.4838 17.5309C9.24263 18.1702 10.1028 18.895 10.9981 19.669C11.8988 18.8935 12.7604 18.1676 13.5207 17.5272C15.6911 15.6984 17.5656 14.1194 18.826 12.6158C20.1298 11.0603 20.7114 9.67672 20.7114 8.12969C20.7114 6.66347 20.2127 5.32137 19.3074 4.35047C18.4154 3.39401 17.189 2.86733 15.8543 2.86733C14.8764 2.86733 13.9786 3.17464 13.1858 3.78065C12.4794 4.32094 11.9873 5.00393 11.6987 5.48183C11.5503 5.72759 11.2892 5.87427 11 5.87427C10.7108 5.87427 10.4496 5.72759 10.3012 5.48183C10.0129 5.00393 9.52075 4.32094 8.81412 3.78065C8.02138 3.17464 7.12357 2.86733 6.14586 2.86733Z" fill="#0083EB"/>
</svg>
