<svg width="21" height="21" viewBox="0 0 21 21" fill="none" xmlns="http://www.w3.org/2000/svg">
<path d="M20.9049 9.56795C20.0433 8.07896 18.8456 6.76533 17.4415 5.76894C17.1241 5.54379 16.6841 5.6184 16.4588 5.93584C16.2336 6.25327 16.3083 6.69325 16.6257 6.9185C17.7538 7.71895 18.731 8.75133 19.4712 9.92109C17.5343 12.9853 14.1342 14.8723 10.4997 14.8723C10.1105 14.8723 9.79492 15.1878 9.79492 15.5771C9.79492 15.9663 10.1105 16.2819 10.4997 16.2819C14.7733 16.2819 18.7603 13.9797 20.9049 10.274C21.0313 10.0556 21.0313 9.78634 20.9049 9.56795Z" fill="#555555"/>
<path d="M10.4999 14.1046C12.8068 14.1046 14.6837 12.2278 14.6837 9.92087C14.6837 9.61565 14.6505 9.3108 14.5851 9.01479C14.5012 8.63468 14.1251 8.39439 13.7449 8.47859C13.3648 8.56251 13.1248 8.93868 13.2087 9.31879C13.252 9.5151 13.274 9.7177 13.274 9.92087C13.274 11.4505 12.0295 12.695 10.4998 12.695C9.99023 12.695 9.51275 12.5563 9.10191 12.3156L19.2992 2.11838C19.5744 1.84314 19.5744 1.39687 19.2992 1.12172C19.0239 0.846472 18.5777 0.846472 18.3025 1.12172L8.10534 11.3189C7.86458 10.908 7.72588 10.4306 7.72588 9.92097C7.72588 8.39129 8.97035 7.14682 10.5 7.14682C10.7191 7.14682 10.9368 7.17229 11.1473 7.22256C11.5256 7.31259 11.9061 7.07935 11.9965 6.70074C12.0869 6.32212 11.8533 5.94191 11.4747 5.85151C11.1571 5.77568 10.8291 5.73724 10.5 5.73724C8.19311 5.73724 6.3163 7.61405 6.3163 9.92097C6.3163 10.8205 6.60254 11.6538 7.08753 12.3368L5.70013 13.7242C3.98711 12.8526 2.5531 11.5454 1.52834 9.92115C3.46529 6.85654 6.86528 4.96958 10.5 4.96958C11.2531 4.96958 12.0048 5.0489 12.7343 5.20536C13.115 5.28712 13.4896 5.04467 13.5712 4.66408C13.6529 4.2835 13.4105 3.90874 13.0299 3.82717C12.2035 3.64984 11.3523 3.56001 10.5 3.56001C6.22646 3.56001 2.23942 5.86213 0.0947942 9.56801C-0.0315981 9.7864 -0.0315981 10.0556 0.0947942 10.274C1.18985 12.1664 2.76068 13.7085 4.65854 14.7658L0.542476 18.8818C0.267233 19.157 0.267233 19.6033 0.542476 19.8784C0.680051 20.016 0.860477 20.0849 1.04081 20.0849C1.22114 20.0849 1.40157 20.0161 1.53914 19.8784L8.0841 13.3335C8.76718 13.8184 9.60052 14.1046 10.4999 14.1046Z" fill="#555555"/>
</svg>
