<svg width="68" height="68" viewBox="0 0 68 68" fill="none" xmlns="http://www.w3.org/2000/svg">
<path d="M34 68C52.7777 68 68 52.7777 68 34C68 15.2223 52.7777 0 34 0C15.2223 0 0 15.2223 0 34C0 52.7777 15.2223 68 34 68Z" fill="#C17E62"/>
<path d="M38.0357 14.802H29.0874C23.9284 14.802 19.3756 17.4001 16.6684 21.3595C15.0181 23.7727 14.0522 26.6918 14.0522 29.8357V38.1643C14.0522 46.4672 20.7832 53.198 29.0873 53.198H38.0355V14.802H38.0357Z" fill="#F39E22"/>
<path d="M14.0515 31.9547H29.904V36.0453H14.0515V31.9547Z" fill="#EA792E"/>
<path d="M14.0515 31.9547H29.904V33.5604H14.0515V31.9547Z" fill="#DD5E26"/>
<path d="M29.9039 38.614V42.7033H14.75C14.495 41.9025 14.3077 41.0724 14.1921 40.2184C14.1191 39.6925 14.0739 39.1572 14.0593 38.614H29.9039Z" fill="#EA792E"/>
<path d="M29.9039 38.614V40.2184H14.1921C14.1191 39.6924 14.0739 39.1572 14.0593 38.614H29.9039Z" fill="#DD5E26"/>
<path d="M33.7569 45.2719V49.3625H19.0559C18.2258 48.6201 17.4794 47.786 16.8326 46.8762C16.4674 46.3649 16.134 45.8283 15.8352 45.2719H33.7569Z" fill="#EA792E"/>
<path d="M33.7569 45.2719V46.8762H16.8326C16.4674 46.3649 16.134 45.8283 15.8352 45.2719H33.7569Z" fill="#DD5E26"/>
<path d="M36.3255 51.931V53.1981H29.0872C26.9343 53.1981 24.889 52.7465 23.0376 51.931H36.3255Z" fill="#EA792E"/>
<path d="M36.3255 51.931V53.1981H29.0872C26.9343 53.1981 24.889 52.7465 23.0376 51.931H36.3255Z" fill="#DD5E26"/>
<path d="M29.904 25.2969V29.3862H14.0581C14.0833 28.5375 14.1776 27.7087 14.3383 26.9012C14.3729 26.7259 14.4101 26.552 14.4526 26.378L14.7501 25.2969H29.904Z" fill="#EA792E"/>
<path d="M29.904 25.2969V26.9012H14.3384C14.3729 26.7259 14.4101 26.552 14.4526 26.378L14.7501 25.2969H29.904Z" fill="#DD5E26"/>
<path d="M33.9015 18.6377V22.7283H15.8337C16.0874 22.2555 16.3663 21.7986 16.6678 21.359C16.9321 20.9739 17.2137 20.6007 17.5112 20.2421C17.9853 19.6696 18.5019 19.1331 19.0558 18.6377H33.9015Z" fill="#EA792E"/>
<path d="M33.9016 18.6377V20.2421H17.5112C17.9854 19.6696 18.502 19.1331 19.0558 18.6377H33.9016Z" fill="#DD5E26"/>
<path d="M36.9935 15.4183V16.069H23.0376C24.8877 15.2536 26.9343 14.802 29.0872 14.802H32.7223C34.2058 14.802 35.6402 15.0172 36.9935 15.4183Z" fill="#EA792E"/>
<path d="M53.9544 29.8357V38.1643C53.9544 39.4305 53.7976 40.6597 53.5023 41.8347C51.8648 48.3627 45.9572 53.198 38.9193 53.198H35.2836C26.9795 53.198 20.2485 46.467 20.2485 38.1643V29.8357C20.2485 26.6918 21.2143 23.7727 22.8647 21.3595C25.5719 17.4001 30.1247 14.802 35.2837 14.802H38.9194C47.2234 14.802 53.9544 21.5329 53.9544 29.8357Z" fill="#F9C744"/>
<path d="M53.9544 29.8357V38.1642C53.9544 39.4305 53.7977 40.6597 53.5024 41.8347C51.2831 42.5923 48.9278 42.9995 46.4876 42.9995C34.8264 42.9995 25.0992 33.7065 22.8645 21.3595C25.5718 17.4001 30.1246 14.802 35.2835 14.802H38.9193C47.2235 14.802 53.9544 21.5329 53.9544 29.8357Z" fill="#FAD98F"/>
<path d="M43.1513 22.0934C42.2479 22.6637 41.9779 23.8583 42.5482 24.7617L45.9418 30.1377C46.5121 31.0411 47.7068 31.3111 48.6102 30.7408C49.5136 30.1705 49.7836 28.9758 49.2133 28.0724L45.8196 22.6965C45.2493 21.7931 44.0547 21.5231 43.1513 22.0934Z" fill="#FAEFDC"/>
<path d="M38.7603 16.4817H35.4427C30.7351 16.4817 26.5806 18.8525 24.1103 22.4654C22.6044 24.6675 21.7231 27.3313 21.7231 30.2V37.8C21.7231 45.3764 27.8652 51.5184 35.4427 51.5184H38.7603C45.1823 51.5184 50.5732 47.1061 52.0675 41.1494C52.3371 40.077 52.48 38.9556 52.48 37.8001V30.2002C52.4799 22.6237 46.3378 16.4817 38.7603 16.4817ZM51.9045 37.6578C51.9045 38.7701 51.7669 39.8497 51.5074 40.8819C50.0691 46.6158 44.8799 50.863 38.6982 50.863H35.5047C28.2106 50.863 22.2984 44.9508 22.2984 37.6578V30.3423C22.2984 27.5807 23.1466 25.0166 24.5963 22.8971C26.9743 19.4192 30.9733 17.1371 35.5047 17.1371H38.6983C45.9924 17.1371 51.9047 23.0493 51.9047 30.3423V37.6578H51.9045Z" fill="#DD5E26"/>
<path d="M47.0289 27.1404C47.0289 26.3236 46.5296 25.5878 45.7685 25.2877C45.0075 24.9875 44.1403 25.1827 43.5825 25.7804L42.2543 27.2002L37.1132 32.6946L37.1012 32.7079L30.6213 25.7804C30.0635 25.1827 29.1962 24.9875 28.4352 25.2877C27.8269 25.5281 27.3846 26.046 27.2332 26.6623C27.1947 26.8163 27.1748 26.977 27.1748 27.1404V40.1268H24.6872C24.4549 40.1268 24.2325 40.168 24.0251 40.2413C24.377 41.646 24.9767 42.9523 25.7752 44.1112H29.1669C29.378 44.1112 29.5812 44.078 29.7725 44.0169C30.576 43.7606 31.159 43.0075 31.159 42.119V32.1873L35.6468 36.9845C35.8354 37.1863 36.0611 37.3444 36.3082 37.452C36.5565 37.5595 36.8261 37.6166 37.1011 37.6166C37.6522 37.6166 38.1795 37.3882 38.5567 36.9845L41.7163 33.607L43.0444 32.1873V42.119C43.0444 43.2187 43.9369 44.1112 45.0366 44.1112H48.4255C49.2234 42.9532 49.8248 41.6495 50.1767 40.2462C50.1771 40.2445 50.1775 40.2426 50.1779 40.2409C49.9709 40.1677 49.7485 40.1267 49.5164 40.1267H47.0289V27.1404Z" fill="#DD5E26"/>
<path d="M38.6982 17.1371H35.5047C30.9733 17.1371 26.9743 19.4192 24.5963 22.897C23.1467 25.0166 22.2983 27.5808 22.2983 30.3422V37.6578C22.2983 39.9329 22.8738 42.0736 23.8869 43.9422C23.8869 43.9422 23.8869 43.9424 23.887 43.9424C26.1217 48.0641 30.4861 50.863 35.5047 50.863H38.6983C44.8801 50.863 50.0692 46.6158 51.5075 40.8818C51.7669 39.8496 51.9046 38.7701 51.9046 37.6578V30.3422C51.9045 23.0492 45.9924 17.1371 38.6982 17.1371ZM38.5507 49.3053H35.6521C31.5536 49.3053 27.9366 47.2483 25.7751 44.111H29.1667C29.3779 44.111 29.5811 44.0778 29.7724 44.0167C29.8109 43.864 29.8308 43.7033 29.8308 43.5386V30.7675L31.1589 32.1871L35.6467 36.9843C35.8353 37.1862 36.061 37.3442 36.3081 37.4518C36.5564 37.5594 36.826 37.6165 37.101 37.6165C37.6521 37.6165 38.1794 37.3881 38.5566 36.9843L41.7162 33.6069L43.0443 32.1871V42.1189C43.0443 43.2185 43.9368 44.111 45.0365 44.111H48.4253C46.2641 47.2475 42.6487 49.3053 38.5507 49.3053ZM50.5371 37.3199C50.5371 38.3294 50.4121 39.3093 50.1766 40.2461C50.0652 40.6902 49.9272 41.1236 49.7678 41.5464H45.7007V28.5614C45.7007 27.7432 45.2013 27.0074 44.4403 26.7073C43.6793 26.4071 42.812 26.6024 42.2542 27.2L37.113 32.6945L37.1011 32.7078L35.773 34.1275L29.293 27.2C28.7658 26.6356 27.9623 26.4297 27.2331 26.6621C27.1946 26.8162 27.1747 26.9769 27.1747 27.1403V41.5464H24.4332C23.9376 40.232 23.6658 38.8077 23.6658 37.3199V30.6801C23.6658 28.1737 24.4357 25.8464 25.7513 23.9226C27.9097 20.7661 31.5393 18.6947 35.6521 18.6947H38.5506C45.1709 18.6947 50.5369 24.0607 50.5369 30.6801V37.3199H50.5371Z" fill="#EA792E"/>
<path d="M32.6274 62.5107C32.6165 62.5107 32.6057 62.5104 32.5947 62.5099C31.6924 62.4662 30.783 62.3789 29.892 62.2504C29.529 62.198 29.2772 61.8614 29.3295 61.4984C29.3818 61.1354 29.7185 60.8832 30.0815 60.9359C30.9311 61.0584 31.7984 61.1416 32.6588 61.1833C33.0251 61.2011 33.3078 61.5125 33.29 61.8788C33.273 62.234 32.9793 62.5107 32.6274 62.5107ZM37.9197 62.2705C37.5939 62.2705 37.3097 62.0307 37.2629 61.6989C37.2118 61.3358 37.4648 60.9999 37.8279 60.9488C38.6804 60.8289 39.5363 60.6664 40.3713 60.466C40.7284 60.3806 41.0863 60.6003 41.172 60.9569C41.2575 61.3136 41.0377 61.672 40.6811 61.7576C39.805 61.9677 38.9073 62.1381 38.0129 62.2639C37.9817 62.2684 37.9505 62.2705 37.9197 62.2705ZM24.8386 61.0041C24.7662 61.0041 24.6926 60.9921 24.6204 60.967C23.7685 60.6707 22.9209 60.3295 22.1008 59.953C21.7676 59.7998 21.6215 59.4057 21.7745 59.0723C21.9276 58.7391 22.3218 58.5931 22.6551 58.746C23.4367 59.105 24.2448 59.4301 25.0567 59.7126C25.403 59.833 25.5862 60.2116 25.4657 60.5579C25.3704 60.8322 25.1134 61.0041 24.8386 61.0041ZM45.5381 60.0524C45.2859 60.0524 45.0447 59.9079 44.9332 59.6633C44.7813 59.3296 44.9287 58.9358 45.2625 58.7838C46.0445 58.4279 46.8193 58.0294 47.5655 57.5997C47.8833 57.4165 48.2893 57.526 48.4723 57.8436C48.6553 58.1615 48.5461 58.5675 48.2283 58.7505C47.4457 59.2013 46.633 59.6192 45.8127 59.9925C45.7236 60.0332 45.63 60.0524 45.5381 60.0524ZM17.7943 57.3534C17.6606 57.3534 17.5257 57.3132 17.4085 57.2294C16.6753 56.7048 15.9582 56.1385 15.2773 55.5463C15.0006 55.3056 14.9713 54.886 15.2119 54.6094C15.4527 54.3326 15.8721 54.3035 16.1488 54.544C16.7982 55.1089 17.4821 55.6489 18.1814 56.1492C18.4796 56.3627 18.5484 56.7774 18.335 57.0757C18.2054 57.2569 18.0014 57.3534 17.7943 57.3534ZM52.2177 55.7696C52.0314 55.7696 51.8463 55.6918 51.7149 55.5397C51.4752 55.2623 51.5057 54.8429 51.7833 54.6032C52.4342 54.0408 53.066 53.4406 53.661 52.8191C53.9146 52.5541 54.3349 52.5451 54.5999 52.7988C54.8648 53.0524 54.8739 53.4728 54.6202 53.7376C53.9964 54.3892 53.3339 55.0186 52.6514 55.6081C52.5261 55.7165 52.3715 55.7696 52.2177 55.7696ZM12.0608 51.8689C11.864 51.8689 11.6692 51.7818 11.5381 51.615C10.9807 50.9051 10.451 50.1606 9.96384 49.4019C9.76569 49.0933 9.8552 48.6825 10.1639 48.4843C10.4725 48.2862 10.8833 48.3758 11.0815 48.6844C11.546 49.4078 12.051 50.1178 12.5826 50.7949C12.8091 51.0834 12.7589 51.5008 12.4704 51.7274C12.3489 51.8226 12.2043 51.8689 12.0608 51.8689ZM57.4268 49.785C57.3033 49.785 57.1783 49.7506 57.0669 49.6785C56.7589 49.4792 56.6707 49.0682 56.8699 48.7602C57.3373 48.0377 57.775 47.2844 58.1712 46.5214C58.3401 46.1957 58.7411 46.069 59.0665 46.238C59.392 46.4069 59.5188 46.8079 59.3499 47.1332C58.9345 47.9336 58.4752 48.7237 57.9851 49.4814C57.8579 49.6779 57.6446 49.785 57.4268 49.785ZM8.09716 44.9955C7.83353 44.9955 7.58398 44.8373 7.48025 44.5775C7.14569 43.7396 6.84793 42.8757 6.59519 42.0096C6.49252 41.6575 6.69453 41.2888 7.04662 41.186C7.39897 41.0836 7.76739 41.2854 7.87019 41.6375C8.11111 42.463 8.39493 43.2865 8.71368 44.0851C8.84968 44.4257 8.6838 44.8121 8.34313 44.9481C8.26252 44.9801 8.17911 44.9955 8.09716 44.9955ZM60.7415 42.5769C60.6792 42.5769 60.6159 42.5681 60.5532 42.5495C60.2015 42.4455 60.0006 42.0763 60.1045 41.7245C60.348 40.9004 60.5544 40.0541 60.7181 39.2094C60.7879 38.8495 61.1354 38.6144 61.4964 38.6838C61.8565 38.7536 62.0917 39.1021 62.022 39.4621C61.8502 40.3483 61.6336 41.236 61.3781 42.1007C61.2928 42.3896 61.0283 42.5769 60.7415 42.5769ZM6.24071 37.2824C5.90177 37.2824 5.61237 37.0241 5.58023 36.6798C5.49776 35.795 5.45605 34.8934 5.45605 33.9998V33.969C5.45605 33.6023 5.75342 33.3049 6.12012 33.3049C6.48681 33.3049 6.78418 33.6023 6.78418 33.969V34C6.78418 34.8525 6.82402 35.7127 6.90265 36.5567C6.93665 36.922 6.66823 37.2455 6.303 37.2795C6.28215 37.2815 6.2613 37.2824 6.24071 37.2824ZM61.8801 34.7258C61.8795 34.7258 61.8787 34.7258 61.878 34.7258C61.5112 34.7246 61.2149 34.4264 61.2161 34.0596V34C61.2161 33.1373 61.1753 32.267 61.0948 31.413C61.0604 31.0478 61.3285 30.724 61.6936 30.6896C62.0595 30.6552 62.3827 30.9232 62.4171 31.2885C62.5014 32.1836 62.5442 33.0959 62.5442 34V34.0637C62.543 34.4299 62.2459 34.7258 61.8801 34.7258ZM6.62507 29.3586C6.5835 29.3586 6.54113 29.3546 6.49877 29.3465C6.13871 29.2771 5.90297 28.9289 5.9723 28.5689C6.14296 27.6829 6.35865 26.7949 6.61312 25.9296C6.71671 25.5778 7.08606 25.3763 7.43762 25.4799C7.78944 25.5835 7.99078 25.9526 7.88719 26.3044C7.64454 27.129 7.43895 27.9754 7.27625 28.82C7.21529 29.1377 6.93705 29.3586 6.62507 29.3586ZM60.7585 26.8111C60.4712 26.8111 60.2064 26.6231 60.1215 26.3335C59.88 25.5087 59.5952 24.6855 59.2753 23.8869C59.1389 23.5465 59.3044 23.1599 59.6449 23.0237C59.9851 22.8871 60.3718 23.0528 60.5082 23.3933C60.8438 24.2312 61.1425 25.0947 61.396 25.9603C61.4991 26.3122 61.2973 26.6812 60.9454 26.7843C60.8832 26.8024 60.8203 26.8111 60.7585 26.8111ZM9.22501 21.8641C9.12221 21.8641 9.01782 21.8402 8.9202 21.7896C8.59455 21.6209 8.46718 21.2202 8.63572 20.8946C9.05023 20.094 9.50856 19.3035 9.99798 18.5448C10.1968 18.2368 10.6076 18.148 10.916 18.3469C11.2241 18.5458 11.3128 18.9568 11.1139 19.2649C10.6473 19.9881 10.2103 20.7419 9.81509 21.5052C9.69729 21.7333 9.46527 21.8641 9.22501 21.8641ZM57.4614 19.595C57.2431 19.595 57.0294 19.4874 56.9024 19.2903C56.4372 18.5674 55.9313 17.8579 55.399 17.1815C55.1722 16.8933 55.222 16.4759 55.51 16.249C55.7982 16.0222 56.2158 16.072 56.4425 16.3601C57.0007 17.0693 57.5312 17.8133 58.0191 18.5714C58.2175 18.8798 58.1286 19.2907 57.82 19.4893C57.7091 19.5608 57.5846 19.595 57.4614 19.595ZM13.8383 15.4079C13.6733 15.4079 13.5082 15.347 13.3795 15.224C13.1143 14.9706 13.1047 14.5502 13.3581 14.2851C13.9813 13.6329 14.643 13.0028 15.3248 12.4125C15.602 12.1724 16.0214 12.2024 16.2615 12.4798C16.5017 12.7571 16.4715 13.1766 16.1942 13.4165C15.544 13.9797 14.9128 14.5805 14.3184 15.2027C14.1881 15.3391 14.0132 15.4079 13.8383 15.4079ZM52.2637 13.5986C52.1094 13.5986 51.9544 13.5452 51.8287 13.4361C51.1787 12.872 50.4942 12.3327 49.7944 11.8332C49.4959 11.6201 49.4267 11.2053 49.6397 10.9069C49.8527 10.6085 50.2677 10.539 50.566 10.7522C51.2999 11.276 52.0176 11.8415 52.6991 12.4329C52.9761 12.6733 53.0058 13.0927 52.7655 13.3697C52.6342 13.5212 52.4495 13.5986 52.2637 13.5986ZM20.0773 10.5045C19.8478 10.5045 19.6246 10.3855 19.5016 10.1725C19.3182 9.85478 19.427 9.44877 19.7446 9.26523C20.5262 8.8138 21.3384 8.39504 22.1588 8.02037C22.4924 7.86817 22.8864 8.01493 23.0387 8.34869C23.191 8.68244 23.044 9.07623 22.7104 9.22857C21.9283 9.58557 21.154 9.98494 20.4089 10.4152C20.3041 10.4758 20.1899 10.5045 20.0773 10.5045ZM45.5937 9.30175C45.5011 9.30175 45.4072 9.28236 45.3176 9.24132C44.5355 8.88326 43.727 8.55893 42.915 8.2775C42.5685 8.15744 42.385 7.77919 42.505 7.43255C42.6251 7.08604 43.0033 6.90236 43.3498 7.02255C44.202 7.3178 45.05 7.65806 45.8705 8.03379C46.204 8.18639 46.3505 8.58058 46.1977 8.91394C46.0862 9.15778 45.8454 9.30175 45.5937 9.30175ZM27.4434 7.55938C27.1437 7.55938 26.8717 7.35498 26.7984 7.05071C26.7124 6.69411 26.9318 6.33551 27.2883 6.24959C28.1643 6.03841 29.0619 5.86709 29.9558 5.74025C30.3176 5.68872 30.655 5.94133 30.7066 6.30457C30.7582 6.66768 30.5054 7.00383 30.1423 7.05536C29.2899 7.17622 28.4343 7.33958 27.5994 7.54079C27.5473 7.55341 27.495 7.55938 27.4434 7.55938ZM37.9837 7.06651C37.9524 7.06651 37.9207 7.06426 37.8889 7.05974C37.0391 6.93822 36.1719 6.85587 35.3112 6.8151C34.9449 6.79783 34.6619 6.48679 34.6793 6.12049C34.6967 5.75419 35.0068 5.4725 35.3741 5.48857C36.2764 5.53134 37.1859 5.61766 38.0769 5.74503C38.4399 5.79696 38.6922 6.13337 38.6403 6.49648C38.5929 6.82759 38.3088 7.06651 37.9837 7.06651Z" fill="#EEA47D"/>
</svg>
