<svg width="18" height="21" viewBox="0 0 18 21" fill="none" xmlns="http://www.w3.org/2000/svg">
<path d="M16.3003 5.83194L17.4232 5.50044C16.7957 3.42336 15.4109 1.66025 13.5238 0.535889L12.9189 1.52818C14.5557 2.50333 15.7566 4.03179 16.3003 5.83194Z" fill="white"/>
<path d="M5.08043 1.52814L4.47555 0.535889C2.5884 1.66025 1.20359 3.42336 0.576172 5.50044L1.69902 5.83194C2.24281 4.03179 3.44367 2.50333 5.08043 1.52814Z" fill="white"/>
<path d="M2.55469 7.98219V14.1915C2.55469 14.565 2.40754 14.9162 2.14039 15.1803C1.65187 15.6633 1.38281 16.3054 1.38281 16.9884V17.907H6.12926C6.40145 19.2275 7.58516 20.2241 9 20.2241C10.4148 20.2241 11.5985 19.2275 11.8707 17.907H16.6172V16.9884C16.6172 16.3054 16.3481 15.6633 15.8596 15.1803C15.5924 14.9162 15.4453 14.565 15.4453 14.1915V7.98219C15.4453 4.66397 12.8663 1.9305 9.5859 1.63681V0.45166H8.41406V1.63681C5.13371 1.93046 2.55469 4.66393 2.55469 7.98219ZM9 19.0656C8.23613 19.0656 7.58484 18.5813 7.34297 17.9067H10.657C10.4152 18.5813 9.7639 19.0656 9 19.0656ZM14.2734 7.98219V14.1915C14.2734 14.8745 14.5425 15.5166 15.031 15.9996C15.2401 16.2063 15.3756 16.4662 15.4247 16.7485H2.57531C2.62437 16.4662 2.75996 16.2062 2.96902 15.9996C3.4575 15.5166 3.72656 14.8745 3.72656 14.1915V7.98219C3.72656 5.1075 6.09223 2.76875 9 2.76875C11.9078 2.76875 14.2734 5.1075 14.2734 7.98219Z" fill="white"/>
</svg>
