<svg width="50" height="50" viewBox="0 0 50 50" fill="none" xmlns="http://www.w3.org/2000/svg">
<path d="M44.7985 41.2322L42.5656 13.0959C42.4265 11.2832 40.8934 9.86318 39.0755 9.86318H34.665V9.66494C34.665 4.33564 30.3294 0 25.0001 0C19.6708 0 15.3351 4.33564 15.3351 9.66494V9.86318H10.9248C9.10673 9.86318 7.57363 11.2831 7.43495 13.0921L5.20136 41.236C5.02851 43.4895 5.81025 45.7329 7.34599 47.3909C8.88173 49.0489 11.0588 50 13.3188 50H36.6812C38.9412 50 41.1184 49.049 42.6542 47.3909C44.1899 45.7328 44.9716 43.4895 44.7985 41.2322ZM18.2639 9.66494C18.2639 5.95059 21.2858 2.92871 25.0001 2.92871C28.7143 2.92871 31.7363 5.95068 31.7363 9.66494V9.86318H18.2639V9.66494ZM40.5055 45.4009C39.5076 46.478 38.1496 47.0713 36.6812 47.0713H13.3189C11.8506 47.0713 10.4926 46.478 9.49472 45.4009C8.49696 44.3236 8.00927 42.924 8.12138 41.4639L10.3548 13.3198C10.3774 13.0237 10.6278 12.7919 10.9248 12.7919H15.3351V16.3988C15.3351 17.2075 15.9908 17.8632 16.7995 17.8632C17.6082 17.8632 18.2639 17.2075 18.2639 16.3988V12.7919H31.7363V16.3988C31.7363 17.2075 32.392 17.8632 33.2007 17.8632C34.0094 17.8632 34.665 17.2075 34.665 16.3988V12.7919H39.0755C39.3724 12.7919 39.6227 13.0238 39.6458 13.3237L41.8787 41.46C41.991 42.924 41.5032 44.3235 40.5055 45.4009Z" fill="#455CFD"/>
<path d="M31.5971 24.8325C31.0254 24.2606 30.0981 24.2606 29.5264 24.8325L22.9877 31.3711L20.4734 28.8569C19.9017 28.285 18.9744 28.285 18.4025 28.8569C17.8307 29.4288 17.8307 30.3559 18.4025 30.9278L21.9522 34.4775C22.2382 34.7634 22.613 34.9065 22.9876 34.9065C23.3622 34.9065 23.7371 34.7635 24.023 34.4775L31.597 26.9035C32.1689 26.3315 32.1689 25.4043 31.5971 24.8325Z" fill="#455CFD"/>
</svg>
