<svg width="50" height="50" viewBox="0 0 50 50" fill="none" xmlns="http://www.w3.org/2000/svg">
<path d="M42.6963 0.997559C38.6689 0.997559 35.3926 4.27393 35.3926 8.30127C35.3926 9.93603 36.418 12.3999 38.5283 15.8325C39.2715 17.0405 40.0088 18.1392 40.5654 18.9419H18.5188C14.1977 18.9419 10.6821 22.4574 10.6821 26.7785C10.6821 31.0996 14.1977 34.615 18.5188 34.615H28.5524C30.8139 34.615 32.6537 36.4549 32.6537 38.7163C32.6537 40.9778 30.8139 42.8177 28.5524 42.8177H9.52236C8.94219 40.7855 7.06826 39.2944 4.85352 39.2944C2.17676 39.2944 0 41.4722 0 44.1489C0 46.8247 2.17676 49.0024 4.85352 49.0024C6.96973 49.0024 8.77441 47.6411 9.4375 45.7476C9.4375 45.7476 9.4375 45.7475 9.4376 45.7474H28.5525C32.4294 45.7474 35.5835 42.5933 35.5835 38.7163C35.5835 34.8395 32.4294 31.6854 28.5525 31.6854H18.5188C15.8131 31.6854 13.6118 29.4842 13.6118 26.7785C13.6118 24.0729 15.813 21.8716 18.5188 21.8716H42.6953H42.6959H42.6963L43.873 20.2827C43.9346 20.1997 45.3877 18.2329 46.8633 15.8325C48.9736 12.3999 50 9.93603 50 8.30127C50 4.27393 46.7236 0.997559 42.6963 0.997559ZM4.85352 46.0728C3.79297 46.0728 2.92969 45.2095 2.92969 44.1489C2.92969 43.0874 3.79297 42.2241 4.85352 42.2241C5.91504 42.2241 6.77832 43.0874 6.77832 44.1489C6.77832 45.2095 5.91504 46.0728 4.85352 46.0728ZM42.6963 16.8813C40.6006 13.8159 38.3223 9.8833 38.3223 8.30127C38.3223 5.88916 40.2842 3.92725 42.6963 3.92725C45.1074 3.92725 47.0703 5.88916 47.0703 8.30127C47.0703 9.8833 44.791 13.8159 42.6963 16.8813Z" fill="#455CFD"/>
<path d="M42.6963 6.40088C41.8779 6.40088 41.2148 7.06396 41.2148 7.88232C41.2148 8.70068 41.8779 9.36377 42.6963 9.36377C43.5137 9.36377 44.1768 8.70068 44.1768 7.88232C44.1768 7.06396 43.5137 6.40088 42.6963 6.40088Z" fill="#455CFD"/>
</svg>
