<svg xmlns="http://www.w3.org/2000/svg" width="46.174" height="51.224" viewBox="0 0 46.174 51.224">
  <g id="Icon_feather-box" data-name="Icon feather-box" transform="translate(-3 -1.437)">
    <path id="Path_7" data-name="Path 7" d="M47.674,36.578V17.389a4.8,4.8,0,0,0-2.4-4.149L28.486,3.646a4.8,4.8,0,0,0-4.8,0L6.9,13.24a4.8,4.8,0,0,0-2.4,4.149V36.578a4.8,4.8,0,0,0,2.4,4.149l16.79,9.594a4.8,4.8,0,0,0,4.8,0l16.79-9.594a4.8,4.8,0,0,0,2.4-4.149Z" transform="translate(0 0)" fill="none" stroke="#455cfd" stroke-linecap="round" stroke-linejoin="round" stroke-width="3"/>
    <path id="Path_8" data-name="Path 8" d="M4.905,10.44,25.844,22.553,46.784,10.44" transform="translate(0.243 4.455)" fill="none" stroke="#455cfd" stroke-linecap="round" stroke-linejoin="round" stroke-width="3"/>
    <path id="Path_9" data-name="Path 9" d="M18,42.177V18" transform="translate(8.087 8.984)" fill="none" stroke="#455cfd" stroke-linecap="round" stroke-linejoin="round" stroke-width="3"/>
  </g>
</svg>
