<svg width="50" height="50" viewBox="0 0 50 50" fill="none" xmlns="http://www.w3.org/2000/svg">
<path d="M50 39.2853C50 40.9177 48.6768 42.241 47.0444 42.241H2.95557C1.32324 42.241 0 40.9176 0 39.2853V10.7145C0 9.08203 1.32324 7.75879 2.95557 7.75879H47.0444C48.6769 7.75879 50 9.08213 50 10.7145V39.2853Z" fill="#92DBEF"/>
<path opacity="0.15" d="M2.10127 39.2853V10.7145C2.10127 9.08203 3.42471 7.75879 5.05703 7.75879H2.95547C1.32324 7.75879 0 9.08203 0 10.7145V39.2853C0 40.9177 1.32324 42.241 2.95557 42.241H5.05713C3.4248 42.241 2.10127 40.9176 2.10127 39.2853Z" fill="#202121"/>
<path d="M32.4644 14.4991C31.3687 13.2466 29.3338 12.6208 26.5166 12.6208H18.6901C18.2203 12.6208 17.7511 13.0908 17.5944 13.5596L14.4639 34.0642C14.4639 34.5344 14.7771 34.8468 15.0896 34.8468H19.9418L21.194 27.1775V27.4906C21.3509 27.0206 21.8199 26.5516 22.2899 26.5516H24.6381C29.1771 26.5516 32.6198 24.6734 33.7157 19.5075V19.0379C33.5593 19.0379 33.5593 19.0379 33.7157 19.0379C33.8725 17.0037 33.5594 15.7512 32.4644 14.4991Z" fill="#263B80"/>
<path d="M33.7158 19.5074V19.0379C33.7169 19.0224 33.7175 19.0079 33.7185 18.9925C33.4402 18.799 33.1795 18.6641 32.9801 18.5766C32.0297 18.1839 31.0579 18.1099 30.6092 18.0986L30.6069 18.0967H28.3243C28.3243 18.0967 28.3262 18.0979 28.3272 18.0985H23.5391C22.725 18.1281 22.5006 18.7845 22.4418 19.07L21.1941 27.1775V27.3699V27.4905C21.3509 27.0205 21.82 26.5516 22.29 26.5516H24.6381C29.1771 26.5516 32.6199 24.6732 33.7158 19.5074Z" fill="#232C65"/>
<path d="M35.2536 20.978C34.8999 20.0021 34.274 19.3786 33.7188 18.9924C33.7177 19.0079 33.717 19.0223 33.716 19.0378V19.5074C32.6201 24.6732 29.1773 26.5515 24.6384 26.5515H22.2902C21.8202 26.5515 21.3512 27.0204 21.1943 27.4905V27.3698C21.1765 27.4098 21.16 27.4501 21.1465 27.4905L20.2622 32.8857L19.942 34.8468H19.9408L19.5815 37.0384C19.5815 37.3513 19.7383 37.6637 20.2073 37.6637H24.109C24.8939 37.6637 25.1405 37.0531 25.2163 36.7241L25.2494 36.5197V36.5196L25.9986 31.8727C25.9986 31.8727 26.0963 30.7771 27.1651 30.7771H27.5645C31.4775 30.7771 34.608 29.2122 35.3905 24.5167C35.6081 23.2076 35.5974 21.9758 35.2536 20.978Z" fill="#139AD6"/>
</svg>
