<svg width="22" height="22" viewBox="0 0 22 22" fill="none" xmlns="http://www.w3.org/2000/svg">
<path d="M10.8241 0.594422L1.16607 5.08242C1.01207 5.14842 0.924072 5.30242 0.924072 5.45642V16.5444C0.924072 16.6984 1.01207 16.8524 1.16607 16.9184L10.8241 21.4064C10.9341 21.4504 11.0661 21.4504 11.1761 21.4064L20.8341 16.9184C20.9881 16.8524 21.0761 16.6984 21.0761 16.5444V5.45642C21.0761 5.30242 20.9881 5.14842 20.8341 5.08242L11.1761 0.594422C11.0661 0.528422 10.9341 0.528422 10.8241 0.594422ZM11.0001 9.30642L7.67807 7.76642L15.7521 4.02642L19.0741 5.56642L11.0001 9.30642ZM14.3441 3.36642L6.27007 7.10642L2.92607 5.56642L11.0001 1.82642L14.3441 3.36642ZM2.11207 6.49042L5.78607 8.20642V11.4624C5.78607 11.7924 6.05007 12.0564 6.38007 12.0564C6.71007 12.0564 6.97407 11.7924 6.97407 11.4624V8.75642L10.4061 10.3404V19.9104L2.11207 16.0604V6.49042ZM11.5941 19.9104V10.3404L19.8881 6.49042V16.0604L11.5941 19.9104Z" fill="#0083EB"/>
<path d="M18.1501 10.319C17.9741 10.209 17.7541 10.187 17.5781 10.275L13.3981 12.211C13.1781 12.299 13.0461 12.519 13.0461 12.739V15.577C13.0461 15.775 13.1561 15.973 13.3101 16.083C13.3981 16.149 13.5081 16.171 13.6401 16.171C13.7281 16.171 13.8161 16.149 13.8821 16.105L18.0621 14.169C18.2821 14.081 18.4141 13.861 18.4141 13.641V10.803C18.4361 10.605 18.3261 10.429 18.1501 10.319ZM17.2481 13.267L14.2341 14.653V13.135L17.2481 11.749V13.267Z" fill="#0083EB"/>
</svg>
