<svg width="16" height="22" viewBox="0 0 16 22" fill="none" xmlns="http://www.w3.org/2000/svg">
<path d="M11.3871 2.58832H15.2803C15.5779 2.58832 15.8195 2.82966 15.8195 3.12746V21.4609C15.8195 21.7587 15.5779 22 15.2803 22H0.721712C0.423915 22 0.182373 21.7587 0.182373 21.4609V3.12746C0.182373 2.82966 0.423915 2.58832 0.721712 2.58832H4.61471V2.09225C4.61471 1.79445 4.85605 1.55291 5.15385 1.55291H5.97899C6.07517 1.19197 6.26538 0.869197 6.52167 0.612903C6.90031 0.234461 7.42332 0 8.00102 0C8.57675 0 9.09956 0.234854 9.47919 0.613887L9.48017 0.612903C9.73666 0.869197 9.92667 1.19197 10.0229 1.55291H10.848C11.1458 1.55291 11.3871 1.79445 11.3871 2.09225V2.58832ZM3.82203 18.8997C3.52423 18.8997 3.28269 18.6581 3.28269 18.3603C3.28269 18.0625 3.52423 17.8212 3.82203 17.8212H12.1798C12.4776 17.8212 12.719 18.0625 12.719 18.3603C12.719 18.6581 12.4776 18.8997 12.1798 18.8997H3.82203ZM3.82203 16.0256C3.52423 16.0256 3.28269 15.7842 3.28269 15.4864C3.28269 15.1886 3.52423 14.9471 3.82203 14.9471H12.1798C12.4776 14.9471 12.719 15.1886 12.719 15.4864C12.719 15.7842 12.4776 16.0256 12.1798 16.0256H3.82203ZM4.61471 3.6668H1.26085V20.9215H14.741V3.6668H11.3871V4.16267C11.3871 4.46046 11.1458 4.70181 10.848 4.70181H5.15385C4.85605 4.70181 4.61471 4.46046 4.61471 4.16267V3.6668ZM6.44791 2.63139H5.69319V3.62333H10.3087V2.63139H9.55393C9.25613 2.63139 9.01459 2.38985 9.01459 2.09225C9.01459 1.81216 8.9011 1.55862 8.71778 1.3753V1.37333C8.53583 1.19119 8.28229 1.07848 8.00102 1.07848C7.72092 1.07848 7.46738 1.19197 7.28406 1.3753C7.10074 1.55862 6.98725 1.81216 6.98725 2.09225C6.98725 2.38985 6.74571 2.63139 6.44791 2.63139ZM4.82458 10.2297C4.59779 10.0389 4.56868 9.70043 4.75928 9.47364C4.95007 9.24685 5.28878 9.21755 5.51557 9.40834L7.51734 11.0946L10.421 7.66522C10.6129 7.43843 10.9524 7.41031 11.1794 7.60208C11.4062 7.79406 11.4343 8.13356 11.2426 8.36054L7.99295 12.1985L7.99177 12.1977C7.80098 12.4233 7.46306 12.4522 7.23666 12.2618L4.82458 10.2297Z" fill="#0083EB"/>
</svg>
