<svg width="24" height="24" viewBox="0 0 24 24" fill="none" xmlns="http://www.w3.org/2000/svg">
<path d="M11.0901 0.559165C10.9786 0.569178 10.8733 0.614912 10.7898 0.68957C10.7064 0.764227 10.6493 0.86382 10.627 0.97354L10.367 2.25729C10.165 2.32772 9.9699 2.40747 9.78198 2.50104L8.68511 1.77792C8.58476 1.71387 8.46547 1.68618 8.34717 1.69949C8.22887 1.7128 8.11872 1.7663 8.03511 1.85104C7.64188 2.2453 7.21205 2.64056 6.80011 3.05354C6.71461 3.13867 6.66138 3.25088 6.64952 3.37094C6.63766 3.491 6.66792 3.61146 6.73511 3.71167L7.47448 4.80854C7.38042 5.00058 7.3008 5.19778 7.23073 5.40167L5.92261 5.68604C5.80507 5.71043 5.69959 5.77473 5.62407 5.86803C5.54854 5.96133 5.50761 6.07788 5.50823 6.19792C5.50826 6.76873 5.50824 7.32519 5.50823 7.89604C5.50948 8.01468 5.55125 8.12933 5.62662 8.22096C5.702 8.31259 5.80643 8.37569 5.92261 8.39979L7.23073 8.68417C7.3008 8.88806 7.38042 9.08525 7.47448 9.27729L6.73511 10.3823C6.67003 10.4818 6.64099 10.6005 6.65281 10.7188C6.66464 10.837 6.71662 10.9477 6.80011 11.0323C7.21205 11.4452 7.64185 11.8405 8.03511 12.2348C8.11872 12.3195 8.22887 12.373 8.34717 12.3863C8.46547 12.3996 8.58476 12.372 8.68511 12.3079L9.79011 11.5929C9.9778 11.6859 10.1734 11.7667 10.3751 11.8367L10.627 13.1123C10.6497 13.2313 10.7133 13.3387 10.8068 13.4158C10.9002 13.493 11.0177 13.535 11.1389 13.5348H12.8614C12.9825 13.535 13.1 13.493 13.1935 13.4158C13.2869 13.3387 13.3505 13.2313 13.3732 13.1123L13.6251 11.8367C13.8268 11.7667 14.0224 11.6859 14.2101 11.5929L15.3151 12.3079C15.4155 12.372 15.5347 12.3996 15.653 12.3863C15.7713 12.373 15.8815 12.3195 15.9651 12.2348C16.3584 11.8405 16.7882 11.4452 17.2001 11.0323C17.2836 10.9477 17.3356 10.837 17.3474 10.7188C17.3592 10.6005 17.3302 10.4818 17.2651 10.3823L16.5257 9.27729C16.6198 9.08525 16.6994 8.88806 16.7695 8.68417L18.0776 8.39979C18.1938 8.37569 18.2982 8.31259 18.3736 8.22096C18.449 8.12933 18.4907 8.01468 18.492 7.89604C18.492 7.32519 18.492 6.76873 18.492 6.19792C18.4926 6.07788 18.4517 5.96133 18.3761 5.86803C18.3006 5.77473 18.1951 5.71043 18.0776 5.68604L16.7695 5.40167C16.6994 5.19778 16.6198 5.00058 16.5257 4.80854L17.2651 3.71167C17.3323 3.61146 17.3625 3.491 17.3507 3.37094C17.3388 3.25088 17.2856 3.13867 17.2001 3.05354C16.7882 2.64056 16.3583 2.2453 15.9651 1.85104C15.8815 1.7663 15.7713 1.7128 15.653 1.69949C15.5347 1.68618 15.4155 1.71387 15.3151 1.77792L14.2182 2.50104C14.0303 2.40747 13.8352 2.32772 13.6332 2.25729L13.3732 0.97354C13.3488 0.856007 13.2845 0.75053 13.1912 0.675003C13.0979 0.599475 12.9814 0.558549 12.8614 0.559165H11.1389C11.1226 0.558403 11.1063 0.558403 11.0901 0.559165ZM11.5695 1.59917H12.4307L12.6582 2.72042C12.6781 2.81591 12.7245 2.90389 12.792 2.97429C12.8596 3.04469 12.9455 3.09467 13.0401 3.11854C13.3864 3.21007 13.705 3.35339 14.0151 3.53292C14.0985 3.58079 14.1935 3.60462 14.2896 3.60175C14.3857 3.59888 14.4791 3.56943 14.5595 3.51667L15.5345 2.88292C15.7445 3.08768 15.9549 3.2842 16.1601 3.48417L15.5101 4.45917C15.4561 4.53877 15.4252 4.6318 15.4209 4.72791C15.4166 4.82401 15.439 4.91943 15.4857 5.00354C15.6595 5.30297 15.8068 5.65022 15.9001 5.99479C15.9246 6.08683 15.974 6.17036 16.0428 6.23627C16.1115 6.30218 16.1971 6.34794 16.2901 6.36854L17.452 6.61229C17.452 6.89882 17.452 7.18707 17.452 7.47354L16.2901 7.72542C16.1971 7.74602 16.1115 7.79177 16.0428 7.85768C15.974 7.92359 15.9246 8.00712 15.9001 8.09917C15.8068 8.44374 15.6595 8.78286 15.4857 9.08229C15.4374 9.16735 15.4141 9.26432 15.4184 9.36205C15.4227 9.45978 15.4545 9.55431 15.5101 9.63479L16.152 10.6017C15.9467 10.8016 15.7445 11.0063 15.5345 11.211L14.5595 10.5692C14.4784 10.5176 14.3845 10.4896 14.2884 10.4882C14.1923 10.4867 14.0977 10.512 14.0151 10.561C13.705 10.7406 13.3864 10.8758 13.0401 10.9673C12.9455 10.9912 12.8596 11.0411 12.792 11.1115C12.7245 11.1819 12.6781 11.2699 12.6582 11.3654L12.4307 12.4948H11.5695L11.342 11.3654C11.3221 11.2699 11.2757 11.1819 11.2082 11.1115C11.1407 11.0411 11.0547 10.9912 10.9601 10.9673C10.6138 10.8758 10.2952 10.7406 9.98511 10.561C9.90248 10.512 9.80787 10.4867 9.71177 10.4882C9.61568 10.4896 9.52186 10.5176 9.44073 10.5692L8.46573 11.211C8.25576 11.0063 8.05353 10.8016 7.84823 10.6017L8.49011 9.63479C8.54572 9.55431 8.57751 9.45978 8.58182 9.36205C8.58613 9.26432 8.56279 9.16735 8.51448 9.08229C8.34071 8.78286 8.19338 8.44374 8.10011 8.09917C8.07556 8.00712 8.02621 7.92359 7.95744 7.85768C7.88866 7.79177 7.80311 7.74602 7.71011 7.72542L6.54823 7.47354C6.54824 7.18707 6.54823 6.89882 6.54823 6.61229L7.71011 6.36854C7.80311 6.34794 7.88866 6.30218 7.95744 6.23627C8.02621 6.17036 8.07556 6.08683 8.10011 5.99479C8.19338 5.65022 8.34071 5.30297 8.51448 5.00354C8.56117 4.91943 8.5836 4.82401 8.5793 4.72791C8.575 4.6318 8.54412 4.53877 8.49011 4.45917L7.84011 3.48417C8.04536 3.2842 8.25571 3.08768 8.46573 2.88292L9.44073 3.51667C9.5211 3.56943 9.61452 3.59888 9.71062 3.60175C9.80672 3.60462 9.90173 3.58079 9.98511 3.53292C10.2952 3.35339 10.6138 3.21007 10.9601 3.11854C11.0547 3.09467 11.1407 3.04469 11.2082 2.97429C11.2757 2.90389 11.3221 2.81591 11.342 2.72042L11.5695 1.59917ZM12.0001 4.95479C10.8525 4.95479 9.91198 5.89532 9.91198 7.04292C9.91198 8.19053 10.8525 9.13104 12.0001 9.13104C13.1477 9.13104 14.0882 8.19053 14.0882 7.04292C14.0882 5.89532 13.1477 4.95479 12.0001 4.95479ZM12.0001 5.99479C12.5811 5.99479 13.0482 6.46195 13.0482 7.04292C13.0482 7.62392 12.5811 8.09104 12.0001 8.09104C11.4191 8.09104 10.952 7.62392 10.952 7.04292C10.952 6.46195 11.4191 5.99479 12.0001 5.99479ZM21.6689 11.0323C21.2615 11.0323 20.8932 11.2156 20.6289 11.4873L20.6207 11.4792C20.6207 11.4792 20.6127 11.4954 20.6126 11.4954C20.6009 11.5071 19.8995 12.2014 19.1339 12.966C18.3619 13.737 17.5553 14.5383 17.3139 14.8023C17.2675 14.8529 17.2316 14.9122 17.2083 14.9767C17.1849 15.0412 17.1745 15.1097 17.1777 15.1783C17.181 15.2468 17.1977 15.314 17.227 15.3761C17.2563 15.4381 17.2975 15.4938 17.3484 15.5398C17.3993 15.5859 17.4587 15.6214 17.5234 15.6444C17.588 15.6674 17.6566 15.6774 17.7251 15.6738C17.7937 15.6702 17.8608 15.6531 17.9227 15.6234C17.9846 15.5938 18.04 15.5522 18.0857 15.501C18.2503 15.321 19.0946 14.4748 19.8651 13.7054C20.6356 12.936 21.352 12.2185 21.352 12.2185C21.3574 12.2159 21.3629 12.2132 21.3682 12.2104C21.4581 12.1158 21.5568 12.0723 21.6689 12.0723C21.9023 12.0723 22.1401 12.2962 22.1401 12.6573C22.1401 12.8129 22.0908 12.9469 22.0182 13.0473C22.0169 13.0499 22.0196 13.0536 22.0182 13.0554C21.9955 13.0827 18.8854 16.8148 16.8751 19.1654C16.3198 19.8148 15.5568 20.4573 14.4782 20.4573H8.31136C7.64796 20.4573 6.95126 20.5777 6.41011 21.1073L4.93948 22.5454C4.88937 22.5931 4.84927 22.6502 4.82152 22.7136C4.79377 22.7769 4.77893 22.8452 4.77787 22.9143C4.77681 22.9834 4.78956 23.0521 4.81535 23.1163C4.84115 23.1804 4.87948 23.2388 4.92811 23.288C4.97673 23.3371 5.03468 23.3761 5.09855 23.4026C5.16242 23.4291 5.23093 23.4426 5.30008 23.4423C5.36923 23.442 5.43763 23.4279 5.50127 23.4009C5.56492 23.3738 5.62253 23.3344 5.67073 23.2848L7.14136 21.8467C7.43798 21.5564 7.75233 21.4973 8.31136 21.4973H14.4782C15.9715 21.4973 17.0171 20.5954 17.6632 19.8398C19.69 17.4698 22.8307 13.6973 22.8307 13.6973C22.8364 13.6893 22.8418 13.6812 22.847 13.6729C23.0569 13.3901 23.1801 13.0366 23.1801 12.6573C23.1801 11.7935 22.5307 11.0323 21.6689 11.0323ZM7.95386 14.9079C6.85055 14.9079 5.71332 15.063 4.80136 15.8098L1.00698 18.9135C0.900314 19.0019 0.833113 19.129 0.820161 19.2669C0.807209 19.4048 0.849568 19.5422 0.937918 19.6489C1.02627 19.7555 1.15337 19.8227 1.29127 19.8357C1.42917 19.8486 1.56656 19.8063 1.67323 19.7179L5.45948 16.6142C6.09202 16.0962 6.94629 15.9479 7.95386 15.9479H15.6076C15.6966 16.2037 15.6855 16.5162 15.5182 16.8254C15.3078 17.2144 14.9515 17.4275 14.7789 17.4104C14.7627 17.4069 14.7465 17.4042 14.7301 17.4023H9.76573C9.69682 17.4013 9.62841 17.414 9.56446 17.4397C9.50052 17.4654 9.44232 17.5036 9.39325 17.552C9.34417 17.6003 9.3052 17.658 9.27861 17.7216C9.25201 17.7852 9.23831 17.8534 9.23831 17.9223C9.23831 17.9912 9.25201 18.0594 9.27861 18.123C9.3052 18.1866 9.34417 18.2442 9.39325 18.2926C9.44232 18.341 9.50052 18.3792 9.56446 18.4048C9.62841 18.4305 9.69682 18.4433 9.76573 18.4423H14.6732H14.7301V18.4342C15.492 18.4791 16.096 17.942 16.4364 17.3129C16.7856 16.6674 16.8995 15.7998 16.3795 15.1192C16.3315 15.0542 16.2691 15.0013 16.1972 14.9646C16.1253 14.928 16.0458 14.9085 15.9651 14.9079H7.95386Z" fill="#0083EB"/>
</svg>
