<svg xmlns="http://www.w3.org/2000/svg" width="44.761" height="35.809" viewBox="0 0 44.761 35.809">
  <path id="Icon_awesome-shipping-fast" data-name="Icon awesome-shipping-fast" d="M43.642,24.619H42.523v-7.56a3.357,3.357,0,0,0-.986-2.371L34.55,7.7a3.357,3.357,0,0,0-2.371-.986H29.095V3.357A3.358,3.358,0,0,0,25.738,0H7.833A3.358,3.358,0,0,0,4.476,3.357V6.714H.56a.561.561,0,0,0-.56.56V8.393a.561.561,0,0,0,.56.56H19.583a.561.561,0,0,1,.56.56v1.119a.561.561,0,0,1-.56.56H2.8a.561.561,0,0,0-.56.56v1.119a.561.561,0,0,0,.56.56H17.345a.561.561,0,0,1,.56.56v1.119a.561.561,0,0,1-.56.56H.56a.561.561,0,0,0-.56.56v1.119a.561.561,0,0,0,.56.56H15.107a.561.561,0,0,1,.56.56v1.119a.561.561,0,0,1-.56.56H4.476v8.952a6.714,6.714,0,0,0,13.428,0h8.952a6.714,6.714,0,0,0,13.428,0h3.357a1.122,1.122,0,0,0,1.119-1.119V25.738A1.122,1.122,0,0,0,43.642,24.619ZM11.19,32.452a3.357,3.357,0,1,1,3.357-3.357A3.358,3.358,0,0,1,11.19,32.452Zm22.381,0a3.357,3.357,0,1,1,3.357-3.357A3.358,3.358,0,0,1,33.571,32.452Zm5.6-14.547H29.095V10.071h3.084l6.987,6.987Z" fill="#455cfd"/>
</svg>
