<svg width="20" height="21" viewBox="0 0 20 21" fill="none" xmlns="http://www.w3.org/2000/svg">
<g clip-path="url(#clip0)">
<path d="M17.9196 17.1222L17.0264 5.99566C16.9708 5.27883 16.3576 4.71728 15.6304 4.71728H13.8662V4.63889C13.8662 2.53142 12.132 0.816895 10.0002 0.816895C7.86851 0.816895 6.13425 2.53142 6.13425 4.63889V4.71728H4.37011C3.64289 4.71728 3.02965 5.27879 2.97418 5.99415L2.08074 17.1237C2.0116 18.0148 2.32429 18.9019 2.93859 19.5576C3.55289 20.2133 4.42371 20.5894 5.32773 20.5894H14.6727C15.5767 20.5894 16.4475 20.2133 17.0619 19.5576C17.6762 18.9019 17.9888 18.0148 17.9196 17.1222ZM7.30574 4.63889C7.30574 3.17005 8.51453 1.97505 10.0002 1.97505C11.4859 1.97505 12.6947 3.17009 12.6947 4.63889V4.71728H7.30574V4.63889ZM16.2024 18.7706C15.8032 19.1966 15.26 19.4312 14.6727 19.4312H5.32777C4.74043 19.4312 4.19722 19.1966 3.79808 18.7706C3.39898 18.3446 3.2039 17.7912 3.24875 17.2138L4.14211 6.08421C4.15117 5.96712 4.25133 5.87544 4.37011 5.87544H6.13425V7.3018C6.13425 7.6216 6.39652 7.88088 6.72 7.88088C7.04347 7.88088 7.30574 7.6216 7.30574 7.3018V5.87544H12.6947V7.3018C12.6947 7.6216 12.957 7.88088 13.2805 7.88088C13.6039 7.88088 13.8662 7.6216 13.8662 7.3018V5.87544H15.6304C15.7491 5.87544 15.8493 5.96716 15.8585 6.08576L16.7517 17.2122C16.7966 17.7912 16.6015 18.3446 16.2024 18.7706Z" fill="#0083EB"/>
<path d="M12.6388 10.6369C12.4102 10.4107 12.0393 10.4107 11.8105 10.6369L9.19508 13.2226L8.18937 12.2283C7.96066 12.0022 7.58977 12.0022 7.36102 12.2283C7.13227 12.4545 7.13227 12.8211 7.36102 13.0473L8.7809 14.451C8.89527 14.5641 9.04519 14.6207 9.19504 14.6207C9.34488 14.6207 9.49484 14.5641 9.60918 14.451L12.6388 11.4559C12.8676 11.2297 12.8676 10.863 12.6388 10.6369Z" fill="#0083EB"/>
</g>
<defs>
<clipPath id="clip0">
<rect width="20" height="19.7725" fill="white" transform="translate(0 0.816895)"/>
</clipPath>
</defs>
</svg>
