<svg width="24" height="24" viewBox="0 0 24 24" fill="none" xmlns="http://www.w3.org/2000/svg">
<path d="M24 10.0781V8.67188C24 6.9592 23.028 5.46947 21.6067 4.72477C22.0733 4.22255 22.3594 3.55045 22.3594 2.8125C22.3594 1.26169 21.0977 0 19.5469 0C18.1598 0 17.0049 1.00955 16.7762 2.33227C15.2989 1.60069 13.6714 1.21875 12 1.21875C10.3286 1.21875 8.70117 1.60069 7.22377 2.33227C6.99511 1.00955 5.84016 0 4.45312 0C2.90231 0 1.64062 1.26169 1.64062 2.8125C1.64062 3.55045 1.9267 4.22255 2.3933 4.72477C0.972047 5.46947 0 6.9592 0 8.67188V10.0781C0 10.4664 0.314812 10.7812 0.703125 10.7812H1.28817C1.24242 11.186 1.21875 11.5935 1.21875 12C1.21875 13.1289 1.3927 14.2398 1.73597 15.3058C1.67409 15.5374 1.64062 15.7804 1.64062 16.0312C1.64062 16.7692 1.9267 17.4413 2.3933 17.9435C0.972047 18.6882 0 20.178 0 21.8906V23.2969C0 23.6852 0.314812 24 0.703125 24H8.20312C8.59144 24 8.90625 23.6852 8.90625 23.2969V22.3301C9.90548 22.6296 10.942 22.7812 12 22.7812C13.058 22.7812 14.0945 22.6297 15.0938 22.3301V23.2969C15.0938 23.6852 15.4086 24 15.7969 24H23.2969C23.6852 24 24 23.6852 24 23.2969V21.8906C24 20.178 23.028 18.6882 21.6067 17.9435C22.0733 17.4413 22.3594 16.7692 22.3594 16.0312C22.3594 15.7805 22.3259 15.5374 22.264 15.3059C22.6073 14.2398 22.7812 13.1289 22.7812 12C22.7812 11.5935 22.7576 11.186 22.7118 10.7812H23.2969C23.6852 10.7812 24 10.4664 24 10.0781ZM19.5469 1.40625C20.3223 1.40625 20.9531 2.03709 20.9531 2.8125C20.9531 3.58791 20.3223 4.21875 19.5469 4.21875C18.7715 4.21875 18.1406 3.58791 18.1406 2.8125C18.1406 2.03709 18.7715 1.40625 19.5469 1.40625ZM4.45312 1.40625C5.22853 1.40625 5.85938 2.03709 5.85938 2.8125C5.85938 3.58791 5.22853 4.21875 4.45312 4.21875C3.67772 4.21875 3.04688 3.58791 3.04688 2.8125C3.04688 2.03709 3.67772 1.40625 4.45312 1.40625ZM1.40625 9.375V8.67188C1.40625 6.99183 2.77308 5.625 4.45312 5.625C6.13317 5.625 7.5 6.99183 7.5 8.67188V9.375H1.40625ZM7.5 22.5938H1.40625V21.8906C1.40625 20.2106 2.77308 18.8438 4.45312 18.8438C6.13317 18.8438 7.5 20.2106 7.5 21.8906V22.5938ZM3.04688 16.0312C3.04688 15.2558 3.67772 14.625 4.45312 14.625C5.22853 14.625 5.85938 15.2558 5.85938 16.0312C5.85938 16.8067 5.22853 17.4375 4.45312 17.4375C3.67772 17.4375 3.04688 16.8067 3.04688 16.0312ZM15.2283 20.8032C14.196 21.1824 13.112 21.375 12 21.375C10.8881 21.375 9.804 21.1823 8.77172 20.8032C8.45888 19.5613 7.623 18.5252 6.51295 17.9435C6.97955 17.4413 7.26562 16.7692 7.26562 16.0312C7.26562 14.4804 6.00394 13.2188 4.45312 13.2188C3.83175 13.2188 3.25706 13.4217 2.79108 13.7642C2.68073 13.1856 2.625 12.5957 2.625 12C2.625 11.5933 2.65219 11.1853 2.70478 10.7812H8.20312C8.59144 10.7812 8.90625 10.4664 8.90625 10.0781V8.67188C8.90625 6.9592 7.9342 5.46947 6.51295 4.72477C6.68658 4.53787 6.83489 4.32731 6.95302 4.09866C8.45962 3.13402 10.2003 2.625 12 2.625C13.7997 2.625 15.5404 3.13402 17.047 4.09866C17.1651 4.32731 17.3134 4.53783 17.487 4.72472C16.0658 5.46947 15.0938 6.9592 15.0938 8.67188V10.0781C15.0938 10.4664 15.4086 10.7812 15.7969 10.7812H21.2952C21.3478 11.1853 21.375 11.5933 21.375 12C21.375 12.5957 21.3193 13.1856 21.2089 13.7642C20.7429 13.4217 20.1682 13.2188 19.5469 13.2188C17.9961 13.2188 16.7344 14.4804 16.7344 16.0312C16.7344 16.7692 17.0205 17.4413 17.487 17.9435C16.377 18.5251 15.5411 19.5613 15.2283 20.8032ZM20.9531 16.0312C20.9531 16.8067 20.3223 17.4375 19.5469 17.4375C18.7715 17.4375 18.1406 16.8067 18.1406 16.0312C18.1406 15.2558 18.7715 14.625 19.5469 14.625C20.3223 14.625 20.9531 15.2558 20.9531 16.0312ZM22.5938 21.8906V22.5938H16.5V21.8906C16.5 20.2106 17.8668 18.8438 19.5469 18.8438C21.2269 18.8438 22.5938 20.2106 22.5938 21.8906ZM22.5938 9.375H16.5V8.67188C16.5 6.99183 17.8668 5.625 19.5469 5.625C21.2269 5.625 22.5938 6.99183 22.5938 8.67188V9.375Z" fill="black"/>
</svg>
