<svg width="23" height="23" viewBox="0 0 23 23" fill="none" xmlns="http://www.w3.org/2000/svg">
<path d="M3.59375 0H19.4062C21.3878 0 23 1.61216 23 3.59375V4.49219C23 4.98839 22.5978 5.39062 22.1016 5.39062C21.6054 5.39062 21.2031 4.98839 21.2031 4.49219V3.59375C21.2031 2.60295 20.397 1.79688 19.4062 1.79688H3.59375C2.60295 1.79688 1.79688 2.60295 1.79688 3.59375V19.4062C1.79688 20.397 2.60295 21.2031 3.59375 21.2031H19.4062C20.397 21.2031 21.2031 20.397 21.2031 19.4062V18.5078C21.2031 18.0116 21.6054 17.6094 22.1016 17.6094C22.5978 17.6094 23 18.0116 23 18.5078V19.4062C23 21.3878 21.3878 23 19.4062 23H3.59375C1.61216 23 0 21.3878 0 19.4062V3.59375C0 1.61216 1.61216 0 3.59375 0Z" fill="black"/>
<path d="M20.9338 12.1414C20.9358 12.1393 20.9378 12.1373 20.9398 12.1353C21.2901 11.785 21.2901 11.215 20.938 10.8629L17.601 7.50647C17.2511 7.1546 17.2528 6.58575 17.6047 6.2359C17.9565 5.88609 18.5254 5.88771 18.8752 6.23958L22.2104 9.59413C23.2601 10.6439 23.2613 12.3514 22.2136 13.4026L18.8794 16.801C18.7035 16.9804 18.4708 17.0703 18.238 17.0703C18.011 17.0703 17.7837 16.9848 17.6089 16.8132C17.2547 16.4657 17.2493 15.8968 17.5968 15.5427L20.9338 12.1414Z" fill="black"/>
<path d="M8.04102 10.6016H17.6094C18.1056 10.6016 18.5078 11.0038 18.5078 11.5C18.5078 11.9962 18.1056 12.3984 17.6094 12.3984H8.04102C7.54481 12.3984 7.14258 11.9962 7.14258 11.5C7.14258 11.0038 7.54481 10.6016 8.04102 10.6016Z" fill="black"/>
</svg>
