<svg width="20" height="20" viewBox="0 0 20 20" fill="none" xmlns="http://www.w3.org/2000/svg">
<path d="M19.493 0.300781H1.50703C1.23103 0.300781 0.978027 0.530781 0.978027 0.829781V7.40778C0.978027 7.43078 0.978027 7.45378 0.978027 7.49978C1.04703 7.98278 1.32303 8.41978 1.66803 8.76478V18.5398C1.66803 18.8158 1.89803 19.0688 2.19703 19.0688H18.757C18.895 19.0688 19.033 19.0228 19.125 18.9078C19.217 18.7928 19.286 18.6778 19.286 18.5398V8.74178C19.654 8.39678 19.907 7.95978 19.976 7.47678C19.976 7.45378 19.976 7.43078 19.976 7.38478V0.806781C19.999 0.530781 19.769 0.300781 19.493 0.300781ZM18.964 7.33878C18.849 7.98278 18.09 8.48878 17.239 8.48878C16.388 8.48878 15.629 7.98278 15.514 7.31578V1.33578H18.964V7.33878ZM4.12903 9.50078C4.88803 9.40878 5.57803 9.06378 6.01503 8.55778C6.52103 9.15578 7.34903 9.54678 8.26903 9.54678C9.18903 9.54678 9.99403 9.15578 10.523 8.55778C11.029 9.15578 11.857 9.54678 12.777 9.54678C13.697 9.54678 14.502 9.15578 15.031 8.55778C15.468 9.06378 16.158 9.40878 16.917 9.50078V14.6068H4.12903V9.50078ZM14.479 7.31578C14.364 7.98278 13.605 8.48878 12.754 8.48878C11.903 8.48878 11.144 7.98278 11.029 7.31578V1.33578H14.479V7.31578ZM9.99403 7.31578C9.87903 7.98278 9.12003 8.48878 8.26903 8.48878C7.41803 8.48878 6.65903 7.98278 6.54403 7.31578V1.33578H9.99403V7.31578ZM2.03603 1.33578H5.48603V7.33878C5.37103 8.00578 4.61203 8.51178 3.76103 8.51178C2.91003 8.51178 2.15103 8.00578 2.03603 7.36178V1.33578ZM18.274 18.0108H2.74903V9.36278C2.86403 9.40878 2.97903 9.43178 3.09403 9.45478V15.1128C3.09403 15.3888 3.32403 15.6418 3.62303 15.6418H17.423C17.699 15.6418 17.952 15.4118 17.952 15.1128V9.45478C18.067 9.43178 18.182 9.40878 18.297 9.36278V18.0108H18.274Z" fill="#0083EB"/>
</svg>
