<svg width="62" height="62" viewBox="0 0 62 62" fill="none" xmlns="http://www.w3.org/2000/svg">
<g clip-path="url(#clip0)">
<path d="M23.5163 1.21615C23.5163 0.544456 22.9719 7.18634e-06 22.3002 7.2157e-06L14.0521 7.57624e-06C13.3804 7.6056e-06 12.8359 0.544456 12.8359 1.21615L12.8359 60.7839C12.8359 61.4556 13.3804 62 14.0521 62L22.3002 62C22.9719 62 23.5163 61.4556 23.5163 60.7839C23.5163 56.6326 26.8937 53.2552 31.0449 53.2552C35.1962 53.2552 38.5736 56.6326 38.5736 60.7839C38.5736 61.4556 39.118 62 39.7897 62L48.0378 62C48.7095 62 49.2539 61.4555 49.2539 60.7839L49.2539 49.971C49.2539 49.2993 48.7095 48.7549 48.0378 48.7549C47.3661 48.7549 46.8217 49.2993 46.8217 49.971L46.8217 59.5677L40.9321 59.5677C40.3304 54.6469 36.1257 50.823 31.0449 50.823C25.9642 50.823 21.7595 54.6469 21.1578 59.5677L15.2682 59.5677L15.2682 17.7984L17.7 17.7984C18.3717 17.7984 18.9162 17.254 18.9162 16.5823C18.9162 15.9106 18.3717 15.3661 17.7 15.3661L15.2682 15.3661L15.2682 2.43229L21.1578 2.43229C21.7595 7.35314 25.9642 11.1771 31.0449 11.1771C36.1257 11.1771 40.3304 7.35314 40.9321 2.43229L46.8217 2.43229L46.8217 15.3661L44.3894 15.3661C43.7177 15.3661 43.1737 15.9106 43.1737 16.5823C43.1737 17.254 43.7177 17.7984 44.3894 17.7984L46.8217 17.7984L46.8217 39.9851C46.8217 40.6568 47.3661 41.2012 48.0378 41.2012C48.7095 41.2012 49.2539 40.6568 49.2539 39.9851L49.2539 1.21615C49.2539 0.544455 48.7095 6.06131e-06 48.0378 6.09067e-06L39.7897 6.45121e-06C39.118 6.48057e-06 38.5736 0.544455 38.5736 1.21615C38.5736 5.36739 35.1962 8.74477 31.0449 8.74477C26.8937 8.74477 23.5163 5.36739 23.5163 1.21615Z" fill="#4358FF"/>
<path d="M36.7093 16.5822C36.7093 15.9105 36.1648 15.3661 35.4931 15.3661L26.5965 15.3661C25.9248 15.3661 25.3804 15.9105 25.3804 16.5822C25.3804 17.2539 25.9248 17.7983 26.5965 17.7983L35.4931 17.7983C36.1648 17.7983 36.7093 17.2539 36.7093 16.5822Z" fill="#4358FF"/>
<path d="M29.3208 36.1032C28.4192 35.2016 27.2201 34.705 25.9453 34.705C24.67 34.705 23.4709 35.2016 22.5693 36.1032C20.708 37.9646 20.708 40.9933 22.5693 42.8547C23.4709 43.7563 24.67 44.2529 25.9453 44.2529C27.2201 44.2529 28.4192 43.7563 29.3208 42.8547C30.2517 41.9238 30.7167 40.7015 30.7167 39.4787C30.7167 38.2564 30.2517 37.0337 29.3208 36.1032ZM25.9453 41.8206C25.3195 41.8206 24.7315 41.577 24.2893 41.1348C23.8328 40.6783 23.6043 40.0785 23.6043 39.4787C23.6043 38.8789 23.8328 38.2796 24.2893 37.8231C24.7315 37.3804 25.3195 37.1368 25.9453 37.1368C26.5706 37.1368 27.1586 37.3804 27.6009 37.8231C28.5143 38.7361 28.5143 40.2218 27.6009 41.1348C27.1586 41.577 26.5706 41.8206 25.9453 41.8206Z" fill="#4358FF"/>
<path d="M33.3533 31.941C35.2147 33.8029 38.2435 33.8029 40.1048 31.941C41.0357 31.0106 41.5012 29.7878 41.5012 28.5656C41.5012 27.3428 41.0357 26.1205 40.1048 25.1896C38.2435 23.3283 35.2147 23.3283 33.3533 25.1896C31.492 27.0514 31.4925 30.0802 33.3533 31.941ZM35.0733 26.9095C35.9862 25.9966 37.472 25.9966 38.3849 26.9095C39.2978 27.8224 39.2983 29.3082 38.3849 30.2211C37.472 31.1345 35.9862 31.1345 35.0733 30.2211C34.6168 29.7647 34.3883 29.1653 34.3883 28.5656C34.3883 27.9658 34.6168 27.366 35.0733 26.9095Z" fill="#4358FF"/>
<path d="M38.5796 39.5113L25.913 26.8447C25.4381 26.3703 24.668 26.3703 24.1931 26.8447C23.7182 27.3201 23.7182 28.0897 24.1931 28.5646L36.8597 41.2312C37.2991 41.6707 38.0243 41.7038 38.5006 41.3036C39.0394 40.8509 39.0772 40.0094 38.5796 39.5113Z" fill="#4358FF"/>
<path d="M46.8096 44.9998C46.8096 45.5069 47.1369 45.9709 47.6137 46.1431C48.0896 46.3153 48.6402 46.1658 48.9628 45.7746C49.2858 45.3825 49.3294 44.8187 49.072 44.3816C48.8152 43.945 48.2944 43.7094 47.7972 43.8059C47.232 43.9152 46.8096 44.4232 46.8096 44.9998Z" fill="#4358FF"/>
</g>
<defs>
<clipPath id="clip0">
<rect width="62" height="62" fill="white" transform="translate(0 62) rotate(-90)"/>
</clipPath>
</defs>
</svg>
