<svg width="30" height="31" viewBox="0 0 30 31" fill="none" xmlns="http://www.w3.org/2000/svg">
<g clip-path="url(#clip0)">
<path d="M15 30.7397C23.2843 30.7397 30 24.024 30 15.7397C30 7.45547 23.2843 0.739746 15 0.739746C6.71573 0.739746 0 7.45547 0 15.7397C0 24.024 6.71573 30.7397 15 30.7397Z" fill="#4CAF50"/>
<g clip-path="url(#clip1)">
<path d="M19.3183 17.0828C19.2832 17.066 17.971 16.4198 17.7378 16.3359C17.6426 16.3017 17.5406 16.2683 17.4321 16.2683C17.255 16.2683 17.1061 16.3566 16.9902 16.5301C16.8591 16.7249 16.4622 17.1888 16.3396 17.3273C16.3236 17.3456 16.3018 17.3675 16.2887 17.3675C16.2769 17.3675 16.0738 17.2839 16.0124 17.2572C14.6047 16.6457 13.5362 15.1752 13.3897 14.9273C13.3688 14.8916 13.3679 14.8754 13.3677 14.8754C13.3729 14.8565 13.4202 14.8091 13.4446 14.7846C13.5161 14.7139 13.5935 14.6207 13.6685 14.5305C13.7039 14.4878 13.7395 14.445 13.7743 14.4047C13.883 14.2782 13.9314 14.18 13.9875 14.0663L14.0169 14.0072C14.1539 13.7351 14.0369 13.5054 13.9991 13.4312C13.9681 13.3692 13.414 12.0319 13.3551 11.8914C13.2134 11.5524 13.0262 11.3945 12.7661 11.3945C12.742 11.3945 12.7661 11.3945 12.6649 11.3988C12.5416 11.404 11.8704 11.4924 11.5737 11.6794C11.259 11.8778 10.7266 12.5103 10.7266 13.6226C10.7266 14.6236 11.3618 15.5688 11.6346 15.9282C11.6413 15.9373 11.6538 15.9557 11.6719 15.9821C12.7164 17.5076 14.0185 18.6381 15.3385 19.1654C16.6093 19.673 17.2111 19.7317 17.5532 19.7317C17.5533 19.7317 17.5533 19.7317 17.5533 19.7317C17.6971 19.7317 17.8121 19.7204 17.9136 19.7104L17.978 19.7043C18.4171 19.6653 19.3818 19.1654 19.6013 18.5556C19.7741 18.0753 19.8197 17.5505 19.7047 17.36C19.6259 17.2305 19.4902 17.1653 19.3183 17.0828Z" fill="white"/>
<path d="M15.1598 6.73975C10.2848 6.73975 6.31873 10.676 6.31873 15.5143C6.31873 17.0792 6.73752 18.611 7.53086 19.9517L6.01238 24.4309C5.98409 24.5145 6.00513 24.6068 6.0669 24.6697C6.11149 24.7152 6.17198 24.7397 6.23375 24.7397C6.25742 24.7397 6.28127 24.7362 6.30453 24.7288L10.9752 23.2446C12.2533 23.9275 13.6979 24.2879 15.1598 24.2879C20.0343 24.288 24 20.3521 24 15.5143C24 10.676 20.0343 6.73975 15.1598 6.73975ZM15.1598 22.4602C13.7841 22.4602 12.4517 22.0629 11.3064 21.3114C11.2679 21.2861 11.2231 21.2731 11.1781 21.2731C11.1544 21.2731 11.1305 21.2767 11.1073 21.2841L8.7676 22.0278L9.5229 19.7995C9.54733 19.7274 9.53512 19.6479 9.49012 19.5864C8.61793 18.3946 8.15689 16.9866 8.15689 15.5143C8.15689 11.6839 11.2984 8.56756 15.1597 8.56756C19.0206 8.56756 22.1617 11.6839 22.1617 15.5143C22.1618 19.3443 19.0207 22.4602 15.1598 22.4602Z" fill="white"/>
</g>
</g>
<defs>
<clipPath id="clip0">
<rect width="30" height="30" fill="white" transform="translate(0 0.739746)"/>
</clipPath>
<clipPath id="clip1">
<rect width="18" height="18" fill="white" transform="translate(6 6.73975)"/>
</clipPath>
</defs>
</svg>
