<svg width="23" height="23" viewBox="0 0 23 23" fill="none" xmlns="http://www.w3.org/2000/svg">
<path d="M11.1652 6.94931C11.1652 7.12675 11.154 7.30419 11.1293 7.47939C11.1383 7.41874 11.145 7.36034 11.154 7.2997C11.1046 7.65009 11.0125 7.9915 10.8755 8.31943C10.8979 8.26552 10.9204 8.21161 10.9429 8.15771C10.8463 8.38456 10.7272 8.60243 10.5902 8.80907C10.5543 8.86298 10.5161 8.91464 10.4802 8.9663C10.3971 9.0831 10.579 8.84501 10.5049 8.93485C10.4869 8.95732 10.4689 8.97978 10.4487 9.00448C10.3701 9.09882 10.287 9.18866 10.2017 9.27626C10.1141 9.36386 10.0242 9.44472 9.92987 9.52333C9.90741 9.5413 9.88495 9.56151 9.86025 9.57948C9.7704 9.6536 9.99276 9.48066 9.90292 9.54579C9.85126 9.58398 9.7996 9.61991 9.74569 9.65585C9.53681 9.79735 9.31444 9.9164 9.0831 10.0152C9.137 9.99276 9.19091 9.9703 9.24482 9.94784C8.91913 10.0849 8.57773 10.1792 8.22509 10.2264C8.28573 10.2174 8.34413 10.2106 8.40478 10.2017C8.05214 10.2466 7.69726 10.2466 7.34462 10.2017C7.40526 10.2106 7.46366 10.2174 7.52431 10.2264C7.17392 10.1769 6.83251 10.0849 6.50458 9.94784C6.55849 9.9703 6.61239 9.99276 6.6663 10.0152C6.43944 9.91864 6.22157 9.7996 6.01493 9.66259C5.96102 9.62665 5.90936 9.58847 5.8577 9.55253C5.74091 9.46942 5.97899 9.65136 5.88915 9.57724C5.86669 9.55927 5.84423 9.5413 5.81952 9.52108C5.72518 9.44247 5.63534 9.35937 5.54774 9.27401C5.46014 9.18642 5.37929 9.09657 5.30067 9.00224C5.2827 8.97978 5.26249 8.95732 5.24452 8.93261C5.1704 8.84277 5.34335 9.06513 5.27821 8.97528C5.24003 8.92362 5.20409 8.87196 5.16815 8.81806C5.02665 8.60917 4.90761 8.38681 4.80878 8.15546C4.83124 8.20937 4.8537 8.26327 4.87616 8.31718C4.73915 7.9915 4.64481 7.65009 4.59764 7.29745C4.60663 7.3581 4.61337 7.4165 4.62235 7.47714C4.57743 7.1245 4.57743 6.76962 4.62235 6.41698C4.61337 6.47763 4.60663 6.53603 4.59764 6.59667C4.64706 6.24628 4.73915 5.90487 4.87616 5.57695C4.8537 5.63085 4.83124 5.68476 4.80878 5.73866C4.90536 5.51181 5.0244 5.29394 5.16141 5.0873C5.19735 5.03339 5.23554 4.98173 5.27147 4.93007C5.35458 4.81327 5.17264 5.05136 5.24677 4.96152C5.26473 4.93905 5.2827 4.91659 5.30292 4.89189C5.38153 4.79755 5.46464 4.70771 5.54999 4.62011C5.63534 4.53251 5.72743 4.45165 5.82177 4.37304C5.84423 4.35507 5.86669 4.33486 5.89139 4.31689C5.98124 4.24277 5.75888 4.41571 5.84872 4.35058C5.90038 4.31239 5.95204 4.27646 6.00595 4.24052C6.21483 4.09902 6.4372 3.97997 6.66854 3.88114C6.61464 3.90361 6.56073 3.92607 6.50683 3.94853C6.83251 3.81152 7.17392 3.71718 7.52655 3.67001C7.46591 3.679 7.40751 3.68573 7.34687 3.69472C7.6995 3.6498 8.05438 3.6498 8.40702 3.69472C8.34638 3.68573 8.28798 3.679 8.22733 3.67001C8.57772 3.71943 8.91913 3.81152 9.24706 3.94853C9.19316 3.92607 9.13925 3.90361 9.08534 3.88114C9.3122 3.97773 9.53007 4.09677 9.73671 4.23378C9.79062 4.26972 9.84228 4.3079 9.89394 4.34384C10.0107 4.42695 9.77265 4.24501 9.86249 4.31913C9.88495 4.3371 9.90741 4.35507 9.93212 4.37529C10.0265 4.4539 10.1163 4.537 10.2039 4.62236C10.2915 4.70995 10.3724 4.7998 10.451 4.89413C10.4689 4.91659 10.4892 4.93905 10.5071 4.96376C10.5812 5.05361 10.4083 4.83124 10.4734 4.92109C10.5116 4.97275 10.5476 5.02441 10.5835 5.07831C10.725 5.2872 10.844 5.50956 10.9429 5.74091C10.9204 5.687 10.8979 5.6331 10.8755 5.57919C11.0125 5.90487 11.1068 6.24628 11.154 6.59892C11.145 6.53827 11.1383 6.47987 11.1293 6.41923C11.154 6.59443 11.1652 6.77187 11.1652 6.94931C11.1675 7.30194 11.4752 7.63886 11.8391 7.62314C12.2029 7.60741 12.5151 7.32665 12.5129 6.94931C12.5084 6.01269 12.2276 5.06259 11.6796 4.30116C11.1091 3.50829 10.3432 2.91982 9.4245 2.58066C7.65233 1.92929 5.52753 2.50429 4.33261 3.9665C3.7037 4.73691 3.33085 5.64433 3.25223 6.6371C3.17811 7.57148 3.41844 8.54179 3.9036 9.3414C4.37303 10.1141 5.07831 10.7699 5.90487 11.145C6.83026 11.5628 7.82978 11.6841 8.82704 11.4887C10.6441 11.1293 12.1602 9.57275 12.441 7.73769C12.4814 7.47714 12.5106 7.21659 12.5106 6.95155C12.5129 6.59892 12.2007 6.262 11.8368 6.27773C11.4729 6.2912 11.1675 6.56972 11.1652 6.94931Z" fill="#0083EB"/>
<path d="M19.1234 8.19471C19.1234 8.32947 19.1144 8.46424 19.0964 8.599C19.1054 8.53836 19.1122 8.47996 19.1211 8.41932C19.0852 8.67986 19.0156 8.93143 18.9122 9.174C18.9347 9.1201 18.9572 9.06619 18.9796 9.01228C18.9078 9.18074 18.8224 9.34021 18.7191 9.49295C18.6921 9.53338 18.6629 9.57381 18.6337 9.61424C18.618 9.63445 18.5708 9.69734 18.6427 9.60525C18.7168 9.50867 18.6584 9.58279 18.6405 9.60525C18.5821 9.67713 18.5192 9.74451 18.454 9.81189C18.3912 9.87478 18.326 9.93318 18.2586 9.98934C18.2519 9.99607 18.2115 10.0387 18.2025 10.0365C18.2025 10.0365 18.344 9.93094 18.2699 9.98484C18.2294 10.014 18.1913 10.0432 18.1508 10.0702C17.9958 10.1758 17.8296 10.2634 17.6589 10.3375C17.7128 10.315 17.7667 10.2926 17.8206 10.2701C17.5781 10.3712 17.3265 10.4408 17.066 10.479C17.1266 10.47 17.185 10.4633 17.2456 10.4543C16.9761 10.4902 16.7066 10.4902 16.4371 10.4543C16.4977 10.4633 16.5561 10.47 16.6167 10.479C16.3562 10.443 16.1046 10.3734 15.8621 10.2701C15.916 10.2926 15.9699 10.315 16.0238 10.3375C15.8553 10.2656 15.6958 10.1803 15.5431 10.0769C15.5027 10.05 15.4622 10.0208 15.4218 9.99158C15.4016 9.97586 15.3387 9.92869 15.4308 10.0006C15.5274 10.0747 15.4533 10.0163 15.4308 9.99832C15.3589 9.93992 15.2915 9.87703 15.2242 9.81189C15.1613 9.749 15.1029 9.68387 15.0467 9.61648C15.04 9.60975 14.9973 9.56932 14.9996 9.56033C14.9996 9.56033 15.1051 9.70184 15.0512 9.62771C15.022 9.58729 14.9928 9.5491 14.9659 9.50867C14.8603 9.35369 14.7727 9.18748 14.6986 9.01678C14.721 9.07068 14.7435 9.12459 14.766 9.1785C14.6649 8.93592 14.5953 8.68436 14.5571 8.42381C14.5661 8.48445 14.5728 8.54285 14.5818 8.6035C14.5458 8.33396 14.5458 8.06443 14.5818 7.7949C14.5728 7.85555 14.5661 7.91394 14.5571 7.97459C14.593 7.71404 14.6626 7.46248 14.766 7.2199C14.7435 7.27381 14.721 7.32771 14.6986 7.38162C14.7705 7.21316 14.8558 7.05369 14.9591 6.90096C14.9861 6.86053 15.0153 6.8201 15.0445 6.77967C15.0602 6.75945 15.1074 6.69656 15.0355 6.78865C14.9614 6.88523 15.0198 6.81111 15.0377 6.78865C15.0961 6.71678 15.159 6.64939 15.2242 6.58201C15.2871 6.51912 15.3522 6.46072 15.4196 6.40457C15.4263 6.39783 15.4667 6.35516 15.4757 6.3574C15.4757 6.3574 15.3342 6.46297 15.4083 6.40906C15.4488 6.37986 15.487 6.35066 15.5274 6.32371C15.6824 6.21814 15.8486 6.13055 16.0193 6.05643C15.9654 6.07889 15.9115 6.10135 15.8576 6.12381C16.1001 6.02273 16.3517 5.9531 16.6122 5.91492C16.5516 5.92391 16.4932 5.93064 16.4326 5.93963C16.7021 5.90369 16.9716 5.90369 17.2412 5.93963C17.1805 5.93064 17.1221 5.92391 17.0615 5.91492C17.322 5.95086 17.5736 6.02049 17.8162 6.12381C17.7622 6.10135 17.7083 6.07889 17.6544 6.05643C17.8229 6.1283 17.9824 6.21365 18.1351 6.31697C18.1755 6.34392 18.216 6.37312 18.2564 6.40232C18.2766 6.41805 18.3395 6.46521 18.2474 6.39334C18.1508 6.31922 18.2249 6.37762 18.2474 6.39559C18.3193 6.45398 18.3867 6.51687 18.454 6.58201C18.5169 6.6449 18.5753 6.71004 18.6315 6.77742C18.6382 6.78416 18.6809 6.82459 18.6787 6.83357C18.6787 6.83357 18.5731 6.69207 18.627 6.76619C18.6562 6.80662 18.6854 6.8448 18.7123 6.88523C18.8179 7.04021 18.9055 7.20643 18.9796 7.37713C18.9572 7.32322 18.9347 7.26932 18.9122 7.21541C19.0133 7.45799 19.083 7.70955 19.1211 7.9701C19.1122 7.90945 19.1054 7.85105 19.0964 7.79041C19.1144 7.92517 19.1234 8.05994 19.1234 8.19471C19.1256 8.54734 19.4311 8.88426 19.7972 8.86853C20.1611 8.85281 20.4733 8.57205 20.471 8.19471C20.4665 7.46922 20.2509 6.72352 19.8264 6.13055C19.3727 5.49939 18.7707 5.03445 18.0385 4.76717C16.6662 4.26404 15.0018 4.71326 14.0764 5.84305C13.5778 6.45174 13.2858 7.15701 13.2206 7.94314C13.16 8.67088 13.3487 9.43455 13.726 10.0612C14.0899 10.6654 14.6424 11.1843 15.2893 11.474C16.026 11.8064 16.8122 11.903 17.605 11.7435C19.0111 11.4605 20.197 10.2454 20.4149 8.82361C20.4463 8.61473 20.471 8.40584 20.4733 8.19471C20.4755 7.84207 20.1611 7.50516 19.7995 7.52088C19.4311 7.5366 19.1256 7.81736 19.1234 8.19471Z" fill="#0083EB"/>
<path d="M13.9819 17.4628C13.9819 17.748 13.9819 18.0333 13.9819 18.3163C13.9819 18.6083 14.0066 18.9138 13.9729 19.2058C13.9819 19.1451 13.9886 19.0867 13.9976 19.0261C13.9864 19.1069 13.9662 19.1833 13.9347 19.2574C13.9572 19.2035 13.9797 19.1496 14.0021 19.0957C13.9774 19.1496 13.9482 19.2013 13.919 19.2507C13.8674 19.3405 14.0178 19.1429 13.9639 19.1968C13.9437 19.217 13.9257 19.2417 13.9055 19.2619C13.8876 19.2799 13.8696 19.2956 13.8516 19.3113C13.7708 19.3877 13.9931 19.2215 13.8943 19.2754C13.8426 19.3046 13.7932 19.3338 13.7393 19.3585C13.7932 19.336 13.8471 19.3136 13.901 19.2911C13.8247 19.3203 13.7506 19.3405 13.6697 19.354C13.7303 19.345 13.7887 19.3383 13.8494 19.3293C13.7146 19.345 13.5754 19.3383 13.4383 19.3383C13.1576 19.3383 12.8768 19.3383 12.5983 19.3383C11.6617 19.3383 10.7273 19.3383 9.79069 19.3383C8.65417 19.3383 7.5154 19.3383 6.37887 19.3383C5.39958 19.3383 4.41804 19.3383 3.43874 19.3383C2.9738 19.3383 2.5111 19.3428 2.04616 19.3383C2.00124 19.3383 1.95407 19.336 1.90915 19.3293C1.96979 19.3383 2.02819 19.345 2.08884 19.354C2.00798 19.3428 1.93161 19.3226 1.85749 19.2911C1.91139 19.3136 1.9653 19.336 2.01921 19.3585C1.9653 19.3338 1.91364 19.3046 1.86423 19.2754C1.77438 19.2237 1.97204 19.3742 1.91813 19.3203C1.89792 19.3001 1.87321 19.2821 1.853 19.2619C1.83503 19.2439 1.8193 19.226 1.80358 19.208C1.72721 19.1271 1.89343 19.3495 1.83952 19.2507C1.81032 19.199 1.78112 19.1496 1.75641 19.0957C1.77887 19.1496 1.80134 19.2035 1.8238 19.2574C1.7946 19.1811 1.77438 19.1047 1.76091 19.0261C1.76989 19.0867 1.77663 19.1451 1.78561 19.2058C1.75192 18.9497 1.77438 18.6824 1.77438 18.4264C1.77438 18.1187 1.77438 17.8109 1.77438 17.5032C1.77438 17.2898 1.78561 17.0787 1.81257 16.8676C1.80358 16.9282 1.79684 16.9866 1.78786 17.0473C1.84177 16.6452 1.94733 16.2544 2.10456 15.8815C2.0821 15.9354 2.05964 15.9894 2.03718 16.0433C2.14948 15.7805 2.28649 15.5267 2.44596 15.2886C2.48415 15.2324 2.52458 15.1763 2.56501 15.1201C2.66384 14.9876 2.47966 15.2257 2.54928 15.1403C2.57399 15.1089 2.5987 15.0797 2.62341 15.0482C2.711 14.9427 2.80309 14.8416 2.90192 14.745C2.9985 14.6484 3.09958 14.5563 3.20514 14.4665C3.23434 14.4418 3.26579 14.4171 3.29723 14.3924C3.38932 14.3183 3.15124 14.5002 3.26579 14.4171C3.32643 14.3744 3.38483 14.3295 3.44548 14.2891C3.68356 14.1296 3.93512 13.9926 4.20016 13.8803C4.14626 13.9027 4.09235 13.9252 4.03845 13.9477C4.4113 13.7904 4.80212 13.6849 5.20417 13.631C5.14352 13.6399 5.08512 13.6467 5.02448 13.6557C5.32096 13.6175 5.6152 13.6175 5.91169 13.6175C6.28454 13.6175 6.65739 13.6175 7.03249 13.6175C7.92194 13.6175 8.81139 13.6175 9.70085 13.6175C10.0512 13.6175 10.4016 13.613 10.752 13.6579C10.6914 13.6489 10.633 13.6422 10.5723 13.6332C10.9676 13.6894 11.3517 13.7949 11.7201 13.9477C11.6662 13.9252 11.6123 13.9027 11.5584 13.8803C11.8391 13.9993 12.1064 14.1453 12.3557 14.3183C12.4164 14.3587 12.4725 14.4036 12.5309 14.4463C12.3423 14.3093 12.5309 14.4485 12.5781 14.4867C12.6837 14.5766 12.787 14.6709 12.8836 14.772C12.9801 14.8708 13.0745 14.9764 13.1621 15.0842C13.1823 15.1089 13.2048 15.1358 13.225 15.1628C13.2025 15.1358 13.1823 15.1066 13.1598 15.0797C13.1733 15.0977 13.1868 15.1156 13.2003 15.1336C13.2407 15.1875 13.2789 15.2437 13.3148 15.2976C13.4698 15.5312 13.6046 15.7805 13.7146 16.0388C13.6922 15.9849 13.6697 15.931 13.6472 15.8771C13.8022 16.2477 13.91 16.6362 13.9639 17.036C13.9549 16.9754 13.9482 16.917 13.9392 16.8563C13.9684 17.0585 13.9819 17.2606 13.9819 17.4628C13.9841 17.8154 14.2919 18.1523 14.6557 18.1366C15.0196 18.1209 15.3318 17.8401 15.3296 17.4628C15.3273 16.8811 15.2352 16.2903 15.0353 15.7423C14.8264 15.1695 14.5367 14.6619 14.1593 14.1835C13.4406 13.2738 12.3625 12.618 11.2282 12.3844C10.6801 12.2721 10.1388 12.2676 9.58405 12.2676C8.97311 12.2676 8.36442 12.2676 7.75348 12.2676C7.17399 12.2676 6.59225 12.2676 6.01276 12.2676C5.45798 12.2676 4.90768 12.2878 4.36413 12.4203C2.41452 12.8987 0.822039 14.5766 0.507586 16.5688C0.404266 17.218 0.426727 17.8693 0.426727 18.5252C0.426727 18.7408 0.41325 18.9609 0.431219 19.1766C0.489617 19.8639 0.968035 20.5062 1.66882 20.6455C1.91813 20.6949 2.15846 20.6882 2.40778 20.6882C2.78063 20.6882 3.15573 20.6882 3.52858 20.6882C4.72126 20.6882 5.91169 20.6882 7.10436 20.6882C8.41384 20.6882 9.72331 20.6882 11.0328 20.6882C11.8593 20.6882 12.6882 20.6882 13.5147 20.6882C13.5799 20.6882 13.645 20.6882 13.7101 20.6882C14.1481 20.6859 14.5928 20.513 14.8893 20.1873C15.1499 19.902 15.2914 19.5606 15.3251 19.1766C15.3318 19.1002 15.3296 19.0238 15.3296 18.9452C15.3296 18.6442 15.3296 18.3433 15.3296 18.0423C15.3296 17.8491 15.3296 17.656 15.3296 17.4628C15.3296 17.1102 15.0196 16.7732 14.6557 16.789C14.2919 16.8047 13.9819 17.0832 13.9819 17.4628Z" fill="#0083EB"/>
<path d="M21.2255 16.2825C21.2255 16.5431 21.2255 16.8036 21.2255 17.0642C21.2255 17.327 21.2435 17.5987 21.2211 17.8615C21.23 17.8009 21.2368 17.7425 21.2458 17.6818C21.239 17.7312 21.2278 17.7784 21.2098 17.8256C21.2323 17.7717 21.2547 17.7178 21.2772 17.6639C21.266 17.6908 21.2503 17.7155 21.239 17.7425C21.1896 17.8436 21.3603 17.61 21.2637 17.7088C21.1716 17.8009 21.3693 17.6526 21.3109 17.6751C21.2795 17.6863 21.2525 17.7088 21.2211 17.7223C21.275 17.6998 21.3289 17.6773 21.3828 17.6549C21.3356 17.6728 21.2884 17.6841 21.239 17.6908C21.2997 17.6818 21.3581 17.6751 21.4187 17.6661C21.1851 17.6863 20.9448 17.6706 20.7112 17.6706C20.1766 17.6706 19.6443 17.6706 19.1097 17.6706C17.9036 17.6706 16.6997 17.6706 15.4935 17.6706C15.215 17.6706 14.9365 17.6706 14.6557 17.6706C14.8803 17.8952 15.1049 18.1198 15.3296 18.3444C15.3296 17.8975 15.352 17.4437 15.3071 16.999C15.215 16.0871 14.9118 15.1977 14.366 14.4542C14.0336 14.0005 13.6585 13.6254 13.2137 13.284C13.2587 13.6366 13.3036 13.9893 13.3507 14.3419C13.3867 14.3104 13.4226 14.2812 13.4586 14.2521C13.5596 14.1667 13.326 14.3464 13.4338 14.2723C13.5012 14.2251 13.5686 14.1779 13.6382 14.133C13.7797 14.0454 13.928 13.969 14.0807 13.9039C14.0268 13.9264 13.9729 13.9488 13.919 13.9713C14.1773 13.8635 14.4468 13.7894 14.7231 13.7489C14.6625 13.7579 14.6041 13.7646 14.5434 13.7736C14.7837 13.7422 15.0218 13.7422 15.2644 13.7422C15.5766 13.7422 15.8888 13.7422 16.201 13.7422C16.9175 13.7422 17.6318 13.7422 18.3483 13.7422C18.6066 13.7422 18.8627 13.7377 19.121 13.7714C19.0603 13.7624 19.0019 13.7557 18.9413 13.7467C19.222 13.7871 19.4938 13.8612 19.7566 13.969C19.7027 13.9466 19.6488 13.9241 19.5949 13.9017C19.7813 13.9825 19.961 14.0769 20.1295 14.1892C20.1699 14.2161 20.2103 14.2453 20.2507 14.2745C20.3473 14.3441 20.2081 14.2318 20.1968 14.2318C20.2081 14.2318 20.244 14.27 20.253 14.279C20.3316 14.3441 20.408 14.4138 20.4821 14.4856C20.5517 14.5553 20.6169 14.6271 20.6797 14.7035C20.6955 14.7215 20.7112 14.7417 20.7269 14.7597C20.7763 14.8203 20.6236 14.6204 20.6842 14.7058C20.7134 14.7462 20.7426 14.7844 20.7696 14.8248C20.8864 14.9978 20.9852 15.1797 21.0661 15.3706C21.0436 15.3167 21.0212 15.2628 20.9987 15.2089C21.1088 15.4694 21.1829 15.7435 21.2211 16.0242C21.2121 15.9636 21.2053 15.9052 21.1963 15.8445C21.2166 15.9905 21.2255 16.1365 21.2255 16.2825C21.2278 16.6352 21.5333 16.9721 21.8994 16.9563C22.2632 16.9406 22.5754 16.6599 22.5732 16.2825C22.5687 15.1774 22.088 14.0724 21.239 13.3536C20.5046 12.7292 19.5994 12.3945 18.6336 12.3945C17.506 12.3945 16.3785 12.3945 15.2532 12.3945C14.9545 12.3945 14.6625 12.4058 14.366 12.4507C13.6293 12.5585 12.9554 12.9066 12.3962 13.3918C12.2367 13.5311 12.185 13.7579 12.2097 13.9578C12.2412 14.1824 12.3557 14.3149 12.5309 14.4497C12.5197 14.4407 12.4051 14.3486 12.4748 14.407C12.4927 14.4205 12.5085 14.434 12.5264 14.4497C12.5646 14.4812 12.6028 14.5148 12.641 14.5463C12.7129 14.6092 12.7802 14.6743 12.8476 14.7395C12.915 14.8068 12.9801 14.8742 13.043 14.9461C13.1014 15.0135 13.1576 15.1078 13.225 15.164C13.2137 15.155 13.1284 15.0337 13.18 15.1078C13.1935 15.1258 13.207 15.1437 13.2205 15.1617C13.2474 15.1977 13.2721 15.2336 13.2968 15.2718C13.3507 15.3504 13.4002 15.4312 13.4496 15.5121C13.5506 15.6828 13.6382 15.858 13.7146 16.0399C13.6921 15.986 13.6697 15.9321 13.6472 15.8782C13.8022 16.2488 13.91 16.6374 13.9639 17.0372C13.9549 16.9766 13.9482 16.9182 13.9392 16.8575C14.0021 17.3472 13.9796 17.848 13.9796 18.3422C13.9796 18.7061 14.2874 19.016 14.6535 19.016C15.0129 19.016 15.3745 19.016 15.7338 19.016C16.5245 19.016 17.3151 19.016 18.1035 19.016C18.8739 19.016 19.6421 19.016 20.4125 19.016C20.6528 19.016 20.8931 19.016 21.1335 19.016C21.3693 19.016 21.5917 19.0138 21.8163 18.9172C22.2745 18.724 22.5575 18.2928 22.5687 17.7964C22.571 17.6863 22.5687 17.574 22.5687 17.4617C22.5687 17.0934 22.5687 16.725 22.5687 16.3566C22.5687 16.3297 22.5687 16.305 22.5687 16.278C22.5687 15.9254 22.2587 15.5885 21.8949 15.6042C21.5355 15.6244 21.2255 15.9052 21.2255 16.2825Z" fill="#0083EB"/>
</svg>
