<svg width="50" height="50" viewBox="0 0 50 50" fill="none" xmlns="http://www.w3.org/2000/svg">
<path d="M44.9167 30.6954V12.4834L23.2947 0L1.67285 12.4834V37.4502L23.2947 49.9336L29.0467 46.6127C31.0896 48.7013 33.9371 50 37.0825 50C43.2832 50 48.3279 44.9553 48.3279 38.7546C48.3279 35.5971 47.0193 32.7399 44.9167 30.6954ZM23.2947 3.3873L40.5163 13.3302L33.3724 17.4548L16.1508 7.51191L23.2947 3.3873ZM21.8279 45.6993L4.60645 35.7564V15.8708L21.8279 25.8137V45.6993ZM6.07324 13.3302L13.2172 9.20557L30.4388 19.1484L23.2947 23.273L6.07324 13.3302ZM24.7615 45.6993V25.8136L41.983 15.8707V28.6345C40.501 27.9139 38.8382 27.5093 37.0825 27.5093C30.8818 27.5093 25.8371 32.554 25.8371 38.7547C25.8371 40.7489 26.3596 42.6232 27.2738 44.2489L24.7615 45.6993ZM37.0825 47.0664C32.4994 47.0664 28.7707 43.3377 28.7707 38.7546C28.7707 34.1715 32.4994 30.4428 37.0825 30.4428C41.6656 30.4428 45.3943 34.1715 45.3943 38.7546C45.3943 43.3377 41.6657 47.0664 37.0825 47.0664Z" fill="#4358FF"/>
<path d="M40.5554 34.4934L35.7523 39.323L33.6009 37.1933L31.5371 39.2781L35.7686 43.4668L42.6355 36.562L40.5554 34.4934Z" fill="#4358FF"/>
</svg>
