<svg width="31" height="31" viewBox="0 0 31 31" fill="none" xmlns="http://www.w3.org/2000/svg">
<g clip-path="url(#clip0)">
<path d="M15.75 30.7397C24.0343 30.7397 30.75 24.024 30.75 15.7397C30.75 7.45547 24.0343 0.739746 15.75 0.739746C7.46573 0.739746 0.75 7.45547 0.75 15.7397C0.75 24.024 7.46573 30.7397 15.75 30.7397Z" fill="#3B5998"/>
<path d="M19.5218 16.327H16.8452V26.1327H12.79V16.327H10.8613V12.8808H12.79V10.6508C12.79 9.05611 13.5475 6.55896 16.8813 6.55896L19.8852 6.57153V9.91657H17.7057C17.3482 9.91657 16.8455 10.0952 16.8455 10.8559V12.8841H19.8761L19.5218 16.327Z" fill="white"/>
</g>
<defs>
<clipPath id="clip0">
<rect width="30" height="30" fill="white" transform="translate(0.75 0.739746)"/>
</clipPath>
</defs>
</svg>
