<?xml version="1.0" encoding="utf-8"?>
<!-- Generator: Adobe Illustrator 27.5.0, SVG Export Plug-In . SVG Version: 6.00 Build 0)  -->
<svg version="1.1" xmlns="http://www.w3.org/2000/svg" xmlns:xlink="http://www.w3.org/1999/xlink" x="0px" y="0px"
	 viewBox="0 0 1100 800" style="enable-background:new 0 0 1100 800;" xml:space="preserve">
<g id="Background">
	<rect style="fill:#FFFFFF;" width="1100" height="800"/>
</g>
<g id="Shadow">
	<g style="opacity:0.5;">
		<path style="fill:#EED5D5;" d="M521.964,644.118c-28.193,0.084-56.385,0.762-84.528,3.892c-10.611,1.18-21,3.776-31.635,4.823
			c-21.244,2.092-42.107,5.993-63.426,7.793c-17.168,1.449-34.408,2.305-51.526,4.143c-16.049,1.724-33.816,1.326-49.742-1.522
			c-11.79-2.109-23.633-3.296-35.225-6.682c-12.967-3.789-27.055-6.498-40.565-6.4c-19.266,0.139-38.028,0.155-56.466,6.845
			c-6.472,2.348-14.395,6.209-19.31,11.137c-11.251,11.282-12.774,39.432-1.54,51.133c18.921,19.693,59.305,27.42,85.827,27.785
			c29.063,0.4,57.296-1.758,86.401-3.026c27.045-1.179,54.023-2.856,81.113-2.797c55.328,0.121,110.664,0,165.893-3.696
			c51.888-3.472,103.907-2.28,155.909-2.28c53.326,0,106.291,0.419,159.233,7.506c23.067,3.088,46.568,4.169,69.75,6.332
			c20.762,1.938,40.714-0.038,61.394-1.829c17.365-1.504,34.616-5.964,50.391-13.503c12.487-5.968,34.749-24.507,38.579-38.752
			c10.736-39.935-151.3-38.975-176.179-38.885c-27.831,0.101-55.884,1.016-83.693-0.045c-11.698-0.446-23.224-2.733-34.641-5.238
			c-11.372-2.495-22.83-1.861-34.362-2.91c-48.092-4.374-96.291-3.734-144.536-3.734
			C553.379,644.209,537.671,644.071,521.964,644.118z"/>
	</g>
</g>
<g id="Object">
	<g>
		<g>
			<g>
				<polygon style="fill:#8CABEF;" points="870.126,513.283 873.265,586.087 864.064,709.878 850.295,710.856 833.566,598.424 
					810.424,503.285 				"/>
				<polygon style="fill:#262B33;" points="850.787,716.656 866.205,723.043 873.121,715.07 865.147,708.154 850.258,709.212 				
					"/>
			</g>
			<g>
				<polygon style="fill:#8CABEF;" points="772.659,487.52 769.637,542.551 778.602,706.18 792.389,706.869 813.051,599.55 
					831.275,481.861 				"/>
				<polygon style="fill:#262B33;" points="792.019,712.679 776.738,719.388 769.656,711.561 777.483,704.479 792.391,705.224 				
					"/>
			</g>
			<g>
				<path style="fill:#3B3387;" d="M852.818,325.403l-43.021-4.609c0,0-23.933,2.557-40.172,59.394
					c-9.035,31.621-11.785,81.442-12.447,119.424c1.016,5.418,6.919,29.151,31.879,25.125c42.863-6.913,65.677-13.827,84.343-10.37
					c15.9,3.457,14.556-18.435,12.808-35.142l-6.336-51.692L852.818,325.403z"/>
			</g>
			<g>
				<path style="fill:#AA6755;" d="M844.51,271.853c-10.844-2.39-22.004-4.532-32.859-2.383c-2.378,0.471-4.929,1.298-6.219,3.35
					c-0.5,0.795-0.764,1.712-1.008,2.619c-2.739,10.182-6.214,25.276,0.489,34.658c1.278,1.789,2.995,3.209,4.84,4.362
					c2.466,1.541,5.197,2.59,8.021,3.147c-0.584,2.531-1.397,5.01-2.428,7.395c2.482,3.743,14.062,4.192,16.203,0.603
					c0.12-3.105,0.24-6.21,0.36-9.315c1.41-0.569,2.771-1.262,4.05-2.104c4.949-3.26,8.21-8.206,10.104-13.74
					c2.062-6.026,4.964-11.753,6.848-17.895c0.686-2.237,1.228-4.791,0.051-6.813c-1.253-2.153-3.957-2.886-6.389-3.428
					C845.887,272.157,845.199,272.004,844.51,271.853z"/>
				<path style="fill:#4F4B47;" d="M808.419,277.674c5.359-3.447,13.4-4.931,18.44-4.565c15.236,1.104,20.817,12.293,21.631,26.301
					c4.198-5.335,12.074-12.045,12.55-18.909c0.389-5.619-0.388-13.281-3.536-18.133c-2.946-4.54-10.477-7.034-14.956-9.665
					c-4.222-2.48-8.444-4.96-12.667-7.44c-0.878-0.516-1.781-1.041-2.784-1.215c-1.187-0.206-2.396,0.098-3.562,0.399
					c-9.979,2.579-19.958,5.158-29.937,7.737c-1.917,0.495-4.101,1.219-4.807,3.069c-0.43,1.125-0.177,2.382,0.08,3.559
					c1.133,5.181,3.308,10.475,3.846,15.723c0.609,3.049,2.427,18.675,7.826,16.872c1.585-2.592,1.823-5.785,3.057-8.56
					C804.512,280.793,806.245,279.072,808.419,277.674z"/>
			</g>
			<polygon style="fill:#A9B4B9;" points="809.798,320.794 793.897,325.633 735.825,386.47 732.368,406.519 760.13,452.357 
				767.626,435.555 755.873,401.68 774.54,388.544 799.428,332.547 			"/>
		</g>
		<g>
			<path style="fill:#FFFFFF;" d="M882.051,303.747c-1.06-0.531-2.131-1.05-3.212-1.557c10.785-15.659,16.625-34.884,16.625-55.257
				c0-49.142-34.658-89.121-77.258-89.121c-42.6,0-77.258,39.98-77.258,89.121c0,20.385,5.838,39.607,16.623,55.262
				c-1.675,0.766-2.79,1.33-3.278,1.583c-45.277,20.786-74.52,66.202-74.52,115.768v30.887c0,13.296,10.817,24.113,24.113,24.113
				h228.639c13.296,0,24.113-10.817,24.113-24.113v-30.887C956.639,369.956,927.366,324.519,882.051,303.747z"/>
			<g>
				<path style="fill:#5D66D3;" d="M878.44,311.278c-0.415,0.508-0.816,1.028-1.242,1.528
					c-15.621,18.31-36.571,28.394-58.992,28.394c-22.421,0-43.371-10.084-58.992-28.394c-0.426-0.499-0.827-1.019-1.242-1.528
					c-41.104,18.781-69.848,60.33-69.848,108.268v30.887c0,8.705,7.057,15.762,15.762,15.762h228.639
					c8.705,0,15.762-7.057,15.762-15.762v-30.887C948.288,371.608,919.543,330.059,878.44,311.278z"/>
				<path style="fill:#5D66D3;" d="M818.206,327.704c18.104,0,34.567-8.195,46.864-21.578c13.553-14.75,22.043-35.805,22.043-59.193
					c0-44.608-30.85-80.771-68.906-80.771c-38.056,0-68.907,36.162-68.907,80.771c0,23.388,8.49,44.443,22.043,59.193
					C783.639,319.509,800.103,327.704,818.206,327.704z"/>
			</g>
		</g>
		<polygon style="fill:#AA6755;" points="692.984,364.212 701.525,359.343 709.284,373.45 701.134,387.934 688.124,381.913 		"/>
		<polygon style="fill:#AA6755;" points="943.428,357.582 934.887,352.714 927.128,366.82 935.278,381.305 948.288,375.284 		"/>
	</g>
	<g>
		<g>
			<g>
				<g>
					<polygon style="fill:#474EBB;" points="307.553,519.147 247.739,497.15 260.068,601.933 252.924,692.333 252.732,692.935 
						252.876,692.951 252.86,693.148 264.659,694.273 264.662,694.262 265.1,694.31 291.445,613.769 305.391,527.976 
						305.391,527.976 					"/>
					<polygon style="fill:#292949;" points="264.045,698.393 251.808,698.084 248.683,708.409 248.992,708.501 248.914,708.509 
						269.144,720.497 278.764,721.567 279.986,710.573 277.387,708.669 					"/>
				</g>
				<g>
					<polygon style="fill:#474EBB;" points="348.296,520.947 330.345,700.354 318.505,700.892 306.611,604.019 285.992,507.542 
											"/>
					<polygon style="fill:#292949;" points="330.315,704.519 345.996,713.411 344.527,720.811 316.506,716.587 318.155,705.926 
											"/>
				</g>
				<g>
					<g>
						<path style="fill:#D67086;" d="M376.339,566.003c3.785-2.628,3.866-7.204,3.859-11.787c-0.012-8.606-1.56-17.403-3.533-25.766
							c-3.756-15.689-8.014-34.585-9.886-54.914c-4.839-52.541-21.431-87.799-21.431-87.799l-5.354-14.277
							c-1.064-1.857-2.168-3.692-3.321-5.501c-6.687-10.493-18.297-28.325-30.714-31.244c-0.259-0.061-0.52-0.121-0.783-0.178
							c-13.055-2.865-29.784-1.536-41.583,4.811c-2.238,1.204-4.229,2.809-6.206,4.403c-5.769,4.654-10.474,7.174-12.961,14.265
							c-2.16,6.157-2.662,12.876-3.852,19.257c-2.419,12.964-3.862,26.083-5.794,39.123c-3.622,24.452-6.698,48.984-10.573,73.399
							c-1.994,12.565-4.003,25.153-4.945,37.85c-0.833,11.226-10.96,22.625-16.652,32.685c-1.98,3.501,26.462,12.573,29.01,13.166
							c11.798,2.746,24.348,2.045,36.511,2.1c26.653,0.121,53.31-0.701,79.904-2.464c8.838-0.586,19.728-2.273,27.57-6.673
							C375.865,566.315,376.109,566.163,376.339,566.003z"/>
					</g>
					<path style="fill:#D67086;" d="M290.536,333.101c0,0-15.013-4.053-17.087,29.822s-5.531,119.601-10.37,143.106
						c-4.839,23.505-12.098,69.61-12.098,69.61l45.974,1.598l52.541-4.148c0,0-17.975-33.184-20.74-56.689
						c-2.765-23.505,2.074-111.996-9.679-145.18C307.324,338.035,304.858,333.697,290.536,333.101z"/>
					<g>
						<polygon style="fill:#826656;" points="358.483,408.551 361.94,412.699 374.384,395.416 324.608,340.109 305.942,334.578 
							314.929,358.775 						"/>
					</g>
					<polygon style="fill:#EAC1A4;" points="316.88,394.24 305.956,385.914 309.311,381.09 318.054,385.135 318.582,382.117 
						327.062,390.38 324.252,395.866 					"/>
					<g>
						<polygon style="fill:#826656;" points="359.672,392.112 359.182,393.187 325.129,386.62 320.108,397.789 361.94,412.699 
													"/>
					</g>
				</g>
				<g>
					<g>
						<path style="fill:#3B3631;" d="M311.476,306.262c2.272,6.821-1.016,14.094-3.902,20.31c-2.559,5.512-3.449,9.14,3.048,10.627
							c3.661,0.838,10.157,2.402,13.368-0.401c2.431-2.124,1.064-8.681-0.118-11.286c-0.903-1.989-3.294-3-4.144-5.012
							c-0.35-0.829-0.401-1.751-0.413-2.652c-0.051-3.677,0.458-7.362,1.503-10.888c0.71-2.394,1.672-4.746,1.886-7.234
							c0.311-3.608-2.24-7.812-3.581-11.127c-2.494-6.167-11.176-14.44-18.445-9.599c-1.655,1.102-2.619,2.966-3.425,4.784
							c-0.481,1.086-0.939,2.219-0.953,3.406c-0.056,4.735,4.268,5.534,7.253,7.788
							C307.235,297.758,310.026,301.909,311.476,306.262z"/>
						<path style="fill:#D5C6AB;" d="M297.65,332.878c6.305-1.485,11.235-6.78,13.604-12.809c2.369-6.029,2.493-12.715,1.837-19.159
							c-2.18-21.446-28.858-20.069-37.892-3.632C267.327,311.602,279.316,337.196,297.65,332.878z"/>
					</g>
					<path style="fill:#D5C6AB;" d="M297.643,330.566c-0.106,2.443-0.211,4.886-0.317,7.329c-0.016,0.358-0.045,0.75-0.295,1.006
						c-0.285,0.292-0.744,0.297-1.152,0.283c-1.991-0.069-3.982-0.138-5.972-0.207c-0.987-0.034-2.013-0.078-2.883-0.545
						c-1.904-1.022-2.298-3.603-1.994-5.743c0.304-2.14,1.071-4.296,0.618-6.409c4.111,2.026,8.015-2.551,12.126-0.526
						L297.643,330.566z"/>
				</g>
				<path style="fill:#3B3631;" d="M289.04,263.729c-7.005,2.38-11.497,9.465-18.333,12.294c-3.92,1.623-8.56,1.829-11.758,4.617
					c-7.168,6.247-1.407,19.356-7.296,26.822c-1.225,1.552-2.875,2.726-4.105,4.274c-2.652,3.339-2.998,7.897-3.235,12.155
					c-0.053,0.958-0.063,2.001,0.103,2.965c0.921,9.832,15.195,9.207,20.865,8.577c6.222-0.691,4.148-4.148,4.148-4.148
					l-0.226-0.276c-0.597-3.992,1.045-8.25,4.181-10.793c1.164-0.944,2.54-1.695,3.361-2.949c1.842-2.814,0.083-6.542,0.354-9.894
					c1.09-13.501,23.75-10.608,30.145-20.22C315.086,275.366,302.269,259.234,289.04,263.729z"/>
			</g>
		</g>
		<g>
			<path style="fill:#FFFFFF;" d="M356.932,303.747c-1.06-0.531-2.131-1.05-3.212-1.557c10.786-15.659,16.625-34.884,16.625-55.257
				c0-49.142-34.658-89.121-77.258-89.121c-42.6,0-77.258,39.98-77.258,89.121c0,20.385,5.838,39.607,16.623,55.262
				c-1.675,0.766-2.79,1.33-3.278,1.583c-45.277,20.786-74.52,66.202-74.52,115.768v30.887c0,13.296,10.817,24.113,24.113,24.113
				h228.639c13.296,0,24.113-10.817,24.113-24.113v-30.887C431.521,369.956,402.248,324.519,356.932,303.747z"/>
			<g>
				<path style="fill:#5D66D3;" d="M353.321,311.278c-0.415,0.508-0.816,1.028-1.242,1.528
					c-15.621,18.31-36.571,28.394-58.992,28.394c-22.421,0-43.371-10.084-58.992-28.394c-0.426-0.499-0.827-1.019-1.242-1.528
					c-41.104,18.781-69.848,60.33-69.848,108.268v30.887c0,8.705,7.057,15.762,15.762,15.762h228.639
					c8.705,0,15.762-7.057,15.762-15.762v-30.887C423.169,371.608,394.425,330.059,353.321,311.278z"/>
				<path style="fill:#5D66D3;" d="M293.088,327.704c18.103,0,34.567-8.195,46.864-21.578c13.553-14.75,22.043-35.805,22.043-59.193
					c0-44.608-30.85-80.771-68.906-80.771c-38.056,0-68.907,36.162-68.907,80.771c0,23.388,8.49,44.443,22.042,59.193
					C258.521,319.509,274.984,327.704,293.088,327.704z"/>
			</g>
		</g>
		<polygon style="fill:#EAC1A4;" points="167.866,364.212 176.407,359.343 184.165,373.45 176.016,387.934 163.006,381.913 		"/>
		<polygon style="fill:#EAC1A4;" points="418.31,357.582 409.768,352.714 402.01,366.82 410.16,381.305 423.169,375.284 		"/>
	</g>
	<g>
		<polygon style="fill:#1B1B30;" points="614.977,700.735 616.1,709.469 599.755,720.449 589.899,712.838 597.51,702.981 
			613.854,692.002 		"/>
		<g>
			<polygon style="fill:#353A85;" points="615.529,697.804 602.925,586.42 618.09,461.726 614.68,435.201 546.941,432.628 
				544.497,475.8 555.869,586.591 598.65,703.496 			"/>
		</g>
		<polygon style="fill:#BABCBE;" points="540.583,309.388 506.51,318.668 467.104,388.493 485.771,405.776 512.041,374.666 		"/>
		<g>
			<polygon style="fill:#353A85;" points="497.238,445.11 497.059,557.511 519.684,702.207 535.969,702.045 544.92,568.234 
				565.87,434.304 			"/>
			<polygon style="fill:#1B1B30;" points="535.944,708.912 518.421,717.893 509.528,709.176 518.245,700.283 535.856,700.107 			"/>
		</g>
		<g>
			<path style="fill:#BABCBE;" d="M625.1,483.338c-0.155-4.871-0.426-8.936-0.465-10.387c-0.349-13.066-1.513-26.103-3.149-39.077
				c-1.466-11.626-3.316-40.488-5.305-52.042c-1.643-9.54-7.367-33.352-11.503-42.2c-10.286-22.005-7.108-24.038-52.289-30.572
				c-19.802-2.864-24.482,9.477-40.671,23.668c-1.596,1.399-1.509,9.733-1.879,11.94c-0.652,3.886-1.351,7.766-2.153,11.627
				c-0.63,3.035-1.325,6.061-2.103,9.065c-8.057,31.113-17.323,61.023-19.214,93.273c-0.536,9.098-3.334,17.929-3.086,27.109
				c0.029,1.055,0.115,2.186,0.771,3.013c2.734,3.447,17.827-1.818,22.413-2.269c11.659-1.147,23.557-1.868,35.281-1.781
				c12.03,0.09,24.11,1.307,35.937,3.347c7.909,1.322,15.98,3.243,23.056,6.939c6.75,3.526,11.622,8.713,18.47,12.364
				c0.649,0.346,1.36,0.704,2.097,0.602C625.242,507.412,625.427,493.59,625.1,483.338z"/>
		</g>
		<g>
			<path style="fill:#D5C6AB;" d="M552.337,315.265c2.28,1.126,7.66,1.53,13.273-0.668c1.131-0.443,1.894-1.534,1.878-2.748
				c-0.045-3.409-0.319-6.815-0.82-10.188c4.21-1.48,9.074-3.7,9.808-8.102c0.231-1.386-0.009-2.803-0.248-4.188
				c-0.989-5.726-1.979-11.452-2.968-17.177c-0.342-1.98-0.706-4.019-1.783-5.716c-1.89-2.977-5.557-4.28-9.032-4.883
				c-8.867-1.539-18.528,0.382-25.403,6.189c-1.83,1.546-3.484,3.403-4.291,5.659c-1.244,3.477-0.313,7.312,0.624,10.884
				c0.866,3.297,1.731,6.594,2.597,9.891c0.996,3.792,2.433,8.102,6.087,9.524c1.94,0.755,4.23,0.534,5.986,1.652
				C551.143,307.362,550.725,311.967,552.337,315.265z"/>
			<path style="fill:#3B3631;" d="M503.435,257.91c-1.518-14.216,4.692-29.189,16.386-26.212c7.084,1.803,13.423,4.789,20.554,2.126
				c6.701-2.502,11.54-1.483,18.543,1.016c7.578,2.704,17.752,3.342,24.612,7.159c2.865,1.594,5.151,4.085,6.932,6.837
				c6.173,9.534,6.207,22.68,0.084,32.246c-1.374,2.146-3.018,4.108-4.745,5.981c-3.575,3.877-7.852,8.667-12.77,10.103
				c-0.117-4.4,3.891-18.273,0.512-21.879c-5.362-5.723-17.487-3.726-24.139-2.317c-7.256,1.537-13.723,6.675-20.917,7.773
				C512.604,283.166,504.817,270.851,503.435,257.91z"/>
		</g>
	</g>
	<g>
		<path style="fill:#FFFFFF;" d="M634.963,227.642c-1.24-0.621-2.492-1.228-3.755-1.821c12.612-18.31,19.439-40.79,19.439-64.612
			c0-57.461-40.525-104.21-90.337-104.21s-90.338,46.748-90.338,104.21c0,23.836,6.826,46.312,19.437,64.618
			c-1.958,0.895-3.262,1.555-3.833,1.851c-52.943,24.305-87.136,77.41-87.136,135.368v36.116c0,15.547,12.648,28.195,28.196,28.195
			h267.348c15.547,0,28.195-12.648,28.195-28.195v-36.116C722.179,305.06,687.951,251.931,634.963,227.642z"/>
		<g>
			<path style="fill:#474EBB;" d="M630.741,236.448c-0.486,0.594-0.954,1.202-1.452,1.786
				c-18.265,21.41-42.763,33.201-68.979,33.201c-26.217,0-50.714-11.791-68.979-33.201c-0.498-0.584-0.967-1.192-1.452-1.786
				c-48.062,21.961-81.673,70.544-81.673,126.598v36.116c0,10.179,8.252,18.431,18.431,18.431h267.348
				c10.179,0,18.431-8.252,18.431-18.431v-36.116C712.415,306.992,678.803,258.409,630.741,236.448z"/>
			<path style="fill:#474EBB;" d="M560.31,255.655c21.168,0,40.419-9.582,54.798-25.231c15.848-17.247,25.775-41.867,25.775-69.214
				c0-52.161-36.073-94.445-80.572-94.445c-44.499,0-80.573,42.285-80.573,94.445c0,27.347,9.927,51.967,25.774,69.214
				C519.891,246.073,539.142,255.655,560.31,255.655z"/>
		</g>
	</g>
	<polygon style="fill:#EAC1A4;" points="469.222,426.922 465.501,417.823 480.492,411.956 493.8,421.912 486.146,434.033 	"/>
	<polygon style="fill:#EAC1A4;" points="636.64,426.87 640.328,417.757 625.314,411.945 612.044,421.951 619.743,434.043 	"/>
</g>
</svg>
