<svg width="22" height="22" viewBox="0 0 22 22" fill="none" xmlns="http://www.w3.org/2000/svg">
<path d="M15.4 2.41992C13.8283 2.41992 12.54 3.7082 12.54 5.27992C12.54 5.59535 12.5956 5.90295 12.6912 6.18742L8.45624 8.8343C7.95552 8.40482 7.30661 8.13992 6.59999 8.13992C5.02829 8.13992 3.73999 9.4282 3.73999 10.9999C3.73999 12.5716 5.02829 13.8599 6.59999 13.8599C7.31167 13.8599 7.96095 13.5937 8.46313 13.1587L12.6981 15.8055C12.5993 16.0942 12.54 16.3991 12.54 16.7199C12.54 18.2916 13.8283 19.5799 15.4 19.5799C16.9717 19.5799 18.26 18.2916 18.26 16.7199C18.26 15.1482 16.9717 13.8599 15.4 13.8599C14.6244 13.8599 13.9162 14.1783 13.3994 14.6849L9.23999 12.0862C9.37844 11.7514 9.45999 11.3829 9.45999 10.9999C9.45999 10.6124 9.38158 10.2448 9.23999 9.90681L13.3925 7.31492C13.9099 7.82551 14.621 8.13992 15.4 8.13992C16.9717 8.13992 18.26 6.85164 18.26 5.27992C18.26 3.7082 16.9717 2.41992 15.4 2.41992ZM15.4 3.73992C16.2583 3.73992 16.94 4.42159 16.94 5.27992C16.94 6.13825 16.2583 6.81992 15.4 6.81992C14.5417 6.81992 13.86 6.13825 13.86 5.27992C13.86 4.42159 14.5417 3.73992 15.4 3.73992ZM6.59999 9.45992C7.45832 9.45992 8.13999 10.1416 8.13999 10.9999C8.13999 11.8583 7.45832 12.5399 6.59999 12.5399C5.74166 12.5399 5.05999 11.8583 5.05999 10.9999C5.05999 10.1416 5.74166 9.45992 6.59999 9.45992ZM15.4 15.1799C16.2583 15.1799 16.94 15.8616 16.94 16.7199C16.94 17.5783 16.2583 18.2599 15.4 18.2599C14.5417 18.2599 13.86 17.5783 13.86 16.7199C13.86 15.8616 14.5417 15.1799 15.4 15.1799Z" fill="black"/>
</svg>
