<svg width="23" height="23" viewBox="0 0 23 23" fill="none" xmlns="http://www.w3.org/2000/svg">
<path d="M4.31333 1.4375C2.73301 1.4375 1.43762 2.72758 1.43762 4.3079V15.0892C1.43762 16.6695 2.73301 17.9649 4.31333 17.9649H9.08318L10.8712 21.1907C10.9334 21.303 11.0245 21.3965 11.1351 21.4617C11.2456 21.5268 11.3716 21.5611 11.4999 21.5611C11.6283 21.5611 11.7542 21.5268 11.8648 21.4617C11.9754 21.3965 12.0665 21.303 12.1287 21.1907L13.9167 17.9649H18.6866C20.2669 17.9649 21.5623 16.6695 21.5623 15.0892V4.3079C21.5623 2.72758 20.2669 1.4375 18.6866 1.4375H4.31333ZM4.31333 2.87535H18.6866C19.4954 2.87535 20.1244 3.49909 20.1244 4.3079V15.0892C20.1244 15.898 19.4954 16.527 18.6866 16.527H13.4976C13.3687 16.5266 13.2421 16.5609 13.131 16.6263C13.0199 16.6916 12.9285 16.7856 12.8662 16.8984L11.5026 19.3603L10.1337 16.8984C10.0714 16.7856 9.97996 16.6916 9.86889 16.6263C9.75781 16.5609 9.63121 16.5266 9.50234 16.527H4.31333C3.50452 16.527 2.87548 15.898 2.87548 15.0892V4.3079C2.87548 3.49909 3.50452 2.87535 4.31333 2.87535Z" fill="black"/>
<path d="M6.46213 7.18359C6.36771 7.18392 6.27428 7.20284 6.18718 7.23928C6.10008 7.27573 6.02101 7.32898 5.9545 7.39599C5.88798 7.463 5.83532 7.54246 5.79952 7.62982C5.76372 7.71719 5.74548 7.81076 5.74586 7.90517C5.74651 8.09494 5.82218 8.27675 5.95637 8.41094C6.09055 8.54512 6.27236 8.62079 6.46213 8.62145H16.5377C16.7275 8.62079 16.9093 8.54512 17.0435 8.41094C17.1777 8.27675 17.2533 8.09494 17.254 7.90517C17.2544 7.81076 17.2361 7.71719 17.2003 7.62982C17.1645 7.54246 17.1119 7.463 17.0454 7.39599C16.9788 7.32898 16.8998 7.27573 16.8127 7.23928C16.7256 7.20284 16.6321 7.18392 16.5377 7.18359H6.46213Z" fill="black"/>
<path d="M6.47275 11.1367C6.37833 11.137 6.2849 11.156 6.1978 11.1924C6.1107 11.2289 6.03163 11.2821 5.96511 11.3491C5.8986 11.4161 5.84594 11.4956 5.81014 11.5829C5.77434 11.6703 5.7561 11.7639 5.75648 11.8583C5.75713 12.0481 5.8328 12.2299 5.96699 12.3641C6.10117 12.4982 6.28298 12.5739 6.47275 12.5746H13.6567C13.8465 12.5739 14.0283 12.4982 14.1625 12.3641C14.2967 12.2299 14.3723 12.0481 14.373 11.8583C14.3734 11.7639 14.3551 11.6703 14.3193 11.5829C14.2835 11.4956 14.2309 11.4161 14.1643 11.3491C14.0978 11.2821 14.0188 11.2289 13.9317 11.1924C13.8446 11.156 13.7511 11.137 13.6567 11.1367H6.47275Z" fill="black"/>
</svg>
