<svg width="20" height="20" viewBox="0 0 20 20" fill="none" xmlns="http://www.w3.org/2000/svg">
<g clip-path="url(#clip0)">
<path d="M9.94007 19.4569L3.00006 13.1529C1.61454 11.9229 0.637646 10.2992 0.200065 8.49892C0.00775735 7.78244 -0.0505542 7.03659 0.0280649 6.29892C0.348065 2.96292 2.74606 0.544922 5.74406 0.544922C6.55046 0.545398 7.34667 0.725078 8.07511 1.07097C8.80356 1.41686 9.44603 1.92031 9.95607 2.54492C10.4869 1.92202 11.1458 1.42092 11.8879 1.07577C12.6299 0.73063 13.4377 0.549564 14.2561 0.544922C17.2561 0.544922 19.6561 2.96492 19.9641 6.30092C20.042 7.0386 19.9837 7.78433 19.7921 8.50092C19.3562 10.2995 18.3822 11.9223 17.0001 13.1529L9.94007 19.4569ZM5.74007 1.85692C3.42807 1.85692 1.57406 3.78492 1.34006 6.44292V6.48892C1.28219 7.06347 1.33032 7.64376 1.48206 8.20092C1.8583 9.74209 2.69553 11.1319 3.88206 12.1849L9.94807 17.6969L16.1321 12.1809C17.3128 11.127 18.1449 9.73893 18.5181 8.20092C18.6722 7.64284 18.7231 7.06128 18.6681 6.48492V6.44092C18.4261 3.78292 16.5741 1.85492 14.2681 1.85492C13.5073 1.85501 12.7598 2.05473 12.1004 2.43411C11.4409 2.8135 10.8926 3.35927 10.5101 4.01692L9.94207 4.96692L9.38406 4.01092C9.02167 3.36206 8.49404 2.82064 7.85474 2.44163C7.21544 2.06262 6.48724 1.85951 5.74406 1.85292L5.74007 1.85692Z" fill="#4358FF"/>
</g>
<defs>
<clipPath id="clip0">
<rect width="20" height="20" fill="white"/>
</clipPath>
</defs>
</svg>
