<svg xmlns="http://www.w3.org/2000/svg" width="45.58" height="45.579" viewBox="0 0 45.58 45.579">
  <path id="Icon_simple-processwire" data-name="Icon simple-processwire" d="M41.666,10.008A23.225,23.225,0,0,0,20.4.116,22.93,22.93,0,0,0,7.282,5.821,21.727,21.727,0,0,0,.76,15.937a21.915,21.915,0,0,0-.5,9.131,31.019,31.019,0,0,0,1.6,5.563,1.816,1.816,0,0,0,.779.936c.9.49,2.368.059,3.5-1.21a.319.319,0,0,0,.057-.277,26.06,26.06,0,0,1-.541-2.834,25.537,25.537,0,0,1-.2-5.9A17.2,17.2,0,0,1,6.161,17.6,16.535,16.535,0,0,1,11.1,10.044a17.876,17.876,0,0,1,9.583-4.311,17.038,17.038,0,0,1,6.075.386,18.228,18.228,0,0,1,5.65,2.56,16.9,16.9,0,0,1,4.509,4.488,16.813,16.813,0,0,1,2.735,12.512,17.924,17.924,0,0,1-2.4,6.22,16.78,16.78,0,0,1-4.564,4.833,17.783,17.783,0,0,1-6.047,2.723,16.5,16.5,0,0,1-3.282.456,18.374,18.374,0,0,1-3.223-.156c-1.369-.218-1.654-.568-1.968-1.043a2.912,2.912,0,0,1-.279-1.257c.021-8.366.017-6.132.017-10.476,0-1.227-.04-2.34-.028-3.35A5.254,5.254,0,0,1,19.263,19.6a4.612,4.612,0,0,1,3.375-1.459,4.433,4.433,0,0,1,4.566,4,5.193,5.193,0,0,1-1.827,4.492,6.617,6.617,0,0,1-1.827.969,7.75,7.75,0,0,1-2.908.346.283.283,0,0,0-.3.226l-.313,1.626a1.39,1.39,0,0,0,.779,1.846,9.612,9.612,0,0,0,3.743.456,9.37,9.37,0,0,0,5.8-2.556,8.491,8.491,0,0,0,2.581-5.023,11.162,11.162,0,0,0-1.056-6.362,10.453,10.453,0,0,0-12.253-5.263l-.028.009A10.478,10.478,0,0,0,15.1,15.656a10.306,10.306,0,0,0-2.311,3.709,11.833,11.833,0,0,0-.65,4.15c-.03,1.227.028,2.366.028,3.434v7.029c0,2.249-.076,2.638,0,3.795a8.814,8.814,0,0,0,.484,2.568,7.34,7.34,0,0,0,1.569,2.568,7.435,7.435,0,0,0,2.456,1.709,16.519,16.519,0,0,0,6.9.942,22.6,22.6,0,0,0,4.351-.6,23.2,23.2,0,0,0,8.043-3.643,22.367,22.367,0,0,0,6.1-6.444,23.29,23.29,0,0,0,3.168-8.248,22.46,22.46,0,0,0-3.65-16.69l.072.07Z" transform="translate(0.001 -0.001)" fill="#455cfd"/>
</svg>
