<svg width="35" height="35" viewBox="0 0 35 35" fill="none" xmlns="http://www.w3.org/2000/svg">
<g clip-path="url(#clip0)">
<path d="M32.9172 5.10547H10.436C9.5446 5.10547 9.54335 6.494 10.436 6.494H32.9172C33.3 6.494 33.6115 6.80544 33.6115 7.18826V23.595C33.6115 23.9778 33.3 24.2892 32.9172 24.2892H20.7611C20.5486 24.2892 20.3478 24.3865 20.2161 24.5533L17.4158 28.1012L14.4456 24.5389C14.3137 24.3807 14.1183 24.2892 13.9124 24.2892H2.08279C1.69997 24.2892 1.38853 23.9778 1.38853 23.595V7.18826C1.38853 6.80544 1.69997 6.494 2.08279 6.494H4.72461C5.61604 6.494 5.61729 5.10547 4.72461 5.10547H2.08279C0.93434 5.10547 0 6.03981 0 7.18826V23.595C0 24.7434 0.93434 25.6778 2.08279 25.6778H13.5874L16.8973 29.6476C17.1769 29.9828 17.705 29.9759 17.9755 29.6331L21.0976 25.6778H32.9172C34.0657 25.6778 35 24.7434 35 23.595V7.18826C35 6.03981 34.0657 5.10547 32.9172 5.10547Z" fill="#4358FF"/>
<path d="M3.84455 14.0381C3.77103 14.2643 3.81845 14.5124 3.97021 14.6955L5.32201 16.3275L5.18767 18.4425C5.08215 20.0994 7.56969 18.3399 8.10636 18.3506C8.64768 18.3614 11.1294 20.0807 11.025 18.4425L10.8906 16.3275L12.2425 14.6955C12.5583 14.3144 12.3625 13.7036 11.88 13.5801L9.82716 13.0544L8.69274 11.2645C8.42787 10.8464 7.78644 10.8438 7.51991 11.2645L6.38549 13.0544L4.33262 13.5801C4.10219 13.6391 3.91807 13.8119 3.84455 14.0381ZM6.99672 14.3311C7.50999 14.1998 7.84782 13.3407 8.10629 12.9329C8.3606 13.3341 8.70752 14.201 9.21586 14.3311L10.4743 14.6534L9.64554 15.6538C9.53273 15.79 9.47614 15.9642 9.48739 16.1407L9.5698 17.4372L8.36227 16.9583C8.19779 16.8931 8.01472 16.8931 7.85025 16.9583L6.64271 17.4372L6.72505 16.1407C6.7363 15.9642 6.67972 15.79 6.5669 15.6538L5.73822 14.6534L6.99672 14.3311Z" fill="#4358FF"/>
<path d="M21.6923 14.0382C21.6188 13.812 21.4346 13.6391 21.2042 13.5801L19.1513 13.0544L18.0169 11.2645C17.7521 10.8464 17.1106 10.8438 16.8441 11.2645L15.7097 13.0544L13.6568 13.5801C13.4264 13.6391 13.2422 13.812 13.1687 14.0382C13.0953 14.2644 13.1426 14.5125 13.2944 14.6956L14.6463 16.3276L14.5119 18.4426C14.4063 20.0994 16.8939 18.3399 17.4305 18.3506C17.9719 18.3615 20.4536 20.0807 20.3492 18.4426L20.2148 16.3276L21.5667 14.6956C21.7184 14.5125 21.7658 14.2644 21.6923 14.0382ZM18.9698 15.6539C18.857 15.7901 18.8004 15.9643 18.8116 16.1408L18.8941 17.4373C18.4605 17.2653 17.9069 16.9094 17.4305 16.9094C16.9564 16.9094 16.3994 17.2658 15.967 17.4373L16.0494 16.1408C16.0607 15.9643 16.0041 15.7901 15.8913 15.6539L15.0626 14.6535L16.321 14.3312C16.8342 14.1998 17.1721 13.3408 17.4305 12.9329C17.6849 13.3342 18.0318 14.2011 18.5401 14.3312L19.7985 14.6535L18.9698 15.6539Z" fill="#4358FF"/>
<path d="M31.0166 14.0382C30.9431 13.8119 30.7589 13.6391 30.5285 13.5801L28.4756 13.0544L27.3412 11.2645C27.0763 10.8464 26.4349 10.8438 26.1684 11.2645L25.034 13.0544L22.9811 13.5801C22.5016 13.7029 22.3009 14.3121 22.6186 14.6955L23.9705 16.3275L23.8361 18.4425C23.7305 20.0991 26.2169 18.3398 26.7548 18.3505C27.295 18.3613 29.7778 20.0811 29.6734 18.4425L29.5391 16.3275L30.8909 14.6955C31.0427 14.5125 31.0901 14.2644 31.0166 14.0382ZM28.2942 15.6539C28.1813 15.7901 28.1248 15.9643 28.136 16.1408L28.2183 17.4373L27.0108 16.9583C26.8402 16.8931 26.6694 16.8931 26.4988 16.9583L25.2913 17.4373L25.3737 16.1408C25.3849 15.9643 25.3283 15.7901 25.2155 15.6539L24.3868 14.6535L25.6452 14.3312C26.1585 14.1998 26.4963 13.3408 26.7548 12.9329C27.0091 13.3342 27.356 14.2011 27.8643 14.3312L29.1228 14.6535L28.2942 15.6539Z" fill="#4358FF"/>
<path d="M7.21088 6.37673C7.73345 6.73483 8.43111 6.21448 8.26442 5.61491C8.18507 5.32943 7.92631 5.1215 7.62993 5.10678C7.33425 5.09213 7.05474 5.27451 6.94851 5.55041C6.8341 5.84784 6.94247 6.20129 7.21088 6.37673Z" fill="#4358FF"/>
</g>
<defs>
<clipPath id="clip0">
<rect width="35" height="35" fill="white"/>
</clipPath>
</defs>
</svg>
