<svg width="29" height="29" viewBox="0 0 29 29" fill="none" xmlns="http://www.w3.org/2000/svg">
<path d="M14.4997 4.58789C12.764 4.58789 11.3517 6.00005 11.3517 7.73581V9.29954H8.48947L7.78809 22.1894H21.2112L20.5099 9.29954H17.6476V7.73581C17.6477 6.00005 16.2355 4.58789 14.4997 4.58789ZM19.4171 20.4902H9.58235L10.0988 10.9988H18.9007L19.4171 20.4902ZM14.4997 6.28711C15.2986 6.28711 15.9484 6.937 15.9484 7.73581V9.29954H13.051V7.73581C13.051 6.937 13.7009 6.28711 14.4997 6.28711Z" fill="#4358FF"/>
<path d="M26.7509 6.74437L28.6975 7.08569L28.9909 5.41201L24.1015 4.55481L23.2443 9.44426L24.918 9.73771L25.2904 7.61363C26.5941 9.65898 27.3008 12.0569 27.3008 14.5C27.3008 17.9192 25.9693 21.1337 23.5515 23.5515C21.1338 25.9693 17.9193 27.3008 14.5 27.3008C11.0807 27.3008 7.86625 25.9693 5.44849 23.5515C3.03073 21.1338 1.69922 17.9192 1.69922 14.5C1.69922 11.0808 3.03073 7.86625 5.44849 5.44849C7.86625 3.03078 11.0808 1.69922 14.5 1.69922C16.9687 1.69922 19.3647 2.40309 21.4291 3.73477L22.3502 2.30686C20.0107 0.797727 17.2961 0 14.5 0C10.6269 0 6.98566 1.50823 4.24697 4.24691C1.50828 6.98566 0 10.6269 0 14.5C0 18.3731 1.50828 22.0144 4.24697 24.7531C6.98566 27.4918 10.6269 29 14.5 29C18.3731 29 22.0143 27.4917 24.7531 24.7531C27.4918 22.0144 29 18.3731 29 14.5C29 11.7507 28.2096 9.05168 26.7509 6.74437Z" fill="#4358FF"/>
<path d="M11.876 14.895H17.1246V16.5942H11.876V14.895Z" fill="#4358FF"/>
</svg>
