<svg width="22" height="22" viewBox="0 0 22 22" fill="none" xmlns="http://www.w3.org/2000/svg">
<path d="M17.2857 12.5714C15.7263 12.5714 14.352 13.3412 13.4934 14.5113L9.20308 12.3656C9.33592 11.9304 9.42858 11.478 9.42858 11C9.42858 10.522 9.33592 10.0695 9.20308 9.63437L13.4934 7.4887C14.352 8.65873 15.7263 9.42853 17.2857 9.42853C19.8853 9.42853 22 7.31384 22 4.71424C22 2.11465 19.8854 0 17.2857 0C14.6861 0 12.5714 2.11469 12.5714 4.71429C12.5714 5.1923 12.6642 5.64472 12.797 6.0798L8.50654 8.22556C7.64792 7.05553 6.27369 6.28573 4.71424 6.28573C2.11465 6.28573 0 8.40038 0 11C0 13.5997 2.11465 15.7143 4.71429 15.7143C6.27374 15.7143 7.64796 14.9445 8.50659 13.7745L12.7969 15.9202C12.6641 16.3553 12.5714 16.8077 12.5714 17.2858C12.5714 19.8854 14.6861 22 17.2857 22C19.8854 22 22 19.8854 22 17.2858C22 14.6862 19.8853 12.5714 17.2857 12.5714ZM17.2857 1.57144C19.0191 1.57144 20.4286 2.98176 20.4286 4.71429C20.4286 6.44687 19.019 7.85713 17.2857 7.85713C15.5524 7.85713 14.1429 6.44682 14.1429 4.71429C14.1429 2.98176 15.5524 1.57144 17.2857 1.57144ZM4.71429 14.1429C2.98094 14.1429 1.57144 12.7326 1.57144 11C1.57144 9.26745 2.98098 7.85718 4.71429 7.85718C6.44764 7.85718 7.85713 9.26749 7.85713 11C7.85713 12.7326 6.44764 14.1429 4.71429 14.1429ZM17.2857 20.4286C15.5524 20.4286 14.1429 19.0182 14.1429 17.2857C14.1429 15.5532 15.5524 14.1429 17.2857 14.1429C19.0191 14.1429 20.4286 15.5532 20.4286 17.2857C20.4286 19.0183 19.0191 20.4286 17.2857 20.4286Z" fill="#222327"/>
</svg>
