<svg width="24" height="24" viewBox="0 0 24 24" fill="none" xmlns="http://www.w3.org/2000/svg">
<g clip-path="url(#clip0)">
<path d="M20.5213 3.14396C18.4938 1.11641 15.7979 -0.000113402 12.9307 8.63884e-09C12.4608 8.63884e-09 12.0801 0.380832 12.0801 0.850577C12.0801 1.32032 12.4609 1.70115 12.9307 1.70115C15.3436 1.70104 17.6121 2.64065 19.3184 4.3469C21.0248 6.05316 21.9644 8.32182 21.9642 10.7349C21.9642 11.2046 22.345 11.5854 22.8148 11.5854C23.2846 11.5854 23.6654 11.2046 23.6654 10.735C23.6655 7.86739 22.549 5.17151 20.5213 3.14396Z" fill="black"/>
<path d="M17.0224 10.7352C17.0224 11.2049 17.4032 11.5857 17.8731 11.5856C18.3428 11.5856 18.7235 11.2048 18.7235 10.735C18.7233 7.54141 16.1246 4.94284 12.9308 4.94238C12.9307 4.94238 12.9308 4.94238 12.9307 4.94238C12.4609 4.94238 12.0802 5.3231 12.0801 5.79285C12.0801 6.26259 12.4608 6.64342 12.9305 6.64354C15.1866 6.64388 17.0222 8.47931 17.0224 10.7352Z" fill="black"/>
<path d="M15.1403 15.0716C13.8438 15.0045 13.1833 15.9687 12.8665 16.4319C12.6013 16.8196 12.7006 17.3489 13.0884 17.6142C13.4761 17.8794 14.0054 17.7801 14.2707 17.3923C14.6449 16.8451 14.8145 16.759 15.0445 16.7699C15.7806 16.8565 18.6799 18.9811 18.9703 19.6454C19.0431 19.8411 19.0404 20.0329 18.9622 20.2661C18.6578 21.1696 18.154 21.8044 17.5048 22.102C16.8881 22.3848 16.132 22.3591 15.3187 22.0282C12.2819 20.7904 9.62879 19.0631 7.43316 16.894C7.43226 16.8931 7.43135 16.8923 7.43055 16.8914C5.26601 14.6979 3.54183 12.0482 2.30611 9.01607C1.97507 8.20212 1.94943 7.4459 2.23217 6.82929C2.52976 6.18013 3.16463 5.67625 4.06726 5.3722C4.30134 5.29372 4.49277 5.29122 4.68659 5.36335C5.35333 5.6547 7.47785 8.55392 7.56358 9.28179C7.57583 9.5204 7.48907 9.68984 6.94232 10.0634C6.55446 10.3283 6.45477 10.8576 6.71981 11.2455C6.98474 11.6333 7.51391 11.7329 7.90189 11.468C8.36528 11.1516 9.32927 10.4929 9.26236 9.19197C9.18864 7.83309 6.54527 4.23446 5.28222 3.77005C4.7205 3.56069 4.12963 3.55706 3.52538 3.75984C2.16582 4.21768 1.18392 5.03401 0.685818 6.12048C0.20269 7.17451 0.218 8.39741 0.730615 9.65763C2.05309 12.9025 3.90338 15.7418 6.22999 18.0967C6.23566 18.1025 6.24145 18.1082 6.24734 18.1137C8.60061 20.436 11.4365 22.2829 14.6771 23.6038C15.3261 23.8677 15.9651 23.9998 16.5763 23.9998C17.1517 23.9998 17.7027 23.8828 18.2137 23.6485C19.3003 23.1505 20.1165 22.1687 20.5747 20.8082C20.777 20.2051 20.7737 19.6145 20.566 19.0554C20.1 17.7889 16.5013 15.1456 15.1403 15.0716Z" fill="black"/>
</g>
<defs>
<clipPath id="clip0">
<rect width="24" height="24" fill="white"/>
</clipPath>
</defs>
</svg>
