<svg width="24" height="24" viewBox="0 0 24 24" fill="none" xmlns="http://www.w3.org/2000/svg">
<path d="M5.00236 1.91899C4.17109 1.9313 3.37276 2.20609 2.78986 2.78899C2.14946 3.42938 1.88192 4.32277 1.92736 5.24899C1.96992 6.11639 2.28031 7.02198 2.81236 7.87399C2.24356 9.13556 1.91986 10.5346 1.91986 12.0065C1.91986 15.685 3.89876 18.9081 6.84736 20.669C6.28425 20.9396 5.71596 21.0864 5.20486 21.1115C4.48717 21.1467 3.88679 20.9484 3.46486 20.5265C3.08259 20.1442 2.88916 19.616 2.87986 18.9815C2.87527 18.671 2.91533 18.336 3.00736 17.9915C3.02766 17.9182 3.03025 17.8411 3.0149 17.7666C2.99956 17.6921 2.96673 17.6223 2.91912 17.5629C2.87151 17.5036 2.81048 17.4564 2.74107 17.4253C2.67165 17.3942 2.59583 17.38 2.51986 17.384C2.41862 17.3903 2.32199 17.4286 2.24383 17.4933C2.16568 17.5579 2.11003 17.6457 2.08486 17.744C1.97228 18.1654 1.91381 18.5876 1.91986 18.9965C1.93205 19.8279 2.20702 20.6261 2.78986 21.209C3.43027 21.8494 4.32364 22.1169 5.24986 22.0715C6.11582 22.029 7.02325 21.7244 7.87486 21.194C9.13644 21.7628 10.5355 22.0865 12.0074 22.0865C15.6884 22.0865 18.9098 20.1035 20.6699 17.1515C20.9403 17.7167 21.0872 18.281 21.1124 18.794C21.1476 19.5117 20.9568 20.1046 20.5349 20.5265C20.1526 20.9087 19.6244 21.1096 18.9899 21.119C18.6794 21.1235 18.3444 21.076 17.9999 20.984C17.9388 20.9677 17.8751 20.9636 17.8125 20.972C17.7498 20.9803 17.6894 21.0009 17.6348 21.0326C17.5801 21.0643 17.5322 21.1065 17.4938 21.1567C17.4554 21.2069 17.4273 21.2641 17.411 21.3252C17.3948 21.3863 17.3907 21.45 17.3991 21.5126C17.4074 21.5752 17.428 21.6356 17.4597 21.6903C17.4914 21.745 17.5336 21.7929 17.5838 21.8313C17.634 21.8696 17.6913 21.8977 17.7524 21.914C18.1738 22.0265 18.5884 22.085 18.9974 22.079C19.8287 22.0667 20.627 21.7918 21.2099 21.209C21.8503 20.5686 22.1178 19.6677 22.0724 18.7415C22.03 17.8779 21.7225 16.9802 21.1949 16.1315C21.7627 14.8708 22.0874 13.4771 22.0874 12.0065C22.0874 8.3231 20.1 5.09581 17.1449 3.33649C17.7109 3.06313 18.2811 2.90419 18.7949 2.87899C19.5126 2.84378 20.1129 3.04207 20.5349 3.46399C20.9171 3.84624 21.1105 4.37441 21.1199 5.00899C21.1245 5.31947 21.0844 5.65451 20.9924 5.99899C20.9685 6.06174 20.958 6.12882 20.9616 6.19588C20.9653 6.26293 20.9829 6.32848 21.0135 6.38828C21.0441 6.44808 21.0868 6.50081 21.139 6.54305C21.1912 6.58529 21.2517 6.61611 21.3166 6.63351C21.3814 6.65091 21.4492 6.65451 21.5156 6.64408C21.5819 6.63364 21.6453 6.6094 21.7017 6.57293C21.7581 6.53645 21.8062 6.48855 21.8429 6.43232C21.8796 6.37609 21.9041 6.31278 21.9149 6.24649C22.0275 5.82504 22.0859 5.40288 22.0799 4.99399C22.0676 4.16273 21.7928 3.36439 21.2099 2.78149C20.5695 2.14109 19.6761 1.87355 18.7499 1.91899C17.8845 1.96144 16.976 2.27338 16.1249 2.80399C14.8656 2.23773 13.4757 1.91899 12.0074 1.91899C8.32398 1.91899 5.09668 3.9064 3.33736 6.86149C3.06179 6.29069 2.91278 5.71461 2.88736 5.19649C2.85215 4.4788 3.04294 3.88591 3.46486 3.46399C3.84711 3.08174 4.37529 2.88838 5.00986 2.87899C5.32035 2.8744 5.65538 2.91446 5.99986 3.00649C6.06093 3.02275 6.12461 3.02683 6.18725 3.01849C6.2499 3.01014 6.31029 2.98954 6.36497 2.95785C6.41965 2.92616 6.46755 2.88402 6.50595 2.83381C6.54434 2.78361 6.57246 2.72634 6.58871 2.66526C6.60497 2.60419 6.60903 2.54051 6.60067 2.47787C6.59231 2.41523 6.5717 2.35484 6.54 2.30017C6.5083 2.24549 6.46614 2.1976 6.41593 2.15922C6.36572 2.12084 6.30844 2.09273 6.24736 2.07649C5.82591 1.9639 5.41126 1.91293 5.00236 1.91899ZM12.0074 2.87899C12.4438 2.87899 12.8699 2.90988 13.2899 2.96899V4.96399C13.289 5.02759 13.3007 5.09074 13.3244 5.14977C13.3482 5.20879 13.3834 5.26251 13.428 5.30781C13.4727 5.35311 13.5259 5.38908 13.5846 5.41363C13.6433 5.43818 13.7063 5.45082 13.7699 5.45082C13.8335 5.45082 13.8965 5.43818 13.9551 5.41363C14.0138 5.38908 14.067 5.35311 14.1117 5.30781C14.1564 5.26251 14.1916 5.20879 14.2153 5.14977C14.239 5.09074 14.2508 5.02759 14.2499 4.96399V3.16399C17.4798 3.97955 20.0188 6.51477 20.8424 9.74149H18.0149C17.0974 7.31235 14.7467 5.57899 11.9999 5.57899C11.5597 5.57899 11.1252 5.62187 10.7099 5.70649V2.97649C11.1325 2.91662 11.5681 2.87899 12.0074 2.87899ZM9.74986 3.16399V5.98399C7.31619 6.89671 5.57986 9.24888 5.57986 11.999C5.57986 12.4417 5.62178 12.8711 5.70736 13.289H2.96986C2.91073 12.8691 2.87986 12.443 2.87986 12.0065C2.87986 11.5649 2.90937 11.1262 2.96986 10.7015H4.97236C5.03597 10.7024 5.09912 10.6906 5.15814 10.6669C5.21717 10.6432 5.27089 10.608 5.31619 10.5633C5.36148 10.5187 5.39745 10.4654 5.422 10.4068C5.44655 10.3481 5.4592 10.2851 5.4592 10.2215C5.4592 10.1579 5.44655 10.0949 5.422 10.0362C5.39745 9.97753 5.36148 9.92431 5.31619 9.87965C5.27089 9.83499 5.21717 9.79978 5.15814 9.77606C5.09912 9.75234 5.03597 9.74059 4.97236 9.74149H3.16486C3.98779 6.51711 6.5233 3.98146 9.74986 3.16399ZM11.9999 6.53149C15.0226 6.53149 17.4599 8.97625 17.4599 11.999C17.4599 15.0217 15.0226 17.4665 11.9999 17.4665C8.97713 17.4665 6.53986 15.0217 6.53986 11.999C6.53986 8.97625 8.97713 6.53149 11.9999 6.53149ZM18.2924 10.7015H21.0374C21.0979 11.1262 21.1274 11.5649 21.1274 12.0065C21.1274 12.443 21.0965 12.8691 21.0374 13.289H19.0274C19.0124 13.2883 18.9974 13.2883 18.9824 13.289C18.9193 13.2919 18.8575 13.3073 18.8004 13.3341C18.7432 13.361 18.692 13.3988 18.6495 13.4455C18.607 13.4921 18.5741 13.5467 18.5527 13.6061C18.5313 13.6654 18.5218 13.7284 18.5248 13.7915C18.5277 13.8545 18.5431 13.9164 18.5699 13.9735C18.5968 14.0306 18.6346 14.0819 18.6813 14.1243C18.728 14.1668 18.7826 14.1997 18.8419 14.2211C18.9013 14.2425 18.9643 14.252 19.0274 14.249H20.8499C20.0325 17.4839 17.4873 20.0191 14.2499 20.834V18.014C16.6859 17.0989 18.4274 14.7491 18.4274 11.999C18.4274 11.5563 18.3782 11.1191 18.2924 10.7015ZM3.15736 14.249H5.98486C6.89759 16.685 9.24976 18.4265 11.9999 18.4265C12.4426 18.4265 12.872 18.3773 13.2899 18.2915V21.0215C12.8698 21.0804 12.4439 21.1115 12.0074 21.1115C11.5683 21.1115 11.1323 21.0811 10.7099 21.0215V19.0265C10.7115 18.9574 10.6982 18.8889 10.6709 18.8254C10.6436 18.762 10.6029 18.7052 10.5516 18.6589C10.5004 18.6127 10.4397 18.578 10.3738 18.5573C10.308 18.5366 10.2384 18.5303 10.1699 18.539C10.0519 18.5538 9.94368 18.6119 9.86609 18.7019C9.78851 18.792 9.74709 18.9076 9.74986 19.0265V20.834C6.51577 20.0172 3.97418 17.4815 3.15736 14.249Z" fill="#0083EB"/>
</svg>
