<svg width="45" height="45" viewBox="0 0 45 45" fill="none" xmlns="http://www.w3.org/2000/svg">
<g clip-path="url(#clip0)">
<path d="M22.5 44.999C34.9264 44.999 45 34.9254 45 22.499C45 10.0726 34.9264 -0.000976562 22.5 -0.000976562C10.0736 -0.000976562 0 10.0726 0 22.499C0 34.9254 10.0736 44.999 22.5 44.999Z" fill="#007AB9"/>
<path d="M35.9434 24.3102V33.5864H30.5653V24.9318C30.5653 22.7588 29.7888 21.2748 27.8415 21.2748C26.3555 21.2748 25.4727 22.2739 25.0829 23.2413C24.9413 23.587 24.9048 24.0671 24.9048 24.552V33.586H19.5263C19.5263 33.586 19.5985 18.928 19.5263 17.4107H24.9052V19.7029C24.8944 19.721 24.8791 19.7386 24.8695 19.7559H24.9052V19.7029C25.6199 18.6031 26.8946 17.0309 29.7523 17.0309C33.2907 17.0309 35.9434 19.3427 35.9434 24.3102ZM13.8999 9.61365C12.0601 9.61365 10.8564 10.8213 10.8564 12.408C10.8564 13.961 12.0252 15.2036 13.8293 15.2036H13.8642C15.74 15.2036 16.9064 13.961 16.9064 12.408C16.8707 10.8213 15.74 9.61365 13.8999 9.61365ZM11.1761 33.5864H16.5526V17.4107H11.1761V33.5864Z" fill="#F1F2F2"/>
</g>
<defs>
<clipPath id="clip0">
<rect width="45" height="45" fill="white"/>
</clipPath>
</defs>
</svg>
