<svg width="68" height="68" viewBox="0 0 68 68" fill="none" xmlns="http://www.w3.org/2000/svg">
<path d="M34 68C52.7777 68 68 52.7777 68 34C68 15.2223 52.7777 0 34 0C15.2223 0 0 15.2223 0 34C0 52.7777 15.2223 68 34 68Z" fill="#EE6781"/>
<path d="M38.0354 14.802H29.0872C23.9282 14.802 19.3754 17.4001 16.6681 21.3595C15.0178 23.7727 14.052 26.6918 14.052 29.8357V38.1642C14.052 46.4672 20.7829 53.198 29.087 53.198H38.0353V14.802H38.0354Z" fill="#F39E22"/>
<path d="M14.0515 31.9547H29.904V36.0453H14.0515V31.9547Z" fill="#EA792E"/>
<path d="M14.0515 31.9547H29.904V33.5604H14.0515V31.9547Z" fill="#DD5E26"/>
<path d="M29.9039 38.6139V42.7032H14.75C14.495 41.9023 14.3077 41.0723 14.1921 40.2183C14.1191 39.6923 14.0739 39.1571 14.0593 38.6139H29.9039Z" fill="#EA792E"/>
<path d="M29.9039 38.6139V40.2183H14.1921C14.1191 39.6923 14.0739 39.1571 14.0593 38.6139H29.9039Z" fill="#DD5E26"/>
<path d="M33.7569 45.2717V49.3624H19.0559C18.2258 48.6199 17.4794 47.7859 16.8326 46.8761C16.4674 46.3648 16.134 45.8282 15.8352 45.2717H33.7569Z" fill="#EA792E"/>
<path d="M33.7569 45.2717V46.8761H16.8326C16.4674 46.3648 16.134 45.8282 15.8352 45.2717H33.7569Z" fill="#DD5E26"/>
<path d="M36.3255 51.931V53.1981H29.0872C26.9343 53.1981 24.889 52.7465 23.0376 51.931H36.3255Z" fill="#EA792E"/>
<path d="M36.3255 51.931V53.1981H29.0872C26.9343 53.1981 24.889 52.7465 23.0376 51.931H36.3255Z" fill="#DD5E26"/>
<path d="M29.9042 25.2969V29.3862H14.0583C14.0836 28.5375 14.1779 27.7088 14.3386 26.9013C14.3731 26.7259 14.4103 26.552 14.4528 26.378L14.7503 25.2969H29.9042Z" fill="#EA792E"/>
<path d="M29.9042 25.2969V26.9013H14.3386C14.3732 26.7259 14.4103 26.552 14.4528 26.378L14.7503 25.2969H29.9042Z" fill="#DD5E26"/>
<path d="M33.9018 18.6377V22.7283H15.834C16.0877 22.2555 16.3666 21.7986 16.668 21.359C16.9323 20.9739 17.2139 20.6007 17.5114 20.2421C17.9855 19.6696 18.5022 19.1331 19.056 18.6377H33.9018Z" fill="#EA792E"/>
<path d="M33.9019 18.6377V20.2421H17.5115C17.9856 19.6696 18.5023 19.1331 19.0561 18.6377H33.9019Z" fill="#DD5E26"/>
<path d="M36.9935 15.4183V16.069H23.0376C24.8877 15.2536 26.9343 14.802 29.0872 14.802H32.7223C34.2058 14.802 35.6402 15.0172 36.9935 15.4183Z" fill="#EA792E"/>
<path d="M53.9546 29.8357V38.1642C53.9546 39.4305 53.7979 40.6597 53.5025 41.8347C51.865 48.3627 45.9574 53.198 38.9195 53.198H35.2838C26.9797 53.198 20.2488 46.467 20.2488 38.1642V29.8357C20.2488 26.6918 21.2146 23.7727 22.8649 21.3595C25.5722 17.4001 30.125 14.802 35.2839 14.802H38.9197C47.2236 14.802 53.9546 21.5329 53.9546 29.8357Z" fill="#F9C744"/>
<path d="M53.9547 29.8357V38.1642C53.9547 39.4305 53.798 40.6597 53.5026 41.8347C51.2833 42.5923 48.928 42.9995 46.4878 42.9995C34.8266 42.9995 25.0994 33.7065 22.8647 21.3595C25.572 17.4001 30.1248 14.802 35.2838 14.802H38.9195C47.2238 14.802 53.9547 21.5329 53.9547 29.8357Z" fill="#FAD98F"/>
<path d="M43.1513 22.0935C42.2479 22.6638 41.9779 23.8584 42.5482 24.7618L45.9418 30.1378C46.5121 31.0412 47.7068 31.3112 48.6102 30.7409C49.5135 30.1706 49.7836 28.976 49.2133 28.0726L45.8196 22.6966C45.2493 21.7932 44.0547 21.5232 43.1513 22.0935Z" fill="#FAEFDC"/>
<path d="M38.7603 16.4817H35.4427C30.7351 16.4817 26.5806 18.8525 24.1103 22.4654C22.6044 24.6675 21.7231 27.3311 21.7231 30.2V37.7998C21.7231 45.3762 27.8652 51.5183 35.4427 51.5183H38.7603C45.1825 51.5183 50.5732 47.106 52.0673 41.1492C52.3368 40.0769 52.4799 38.9554 52.4799 37.8V30.2002C52.4799 22.6237 46.3379 16.4817 38.7603 16.4817ZM51.9045 37.6578C51.9045 38.7702 51.7669 39.8497 51.5074 40.8819C50.0692 46.6158 44.8801 50.863 38.6982 50.863H35.5047C28.2106 50.863 22.2984 44.9508 22.2984 37.6578V30.3423C22.2984 27.5807 23.1466 25.0166 24.5963 22.8971C26.9743 19.4192 30.9733 17.1371 35.5047 17.1371H38.6983C45.9924 17.1371 51.9047 23.0493 51.9047 30.3423V37.6578H51.9045Z" fill="#DD5E26"/>
<path d="M38.6983 17.1371H35.5047C30.9733 17.1371 26.9743 19.4192 24.5963 22.897C23.1467 25.0167 22.2983 27.5808 22.2983 30.3422V37.6578C22.2983 44.9508 28.2106 50.863 35.5047 50.863H38.6983C44.8801 50.863 50.0692 46.6158 51.5075 40.8818C51.767 39.8496 51.9046 38.7701 51.9046 37.6578V30.3422C51.9045 23.0492 45.9924 17.1371 38.6983 17.1371ZM50.5371 37.3199C50.5371 38.3294 50.4121 39.3093 50.1766 40.2462C48.8712 45.4505 44.1614 49.3053 38.5506 49.3053H35.6521C29.0318 49.3053 23.6658 43.9393 23.6658 37.3199V30.6801C23.6658 28.1737 24.4357 25.8464 25.7513 23.9226C27.9097 20.7661 31.5393 18.6947 35.6521 18.6947H38.5506C45.1709 18.6947 50.5369 24.0607 50.5369 30.6801V37.3199H50.5371Z" fill="#EA792E"/>
<path d="M45.3812 40.8707V42.3482C45.3812 43.1326 44.744 43.7682 43.9597 43.7682H32.5579C31.5867 43.7682 30.848 42.8957 31.0084 41.9376L31.6427 38.1541L28.2845 39.3771C27.7224 39.5816 27.1 39.2917 26.8939 38.728L26.5098 37.6713C26.4863 37.6051 26.4686 37.5389 26.4582 37.4712C26.3774 36.9694 26.6613 36.4632 27.1587 36.2807L30.9612 34.8973L32.2665 34.422L33.8603 24.9067L33.9058 24.6359C34.022 23.9428 34.6225 23.4352 35.3244 23.4352H38.2661C39.1564 23.4352 39.8318 24.2342 39.6861 25.1113L38.5059 32.1514L41.5771 31.033C42.1393 30.8285 42.7618 31.1184 42.9663 31.682L43.3519 32.7386C43.5564 33.3008 43.2665 33.9232 42.7028 34.1292L41.9317 34.4103L37.8818 35.8833L37.7141 36.8795L37.5316 37.973C37.4021 38.747 37.998 39.4505 38.781 39.4505H43.9595C44.7441 39.4505 45.3812 40.0863 45.3812 40.8707Z" fill="#DD5E26"/>
<path d="M42.4882 40.9221H37.3097C36.5268 40.9221 35.9308 40.2187 36.0603 39.4445L36.3631 37.6373L36.5776 36.3577L37.8821 35.8833L41.932 34.4103C41.9216 34.3425 41.9041 34.2764 41.8804 34.2101L41.4949 33.1536C41.2904 32.5899 40.6679 32.3 40.1057 32.5045L37.0345 33.623L38.2147 26.5828C38.3604 25.7057 37.6849 24.9067 36.7947 24.9067H33.8603L32.2665 34.422L32.0996 35.419L30.795 35.8935L26.4583 37.4711C26.4685 37.5388 26.4861 37.6049 26.5098 37.6712L26.8939 38.7279C27.0999 39.2915 27.7224 39.5815 28.2846 39.3769L31.6427 38.154L31.0084 41.9374C30.848 42.8954 31.5868 43.7681 32.5579 43.7681H43.9098V42.3421C43.9097 41.5578 43.2725 40.9221 42.4882 40.9221Z" fill="#EA792E"/>
<path d="M32.6271 62.5107C32.6162 62.5107 32.6055 62.5104 32.5944 62.5099C31.6921 62.4662 30.7827 62.3789 29.8917 62.2504C29.5287 62.198 29.2769 61.8614 29.3292 61.4984C29.3816 61.1354 29.7183 60.8832 30.0812 60.9359C30.9308 61.0584 31.7981 61.1417 32.6586 61.1834C33.0249 61.2012 33.3075 61.5125 33.2897 61.8788C33.2727 62.234 32.9791 62.5107 32.6271 62.5107ZM37.9194 62.2706C37.5936 62.2706 37.3094 62.0307 37.2627 61.6989C37.2115 61.3358 37.4645 60.9999 37.8277 60.9488C38.6802 60.8289 39.536 60.6665 40.371 60.466C40.7281 60.3806 41.0861 60.6003 41.1717 60.9569C41.2573 61.3136 41.0375 61.672 40.6809 61.7576C39.8047 61.9677 38.907 62.1381 38.0127 62.2639C37.9814 62.2684 37.9502 62.2706 37.9194 62.2706ZM24.8383 61.0041C24.7659 61.0041 24.6924 60.9921 24.6201 60.967C23.7683 60.6707 22.9207 60.3295 22.1005 59.953C21.7673 59.7999 21.6212 59.4057 21.7742 59.0723C21.9273 58.7391 22.3215 58.5931 22.6549 58.746C23.4365 59.105 24.2445 59.4301 25.0564 59.7126C25.4028 59.8331 25.5859 60.2116 25.4655 60.5579C25.3701 60.8322 25.1131 61.0041 24.8383 61.0041ZM45.5378 60.0525C45.2856 60.0525 45.0444 59.908 44.933 59.6633C44.7811 59.3296 44.9285 58.9358 45.2622 58.7838C46.0442 58.4279 46.8191 58.0295 47.5652 57.5997C47.883 57.4165 48.289 57.526 48.472 57.8437C48.6551 58.1615 48.5459 58.5675 48.2281 58.7505C47.4454 59.2013 46.6327 59.6192 45.8125 59.9926C45.7234 60.0332 45.6297 60.0525 45.5378 60.0525ZM17.7941 57.3534C17.6603 57.3534 17.5254 57.3132 17.4083 57.2294C16.675 56.7048 15.958 56.1385 15.277 55.5463C15.0004 55.3056 14.971 54.8861 15.2117 54.6094C15.4525 54.3326 15.8719 54.3035 16.1485 54.5441C16.798 55.1089 17.4818 55.6489 18.1811 56.1492C18.4794 56.3627 18.5482 56.7774 18.3348 57.0757C18.2051 57.2569 18.0011 57.3534 17.7941 57.3534ZM52.2175 55.7697C52.0312 55.7697 51.846 55.6918 51.7147 55.5398C51.4749 55.2623 51.5055 54.8429 51.7831 54.6032C52.434 54.0408 53.0658 53.4407 53.6608 52.8191C53.9143 52.5541 54.3346 52.5451 54.5996 52.7988C54.8646 53.0524 54.8736 53.4728 54.6199 53.7376C53.9961 54.3892 53.3336 55.0186 52.6511 55.6082C52.5259 55.7165 52.3713 55.7697 52.2175 55.7697ZM12.0606 51.8689C11.8637 51.8689 11.6689 51.7818 11.5378 51.615C10.9804 50.9051 10.4508 50.1606 9.9636 49.402C9.76544 49.0933 9.85496 48.6825 10.1636 48.4844C10.4723 48.2862 10.8831 48.3759 11.0812 48.6844C11.5458 49.4078 12.0507 50.1178 12.5824 50.7949C12.8088 51.0834 12.7586 51.5008 12.4702 51.7274C12.3486 51.8226 12.204 51.8689 12.0606 51.8689ZM57.4265 49.785C57.303 49.785 57.178 49.7506 57.0666 49.6785C56.7586 49.4793 56.6704 49.0682 56.8696 48.7602C57.337 48.0377 57.7748 47.2844 58.1709 46.5214C58.3399 46.1957 58.7408 46.069 59.0662 46.238C59.3917 46.4069 59.5186 46.8079 59.3497 47.1333C58.9342 47.9336 58.4749 48.7237 57.9849 49.4814C57.8576 49.6779 57.6443 49.785 57.4265 49.785ZM8.09692 44.9955C7.83329 44.9955 7.58373 44.8373 7.48001 44.5775C7.14545 43.7396 6.84769 42.8757 6.59494 42.0096C6.49228 41.6575 6.69429 41.2888 7.04637 41.186C7.39872 41.0836 7.76715 41.2854 7.86994 41.6375C8.11086 42.463 8.39468 43.2865 8.71343 44.0851C8.84943 44.4257 8.68355 44.8121 8.34289 44.9481C8.26227 44.9801 8.17886 44.9955 8.09692 44.9955ZM60.7413 42.5769C60.679 42.5769 60.6156 42.5681 60.5529 42.5495C60.2012 42.4455 60.0003 42.0763 60.1043 41.7245C60.3477 40.9004 60.5541 40.0541 60.7179 39.2094C60.7876 38.8495 61.1352 38.6144 61.4962 38.6839C61.8562 38.7536 62.0914 39.1021 62.0217 39.4621C61.85 40.3483 61.6334 41.236 61.3778 42.1007C61.2926 42.3896 61.028 42.5769 60.7413 42.5769ZM6.24047 37.2824C5.90153 37.2824 5.61213 37.0241 5.57999 36.6799C5.49751 35.7951 5.45581 34.8934 5.45581 33.9998V33.969C5.45581 33.6023 5.75318 33.305 6.11987 33.305C6.48657 33.305 6.78394 33.6023 6.78394 33.969V34C6.78394 34.8525 6.82378 35.7127 6.9024 36.5567C6.9364 36.922 6.66799 37.2455 6.30276 37.2795C6.2819 37.2815 6.26105 37.2824 6.24047 37.2824ZM61.8799 34.7258C61.8792 34.7258 61.8784 34.7258 61.8777 34.7258C61.5109 34.7246 61.2146 34.4264 61.2158 34.0596V34C61.2158 33.1373 61.175 32.267 61.0945 31.413C61.0601 31.0478 61.3283 30.724 61.6934 30.6896C62.0593 30.6552 62.3824 30.9232 62.4168 31.2885C62.5012 32.1836 62.5439 33.0959 62.5439 34V34.0637C62.5427 34.4299 62.2456 34.7258 61.8799 34.7258ZM6.62483 29.3586C6.58326 29.3586 6.54089 29.3546 6.49852 29.3465C6.13847 29.2771 5.90272 28.9289 5.97205 28.5689C6.14272 27.6829 6.3584 26.7949 6.61287 25.9296C6.71647 25.5778 7.08582 25.3763 7.43737 25.4799C7.78919 25.5835 7.99054 25.9526 7.88694 26.3044C7.64429 27.129 7.4387 27.9755 7.27601 28.82C7.21504 29.1377 6.9368 29.3586 6.62483 29.3586ZM60.7583 26.8111C60.471 26.8111 60.2062 26.6232 60.1213 26.3335C59.8797 25.5087 59.595 24.6856 59.275 23.887C59.1386 23.5466 59.3041 23.1599 59.6446 23.0237C59.9849 22.8871 60.3715 23.0528 60.5079 23.3933C60.8435 24.2312 61.1422 25.0947 61.3958 25.9603C61.4988 26.3122 61.2971 26.6812 60.9451 26.7843C60.883 26.8025 60.82 26.8111 60.7583 26.8111ZM9.22476 21.8641C9.12197 21.8641 9.01758 21.8402 8.91996 21.7896C8.5943 21.6209 8.46694 21.2202 8.63547 20.8946C9.04998 20.094 9.50832 19.3035 9.99773 18.5448C10.1966 18.2368 10.6073 18.148 10.9157 18.3469C11.2239 18.5458 11.3126 18.9568 11.1136 19.2649C10.6471 19.9881 10.2101 20.742 9.81485 21.5052C9.69704 21.7333 9.46502 21.8641 9.22476 21.8641ZM57.4612 19.595C57.2428 19.595 57.0292 19.4874 56.9022 19.2903C56.4369 18.5674 55.9311 17.8579 55.3987 17.1815C55.1719 16.8933 55.2217 16.4759 55.5098 16.249C55.798 16.0222 56.2155 16.072 56.4423 16.3601C57.0005 17.0693 57.5309 17.8133 58.0189 18.5714C58.2173 18.8798 58.1283 19.2907 57.8198 19.4893C57.7089 19.5609 57.5843 19.595 57.4612 19.595ZM13.838 15.4079C13.6731 15.4079 13.508 15.347 13.3793 15.224C13.114 14.9706 13.1045 14.5502 13.3579 14.2851C13.981 13.6329 14.6427 13.0028 15.3246 12.4125C15.6018 12.1724 16.0212 12.2024 16.2613 12.4798C16.5014 12.7571 16.4713 13.1766 16.194 13.4165C15.5437 13.9797 14.9126 14.5805 14.3181 15.2027C14.1878 15.3391 14.0129 15.4079 13.838 15.4079ZM52.2634 13.5986C52.1091 13.5986 51.9541 13.5452 51.8285 13.4361C51.1785 12.872 50.494 12.3327 49.7942 11.8332C49.4956 11.6201 49.4264 11.2054 49.6395 10.9069C49.8525 10.6085 50.2674 10.539 50.5657 10.7522C51.2996 11.276 52.0173 11.8415 52.6988 12.4329C52.9758 12.6733 53.0056 13.0927 52.7652 13.3697C52.634 13.5212 52.4492 13.5986 52.2634 13.5986ZM20.077 10.5045C19.8475 10.5045 19.6244 10.3855 19.5014 10.1725C19.318 9.85478 19.4268 9.44877 19.7443 9.26523C20.5259 8.8138 21.3382 8.39504 22.1586 8.02037C22.4922 7.86817 22.8861 8.01493 23.0385 8.34869C23.1908 8.68244 23.0438 9.07623 22.7101 9.22857C21.928 9.58557 21.1537 9.98494 20.4086 10.4152C20.3038 10.4758 20.1896 10.5045 20.077 10.5045ZM45.5935 9.30175C45.5009 9.30175 45.407 9.28236 45.3173 9.24132C44.5352 8.88326 43.7268 8.55893 42.9148 8.2775C42.5683 8.15744 42.3847 7.77919 42.5048 7.43255C42.6248 7.08604 43.0031 6.90236 43.3496 7.02255C44.2017 7.3178 45.0497 7.65806 45.8702 8.03379C46.2037 8.18639 46.3502 8.58058 46.1975 8.91394C46.0859 9.15778 45.8451 9.30175 45.5935 9.30175ZM27.4432 7.55938C27.1434 7.55938 26.8714 7.35498 26.7981 7.05071C26.7122 6.69411 26.9316 6.33552 27.2881 6.24959C28.1641 6.03841 29.0616 5.86709 29.9556 5.74025C30.3174 5.68872 30.6547 5.94133 30.7064 6.30457C30.7579 6.66768 30.5052 7.00383 30.1421 7.05536C29.2897 7.17622 28.4341 7.33958 27.5991 7.54079C27.547 7.55341 27.4947 7.55938 27.4432 7.55938ZM37.9834 7.06652C37.9521 7.06652 37.9205 7.06426 37.8886 7.05974C37.0389 6.93822 36.1716 6.85587 35.311 6.8151C34.9447 6.79784 34.6617 6.48679 34.6791 6.12049C34.6965 5.75419 35.0066 5.4725 35.3738 5.48857C36.2761 5.53134 37.1856 5.61766 38.0767 5.74503C38.4397 5.79696 38.692 6.13337 38.6401 6.49648C38.5927 6.82759 38.3086 7.06652 37.9834 7.06652Z" fill="#F0A6B3"/>
</svg>
