<svg width="45" height="45" viewBox="0 0 45 45" fill="none" xmlns="http://www.w3.org/2000/svg">
<g clip-path="url(#clip0)">
<path d="M22.5008 44.9996C34.9271 44.9996 45.0006 34.9261 45.0006 22.4998C45.0006 10.0735 34.9271 0 22.5008 0C10.0745 0 0.000976562 10.0735 0.000976562 22.4998C0.000976562 34.9261 10.0745 44.9996 22.5008 44.9996Z" fill="#55ACEE"/>
<path d="M36.282 16.1699C35.3178 16.5975 34.2806 16.8867 33.1929 17.0158C34.3035 16.3504 35.1558 15.2976 35.5581 14.041C34.5189 14.6575 33.3674 15.1047 32.1429 15.3457C31.1618 14.3009 29.7641 13.6479 28.2163 13.6479C25.2467 13.6479 22.8382 16.0564 22.8382 19.026C22.8382 19.4476 22.886 19.8579 22.9782 20.2517C18.5086 20.0275 14.5455 17.8866 11.8928 14.6318C11.4299 15.4259 11.1644 16.3504 11.1644 17.3359C11.1644 19.2013 12.1145 20.8481 13.5568 21.8123C12.6757 21.7847 11.8458 21.5428 11.1211 21.1389C11.1207 21.1618 11.1207 21.1846 11.1207 21.2071C11.1207 23.8129 12.9753 25.9864 15.4351 26.4801C14.9843 26.6036 14.5082 26.669 14.0185 26.669C13.6711 26.669 13.3346 26.6357 13.0066 26.5732C13.6908 28.7093 15.6765 30.2643 18.0305 30.308C16.1895 31.7507 13.8709 32.6102 11.3505 32.6102C10.9173 32.6102 10.4882 32.585 10.0682 32.5348C12.447 34.0613 15.2747 34.9513 18.3116 34.9513C28.2039 34.9513 33.6137 26.7565 33.6137 19.6489C33.6137 19.4159 33.6084 19.1837 33.598 18.9534C34.6496 18.1954 35.5613 17.2484 36.282 16.1699Z" fill="#F1F2F2"/>
</g>
<defs>
<clipPath id="clip0">
<rect width="45" height="45" fill="white"/>
</clipPath>
</defs>
</svg>
